<?xml version="1.0" encoding="UTF-8" standalone="no"?>
<svg width="600px" height="524px" viewBox="0 0 600 524" version="1.1" xmlns="http://www.w3.org/2000/svg" xmlns:xlink="http://www.w3.org/1999/xlink" xmlns:sketch="http://www.bohemiancoding.com/sketch/ns">
    <!-- Generator: Sketch 3.0 (7574) - http://www.bohemiancoding.com/sketch -->
    <title>ISO_7010_W009</title>
    <description>Created with Sketch.</description>
    <defs></defs>
    <g id="Page-1" stroke="none" stroke-width="1" fill="none" fill-rule="evenodd" sketch:type="MSPage">
        <g id="ISO_7010_W009_Original" sketch:type="MSLayerGroup" fill="#000000">
            <path d="M299.907195,427.21309 C294.195786,435.369175 286.659577,442.435583 277.477935,447.740659 C245.661547,466.123892 205.434994,456.772288 184.695727,427.261124 L184.695727,427.261124 L191.913832,423.090576 C207.827862,444.387131 237.531634,450.895426 261.112266,437.270755 C277.064885,428.053469 286.44627,411.799083 287.60466,394.679519 C287.188486,391.040425 287.053488,387.361172 287.20888,383.676163 C286.438431,378.201056 284.799905,372.771519 282.2401,367.586345 L288.143165,364.175609 C288.786238,364.875582 289.484194,365.508997 290.226358,366.072898 C290.230042,366.060885 290.233731,366.048872 290.237422,366.03686 C290.803121,366.475546 291.403408,366.866685 292.040314,367.234747 C292.777632,367.660839 293.534735,368.021221 294.30487,368.317694 C298.596527,369.918787 303.53966,369.668363 307.811513,367.200128 C308.449419,366.831558 309.03098,366.412663 309.597435,365.973268 C309.611714,366.01968 309.625942,366.0661 309.640121,366.112528 C310.370752,365.555045 311.058416,364.929557 311.69293,364.238779 L317.596336,367.650314 C315.04519,372.818858 313.409048,378.230144 312.635252,383.687375 C312.788376,387.380566 312.649902,391.067794 312.229082,394.714413 C313.376991,411.850976 322.760851,428.125225 338.725389,437.351033 C362.307393,450.978916 392.012878,444.469086 407.927816,423.167543 L415.146338,427.339068 L415.146338,427.339068 C394.407548,456.854246 354.193845,466.181677 322.375643,447.794139 C313.174354,442.47678 305.624552,435.391213 299.907195,427.21309 L299.907195,427.21309 Z M329.130931,322.322824 C343.616965,312.791757 353.187513,296.381256 353.18752,277.7488 C353.18752,250.478742 332.687617,227.971959 306.280766,224.825386 L306.280766,216.477951 C342.212931,219.699253 370.410303,249.910203 370.410303,286.70455 C370.410306,297.347824 368.051678,307.443035 363.829289,316.49482 C373.794611,317.348217 383.732578,320.34715 392.96176,325.674649 C424.777075,344.039892 436.797378,383.540805 421.629605,416.238779 L421.629605,416.238779 L414.411743,412.072304 C424.883669,387.655482 415.664155,358.685861 392.08433,345.074499 C375.990863,335.784624 357.043529,335.863367 341.574382,343.613607 C338.825378,345.633227 335.924858,347.45823 332.893145,349.068271 C328.44554,352.504512 324.484796,356.696892 321.220387,361.58927 L315.317521,358.181874 C315.601936,357.274702 315.801179,356.353235 315.918034,355.428217 C315.846279,355.444905 315.774481,355.461483 315.702641,355.477951 C315.799467,354.767872 315.837722,354.051574 315.837722,353.315053 C315.837722,347.449652 312.676851,342.327851 307.962751,339.562998 C307.368811,339.230961 306.761963,338.95944 306.146338,338.707998 C306.15948,338.693851 306.172627,338.679711 306.18578,338.665576 C305.299341,338.285786 304.371312,337.984121 303.410303,337.769223 L303.410303,330.942575 C309.364697,330.556387 315.053662,329.189524 320.317373,327.001897 C323.149712,325.230449 326.096112,323.668462 329.130931,322.322824 L329.130931,322.322824 Z M235.965117,316.438238 C231.759283,307.401231 229.410303,297.325968 229.410303,286.70455 C229.410303,249.910181 257.623884,219.699253 293.541285,216.477951 L293.541285,224.825386 C267.147738,227.97197 246.658172,250.478753 246.658162,277.7488 C246.658162,296.231268 256.070514,312.527419 270.353951,322.091328 C273.651022,323.53032 276.845409,325.223908 279.904459,327.163344 C285.055366,329.256803 290.606693,330.565976 296.410303,330.942575 L296.410303,337.769223 C289.295398,339.36104 283.955402,345.71358 283.955391,353.315053 C283.955391,354.052763 284.027163,354.766779 284.124156,355.477951 C284.061129,355.463513 283.998133,355.448991 283.93517,355.434384 C284.052849,356.330861 284.248331,357.224043 284.52423,358.104238 L278.621162,361.512483 C275.44413,356.750034 271.607565,352.650731 267.304552,349.266336 C263.998508,347.536293 260.846308,345.551382 257.874055,343.337706 C242.477172,335.779514 223.71299,335.779841 207.754794,344.993607 C184.17414,358.60835 174.954321,387.585201 185.426617,412.008096 L178.208508,416.175609 L178.208508,416.175609 C163.041879,383.472381 175.077829,343.987941 206.894211,325.618144 C216.104657,320.300309 226.020678,317.300794 235.965117,316.438238 L235.965117,316.438238 Z M597.6,499.6 L313.8,8 C310.9,3 305.6,0 299.9,0 C294.2,0 288.9,3.1 286,8 L2.2,499.6 C-0.7,504.6 -0.7,510.7 2.2,515.6 C5.1,520.6 10.4,523.6 16.1,523.6 L583.7,523.6 C589.4,523.6 594.7,520.5 597.6,515.6 C600.5,510.6 600.5,504.5 597.6,499.6 Z M44,491.52526 L300,50.0363265 L556,491.52526 L44,491.52526 Z M299.927355,278.477951 C283.707679,278.477951 268.688234,283.790755 256.410303,292.813086 C257.821237,297.001622 259.814215,300.91445 262.242133,304.477951 C272.721956,296.297615 285.775009,291.442816 299.927355,291.442816 C314.080955,291.442827 327.132284,296.296299 337.612576,304.477951 C340.032583,300.918891 342.001561,296.995089 343.410303,292.813086 C331.134358,283.795567 316.142283,278.477962 299.927355,278.477951 Z M235.587805,390.51158 C243.579932,404.528257 255.381867,414.934772 268.905974,421.175609 C271.680585,417.927825 273.940011,414.310584 275.695727,410.486639 C263.75515,405.391906 253.301565,396.462905 246.328096,384.232758 C239.354013,372.001533 236.94376,358.372347 238.557468,345.353181 C234.416653,344.985499 230.195908,345.184232 226.037326,345.992146 C224.61596,360.96788 227.598023,376.498987 235.587805,390.51158 L235.587805,390.51158 Z M364.24077,390.596251 C372.230219,376.575933 375.228729,361.019452 373.80483,346.035787 C369.641164,345.226389 365.419108,345.05366 361.272106,345.426132 C362.884422,358.447635 360.475216,372.082485 353.504092,384.315808 C346.532344,396.5502 336.084211,405.480682 324.146338,410.576508 C325.901679,414.39245 328.181256,417.995206 330.950611,421.238779 C344.465203,414.9957 356.253654,404.612473 364.24077,390.596251 L364.24077,390.596251 Z" id="sign_border" sketch:type="MSShapeGroup"></path>
        </g>
    </g>
</svg>