<?xml version="1.0" encoding="UTF-8" standalone="no"?>
<svg width="602px" height="526px" viewBox="0 0 602 526" version="1.1" xmlns="http://www.w3.org/2000/svg" xmlns:xlink="http://www.w3.org/1999/xlink" xmlns:sketch="http://www.bohemiancoding.com/sketch/ns">
    <!-- Generator: Sketch 3.0 (7574) - http://www.bohemiancoding.com/sketch -->
    <title>ISO_7010_W014</title>
    <description>Created with Sketch.</description>
    <defs></defs>
    <g id="Page-1" stroke="none" stroke-width="1" fill="none" fill-rule="evenodd" sketch:type="MSPage">
        <g id="ISO_7010_W014_Original" sketch:type="MSLayerGroup" transform="translate(1.000000, 1.000000)">
            <path d="M597.7,499.3 L313.9,7.7 C311,2.7 305.7,-0.3 300,-0.3 C294.3,-0.3 289,2.8 286.1,7.7 L2.3,499.3 C-0.6,504.3 -0.6,510.4 2.3,515.3 C5.2,520.3 10.5,523.3 16.2,523.3 L583.8,523.3 C589.5,523.3 594.8,520.2 597.7,515.3 C600.6,510.3 600.6,504.2 597.7,499.3 L597.7,499.3 Z M300.105,49.7363228 L556.105,491.225256 L44.1,491.225256 L300.105,49.7363228 Z M268.447228,195.046789 L176.062424,428.995226 L135.108983,416.057365 L130.099065,431.617698 C148.961918,436.169432 168.825897,444.653278 187.509265,449.191252 L193.729111,427.69097 L219.06239,427.69097 C219.817054,441.784513 227.95636,456.030619 243.081442,456.064522 C258.273831,457.341656 271.698296,446.440947 272.464097,428.438823 L333.561713,428.201833 C331.762079,448.425779 354.460721,455.264149 363.966435,455.554316 C377.370956,455.554316 393.605354,443.631541 394.371156,428.439152 L429.591055,428.202162 L430.101929,352.651036 C428.882429,338.947374 423.213103,333.470096 410.66971,332.96355 L378.542932,332.96355 L378.74219,244.110608 C379.182097,235.194103 371.593511,228.277059 362.47688,227.24203 L297.166358,227.480885 C288.887523,229.392398 285.359251,231.722509 281.373692,240.34396 C261.008152,292.147256 243.93217,335.340268 225.299656,386.275057 L211.968922,386.01962 L283.340047,200.392474 L268.447228,195.046789 Z M294.285059,245.680442 C295.280531,243.581567 295.72712,241.404217 301.316774,239.961658 L357.79864,239.294633 C362.258836,239.380985 364.41405,242.689587 365.206176,246.662682 L365.206176,332.963949 L355.8269,332.963949 L355.060599,285.150201 C355.057608,282.474183 352.209284,280.292446 349.283981,280.164513 L342.662688,279.909076 C340.260085,279.816442 336.13014,283.338831 335.210181,285.047427 L324.429129,306.09102 L300.652381,299.960617 C295.455499,298.393117 291.702871,308.049697 297.356343,309.956922 L325.59229,318.923782 C332.327556,321.183595 329.956761,318.38452 331.203782,317.595296 L335.884844,308.036435 L335.884844,325.984913 L306.143219,326.24035 C303.977337,326.600995 302.969131,328.086251 302.517128,330.015712 L290.507602,368.119334 L256.784407,367.863897 L291.847755,316.142367 L298.634574,322.387141 C304.568141,323.764487 301.633565,320.215076 302.043289,318.523631 L287.378385,300.058636 C284.418781,299.71595 281.645641,299.590749 282.692436,303.922146 L288.569865,311.076808 L251.387599,367.353263 L241.155969,367.864126 L294.285059,245.680442 Z M312.693217,339.482178 L319.905514,338.715878 L320.927281,367.864206 L304.304996,368.119643 L312.693217,339.482178 Z M245.380443,416.224884 C252.827665,416.224894 258.841801,422.270629 258.841801,429.717153 C258.841791,437.163977 252.827665,443.209423 245.380443,443.209423 C237.93322,443.209423 231.888173,437.163678 231.888173,429.717153 C231.888173,422.27033 237.93342,416.224884 245.380443,416.224884 Z M363.710768,407.540114 C375.549784,406.277638 381.514661,417.417361 381.514661,424.864384 C381.514651,432.311207 376.777659,441.166587 364.988102,441.932389 C357.556535,442.415422 346.892048,432.803494 347.408565,425.374918 C348.174865,414.351561 353.280808,408.65292 363.710768,407.540114 Z M343.252495,254.416365 C334.858989,254.003151 330.940836,265.877465 337.207348,270.930959 C342.830506,277.887888 356.140001,272.552803 354.812811,263.358895 C354.637035,257.642305 348.62946,253.739109 343.251997,254.415767 L343.252495,254.416365 Z" id="Shape" fill="#000000" sketch:type="MSShapeGroup"></path>
            <g id="Group" transform="translate(130.005781, 195.259344)">
                <g transform="translate(0.018798, -0.202584)"></g>
            </g>
        </g>
    </g>
</svg>