<?xml version="1.0" encoding="UTF-8" standalone="no"?>
<svg width="174px" height="151px" viewBox="0 0 174 151" version="1.1" xmlns="http://www.w3.org/2000/svg" xmlns:xlink="http://www.w3.org/1999/xlink" xmlns:sketch="http://www.bohemiancoding.com/sketch/ns">
    <!-- Generator: Sketch 3.0 (7574) - http://www.bohemiancoding.com/sketch -->
    <title>ISO_7010_W034</title>
    <description>Created with Sketch.</description>
    <defs></defs>
    <g id="Page-1" stroke="none" stroke-width="1" fill="none" fill-rule="evenodd" sketch:type="MSPage">
        <g id="ISO_7010_W034_Original" sketch:type="MSLayerGroup" fill="#000000">
            <path d="M84.37,1.32 C86.78,-0.47 90.54,0.54 91.75,3.28 C118.89,50.1 146.08,96.89 173.21,143.72 C175.46,146.81 172.85,151.63 169.02,151.36 C114.69,151.44 60.36,151.39 6.03,151.38 C1.82,152.02 -1.21,146.75 1.44,143.42 C28.46,96.78 55.51,50.16 82.54,3.53 C83,2.66 83.61,1.92 84.37,1.32 L84.37,1.32 Z M86.19,18.14 C62.46,59.07 38.72,99.99 15,140.93 C63.17,141.08 111.34,140.85 159.51,141.04 C135.62,99.55 111.41,58.24 87.56,16.73 C87.21,17.08 86.53,17.79 86.19,18.14 L86.19,18.14 Z M104.29,120.47 C102.26,121.92 103.24,126.47 106.01,125.8 C109.55,125.19 107.75,118.06 104.29,120.47 L104.29,120.47 Z M89.06,92.26 C89.03,95.42 94.66,96.7 95.08,93.2 C93.66,91.35 91.02,92.08 89.06,92.26 L89.06,92.26 Z M73,82.85 C68.77,84.66 66.59,89.59 67.82,93.97 C68.45,96.18 68.98,99.33 71.55,100.03 C71.96,97.65 71.74,95.06 72.88,92.87 C75.25,89.3 80.34,90 83.21,87.08 C82.4,85.23 81.26,83.53 79.71,82.21 C77.88,79.99 75.03,82.02 73,82.85 L73,82.85 Z M27.97,133.62 C42.27,108.29 57.06,83.23 71.64,58.06 C76.03,60.67 80.48,63.22 84.5,66.39 C89.44,67.25 94.86,68.94 97.58,73.51 C101.22,72.57 104.95,73.4 108.48,74.37 C112.84,75.13 115.38,79.33 117.17,82.99 C117.19,83.56 117.24,84.71 117.26,85.29 C113.04,85.03 110.53,79.76 106.01,81.46 C107.5,83.47 109.16,85.52 109.49,88.08 C110.65,95.13 106.88,101.87 107.79,108.94 C107.79,112.49 110.57,115.5 110.17,119.04 C109.02,121.8 110.33,125.87 106.94,127.32 C104.23,128.43 102.18,125.94 101.36,123.67 C98.49,124.01 95.89,122.82 93.4,121.58 C89.92,119.53 85.99,123.28 82.47,121.31 C80.03,119.89 78.13,117.32 75.09,117.23 C72.95,117.04 69.78,115.88 68.53,118.35 C65.91,123.19 68.68,128.54 69.47,133.49 C55.64,133.72 41.8,133.46 27.97,133.62 L27.97,133.62 Z" id="Shape" sketch:type="MSShapeGroup"></path>
        </g>
    </g>
</svg>