<?xml version="1.0" encoding="UTF-8" ?>
<!DOCTYPE svg PUBLIC "-//W3C//DTD SVG 1.1//EN" "http://www.w3.org/Graphics/SVG/1.1/DTD/svg11.dtd">
<svg width="200pt" height="200pt" viewBox="0 0 200 200" version="1.1" xmlns="http://www.w3.org/2000/svg">
<g id="#ffffffff">
</g>
<g id="#f4c91bff">
<path fill="#f4c91b" opacity="1.00" d=" M 99.19 42.14 C 99.53 41.79 100.21 41.08 100.56 40.73 C 124.41 82.24 148.62 123.55 172.51 165.04 C 124.34 164.85 76.17 165.08 28.00 164.93 C 51.72 123.99 75.46 83.07 99.19 42.14 M 40.97 157.62 C 54.80 157.46 68.64 157.72 82.47 157.49 C 81.68 152.54 78.91 147.19 81.53 142.35 C 82.78 139.88 85.95 141.04 88.09 141.23 C 91.13 141.32 93.03 143.89 95.47 145.31 C 98.99 147.28 102.92 143.53 106.40 145.58 C 108.89 146.82 111.49 148.01 114.36 147.67 C 115.18 149.94 117.23 152.43 119.94 151.32 C 123.33 149.87 122.02 145.80 123.17 143.04 C 123.57 139.50 120.79 136.49 120.79 132.94 C 119.88 125.87 123.65 119.13 122.49 112.08 C 122.16 109.52 120.50 107.47 119.01 105.46 C 123.53 103.76 126.04 109.03 130.26 109.29 C 130.24 108.71 130.19 107.56 130.17 106.99 C 128.38 103.33 125.84 99.13 121.48 98.37 C 117.95 97.40 114.22 96.57 110.58 97.51 C 107.86 92.94 102.44 91.25 97.50 90.39 C 93.48 87.22 89.03 84.67 84.64 82.06 C 70.06 107.23 55.27 132.29 40.97 157.62 Z" />
<path fill="#f4c91b" opacity="1.00" d=" M 86.00 106.85 C 88.03 106.02 90.88 103.99 92.71 106.21 C 94.26 107.53 95.40 109.23 96.21 111.08 C 93.34 114.00 88.25 113.30 85.88 116.87 C 84.74 119.06 84.96 121.65 84.55 124.03 C 81.98 123.33 81.45 120.18 80.82 117.97 C 79.59 113.59 81.77 108.66 86.00 106.85 Z" />
<path fill="#f4c91b" opacity="1.00" d=" M 102.06 116.26 C 104.02 116.08 106.66 115.35 108.08 117.20 C 107.66 120.70 102.03 119.42 102.06 116.26 Z" />
<path fill="#f4c91b" opacity="1.00" d=" M 117.29 144.47 C 120.75 142.06 122.55 149.19 119.01 149.80 C 116.24 150.47 115.26 145.92 117.29 144.47 Z" />
</g>
<g id="#000000ff">
<path fill="#000000" opacity="1.00" d=" M 97.37 25.32 C 99.78 23.53 103.54 24.54 104.75 27.28 C 131.89 74.10 159.08 120.89 186.21 167.72 C 188.46 170.81 185.85 175.63 182.02 175.36 C 127.69 175.44 73.36 175.39 19.03 175.38 C 14.82 176.02 11.79 170.75 14.44 167.42 C 41.46 120.78 68.51 74.16 95.54 27.53 C 96.00 26.66 96.61 25.92 97.37 25.32 M 99.19 42.14 C 75.46 83.07 51.72 123.99 28.00 164.93 C 76.17 165.08 124.34 164.85 172.51 165.04 C 148.62 123.55 124.41 82.24 100.56 40.73 C 100.21 41.08 99.53 41.79 99.19 42.14 Z" />
<path fill="#000000" opacity="1.00" d=" M 40.97 157.62 C 55.27 132.29 70.06 107.23 84.64 82.06 C 89.03 84.67 93.48 87.22 97.50 90.39 C 102.44 91.25 107.86 92.94 110.58 97.51 C 114.22 96.57 117.95 97.40 121.48 98.37 C 125.84 99.13 128.38 103.33 130.17 106.99 C 130.19 107.56 130.24 108.71 130.26 109.29 C 126.04 109.03 123.53 103.76 119.01 105.46 C 120.50 107.47 122.16 109.52 122.49 112.08 C 123.65 119.13 119.88 125.87 120.79 132.94 C 120.79 136.49 123.57 139.50 123.17 143.04 C 122.02 145.80 123.33 149.87 119.94 151.32 C 117.23 152.43 115.18 149.94 114.36 147.67 C 111.49 148.01 108.89 146.82 106.40 145.58 C 102.92 143.53 98.99 147.28 95.47 145.31 C 93.03 143.89 91.13 141.32 88.09 141.23 C 85.95 141.04 82.78 139.88 81.53 142.35 C 78.91 147.19 81.68 152.54 82.47 157.49 C 68.64 157.72 54.80 157.46 40.97 157.62 M 86.00 106.85 C 81.77 108.66 79.59 113.59 80.82 117.97 C 81.45 120.18 81.98 123.33 84.55 124.03 C 84.96 121.65 84.74 119.06 85.88 116.87 C 88.25 113.30 93.34 114.00 96.21 111.08 C 95.40 109.23 94.26 107.53 92.71 106.21 C 90.88 103.99 88.03 106.02 86.00 106.85 M 102.06 116.26 C 102.03 119.42 107.66 120.70 108.08 117.20 C 106.66 115.35 104.02 116.08 102.06 116.26 M 117.29 144.47 C 115.26 145.92 116.24 150.47 119.01 149.80 C 122.55 149.19 120.75 142.06 117.29 144.47 Z" />
</g>
</svg>
