<?xml version="1.0" encoding="UTF-8" standalone="no"?>
<svg width="600px" height="524px" viewBox="0 0 600 524" version="1.1" xmlns="http://www.w3.org/2000/svg" xmlns:xlink="http://www.w3.org/1999/xlink" xmlns:sketch="http://www.bohemiancoding.com/sketch/ns">
    <!-- Generator: Sketch 3.0 (7574) - http://www.bohemiancoding.com/sketch -->
    <title>ISO_7010_W028</title>
    <description>Created with Sketch.</description>
    <defs></defs>
    <g id="Page-1" stroke="none" stroke-width="1" fill="none" fill-rule="evenodd" sketch:type="MSPage">
        <g id="ISO_7010_W028_Original" sketch:type="MSLayerGroup" fill="#000000">
            <path d="M597.6,499.6 L313.8,8 C310.9,3 305.6,0 299.9,0 C294.2,0 288.9,3.1 286,8 L2.2,499.6 C-0.7,504.6 -0.7,510.7 2.2,515.6 C5.1,520.6 10.4,523.6 16.1,523.6 L583.7,523.6 C589.4,523.6 594.7,520.5 597.6,515.6 C600.5,510.6 600.5,504.5 597.6,499.6 Z M556,491.52526 L44,491.52526 L300,50.0363265 L556,491.52526 Z M345.67882,367.62701 C338.46312,356.24117 337.85972,353.61623 340.63074,345.66724 C344.69545,334.00722 344.6784,333.93049 338.72989,337.11424 C334.21042,339.53313 333.79025,338.45507 334.71734,326.8189 L335.75288,313.82172 L325.51495,324.93969 L315.27702,336.05769 L318.13567,323.21005 C321.51304,308.03129 317.58278,287.91593 309.09186,276.92307 L303.52163,269.71154 L303.45763,293.07917 C303.39553,315.67171 299.45035,334.61538 294.80733,334.61538 C293.56847,334.61538 290.91189,330.64892 288.90383,325.80107 C284.59495,315.39848 281.09071,317.68119 279.80097,331.73077 C278.40823,346.90237 271.16854,344.71439 265.48382,327.40384 L260.74734,312.98077 L258.62476,325.24038 C257.45734,331.98317 255.20775,337.5 253.62567,337.5 C252.03315,337.5 251.44438,341.04092 252.30667,345.43269 C253.50937,351.55829 251.69056,355.94149 244.32258,364.67383 L234.78099,375.98227 L228.18809,363.23152 C222.90965,353.02295 221.26643,344.01011 219.94621,318.02596 C218.72138,293.91908 219.18091,285.57191 221.73276,285.57404 C223.6223,285.57604 225.97054,286.875 226.95108,288.46154 C227.93161,290.04807 229.73096,291.34615 230.94963,291.34615 C233.53755,291.34615 239.93185,258.7666 239.93185,245.58087 C239.93185,240.60754 240.84361,236.53846 241.95798,236.53846 C243.07235,236.53846 248.26466,240.68733 253.49644,245.75817 L263.00877,254.97788 L263.00877,224.12356 C263.00877,207.08442 264.20676,193.26923 265.68431,193.26923 C267.15586,193.26923 271.68474,197.48798 275.74848,202.64423 C283.79704,212.85659 283.84978,212.76609 284.57463,187.5 C284.82496,178.77404 286.81553,168.38942 288.99809,164.42307 L292.96639,157.21154 L295.74145,166.68731 C297.26776,171.89899 303.68825,182.03845 310.00919,189.21945 C316.33016,196.40044 322.48689,206.41519 323.69081,211.47444 C325.82326,220.4356 325.88739,220.46828 326.17504,212.74038 C326.5353,203.062 329.30254,202.75188 337.4945,211.47183 C343.43245,217.79248 349.631,233.28623 353.86893,252.40099 L355.78694,261.05198 L359.50766,254.09977 L363.22836,247.14756 L368.03767,254.48749 C373.67652,263.09346 374.91015,279.68035 371.85165,305.76923 C369.89632,322.44828 370.11564,323.92892 373.83714,319.17464 C377.75006,314.17581 378.1441,314.48781 379.92809,323.99723 C382.07652,335.44933 379.69732,349.45462 373.56564,361.45148 C369.03157,370.32245 359.44541,380.82981 356.03762,380.66391 C354.84771,380.60591 350.18626,374.73937 345.67885,367.62701 L345.67882,367.62701 Z M292.806413,346.406248 C281.372827,346.487059 270.101017,349.275993 262.318241,354.615945 C234.931479,373.406693 228.431037,413.5635 248.97577,436.993851 L257.766838,447.014052 L240.184702,447.014052 C223.368499,447.014052 222.63374,447.29663 222.63374,454.193634 L222.63374,461.404432 L293.118153,461.404432 L363.63374,461.404432 L363.63374,454.193634 C363.63374,447.374974 362.761187,447.014052 347.641478,447.014052 L331.68039,447.014052 L338.756888,437.649379 C360.997936,408.211292 350.90157,365.723546 318.213223,351.244662 C310.685774,347.910479 301.699203,346.343417 292.806413,346.406248 Z M295.669266,360.405569 C309.602369,360.306134 323.315526,366.72692 330.7921,381.225317 C341.009465,401.038645 334.468258,427.554006 316.693279,438.463995 C289.31865,455.266114 251.63374,434.293443 251.63374,402.263892 C251.63374,376.544118 273.933618,360.560733 295.669266,360.405569 Z" id="sign_border" sketch:type="MSShapeGroup"></path>
        </g>
    </g>
</svg>