<?xml version="1.0" encoding="UTF-8" standalone="no"?>
<svg width="600px" height="524px" viewBox="0 0 600 524" version="1.1" xmlns="http://www.w3.org/2000/svg" xmlns:xlink="http://www.w3.org/1999/xlink" xmlns:sketch="http://www.bohemiancoding.com/sketch/ns">
    <!-- Generator: Sketch 3.0 (7574) - http://www.bohemiancoding.com/sketch -->
    <title>ISO_7010_W002</title>
    <description>Created with Sketch.</description>
    <defs></defs>
    <g id="Page-1" stroke="none" stroke-width="1" fill="none" fill-rule="evenodd" sketch:type="MSPage">
        <g id="ISO_7010_W002_Original" sketch:type="MSLayerGroup" fill="#000000">
            <path d="M597.6,499.6 L313.8,8 C310.9,3 305.6,0 299.9,0 C294.2,0 288.9,3.1 286,8 L2.2,499.6 C-0.7,504.6 -0.7,510.7 2.2,515.6 C5.1,520.6 10.4,523.6 16.1,523.6 L583.7,523.6 C589.4,523.6 594.7,520.5 597.6,515.6 C600.5,510.6 600.5,504.5 597.6,499.6 L597.6,499.6 Z M190.439385,272.913503 C192.00022,258.735672 193.600386,244.41608 195.123757,230.902344 L195.123757,230.902344 L155.834654,298.659002 L155.834654,298.659002 C158.416714,313.901615 161.224422,330.836476 163.386783,344.807911 L163.386783,344.807911 C165.431077,344.877411 168.841703,345.010379 172.570503,345.010379 C177.300407,345.010379 180.215562,345.468838 182.819461,345.132858 C183.594143,337.175087 184.523084,328.065708 185.552552,318.243194 C184.361345,319.956008 183.651818,315.576719 181.437477,315.681174 C178.424986,315.823278 175.526169,314.317021 175.071447,314.08966 C174.616726,313.862311 171.547397,311.816088 170.979001,311.475041 C170.410605,311.134006 168.591743,309.428818 168.137021,308.292026 C167.682312,307.155246 167.568626,303.631184 167.341265,302.835439 C167.113916,302.039682 166.54552,299.368226 167.113916,297.265166 C167.682312,295.162105 168.137021,295.957862 169.614849,294.423186 C171.092676,292.888521 171.717909,292.831673 173.025224,291.126485 C174.332539,289.421297 174.844087,288.057156 174.844087,287.602435 C174.844087,287.147725 173.820981,281.804801 173.707295,281.236405 C173.59362,280.66802 172.91155,278.621786 172.684189,277.59868 C172.456828,276.575563 173.451516,275.183003 175.185122,274.415665 C176.918728,273.648327 178.282881,274.785119 179.618615,274.529339 C180.954349,274.27356 180.41436,273.847269 180.528046,273.392559 C180.641721,272.937838 181.181698,272.028406 183.25634,272.369442 C185.330982,272.710477 186.837227,274.103048 188.826613,274.7567 C189.498015,274.977302 190.036698,273.97107 190.439385,272.913503 L190.439385,272.913503 Z M134.910665,344.138828 C133.958657,342.598404 133.028251,341.060791 132.126688,339.544957 L132.126688,339.544957 L44,491.52526 L279.629399,491.52526 L279.629399,491.52526 C259.010189,480.050577 202.344642,448.326171 201.172756,445.591765 L201.172756,445.591765 C201.932572,445.375116 204.471807,445.924266 208.345804,447.055913 L208.345804,447.055913 C207.882678,446.625335 207.527299,446.254247 207.55987,446.123954 C207.639233,445.806716 208.273675,445.806716 209.225399,444.696356 C210.177135,443.586007 211.049552,442.872203 211.684039,442.237716 C212.318537,441.60323 214.459928,440.254938 214.459928,439.937701 C214.459928,439.620452 215.411664,438.430785 216.125457,438.510103 C216.839261,438.589353 217.189766,439.255006 217.315124,439.303214 L217.315124,439.303214 C218.220808,439.651561 224.611737,441.365298 225.32553,441.444605 C226.039335,441.523968 228.973837,443.348065 229.687641,443.427383 C230.401435,443.506633 235.953201,446.282578 236.587699,446.599816 C237.222186,446.917065 238.649784,448.661912 239.046339,448.899843 C239.442895,449.137774 239.938581,451.358472 239.839439,452.706763 C239.74032,454.055054 239.839439,454.134361 238.649784,454.292985 C237.49174,454.447393 236.03309,455.447238 234.566459,455.920914 C244.056586,459.335834 254.737852,463.301792 265.482248,467.353786 C265.724428,466.941784 265.911888,466.633589 265.932698,466.586185 L265.932755,466.586185 C266.583307,465.104361 267.043115,464.444794 267.122421,463.968932 C267.201785,463.493058 267.915532,462.303392 268.629337,462.144779 C269.34313,461.986154 271.087977,462.144779 271.960395,462.303392 C272.832812,462.462016 274.498341,463.017196 274.974215,463.017196 C275.450077,463.017196 276.401813,463.413752 277.115606,463.730989 C277.82941,464.048238 278.503545,464.94048 278.939759,465.872392 C279.375974,466.804292 278.761311,466.764645 278.860396,467.458614 C278.959515,468.152583 279.653507,468.489656 279.336258,468.648281 C279.01902,468.806894 277.35348,469.044825 277.036242,468.965518 C276.718993,468.886155 276.14399,468.390515 275.291396,468.806894 C274.494434,469.196104 274.425111,469.827861 273.771689,470.491643 L273.771689,470.491643 C296.580645,479.156178 318.357627,487.667883 328.182845,491.52526 L428.474826,491.52526 C435.227813,493.059865 439.114329,493.935383 439.114329,493.935383 L511.333585,495.662223 C511.333585,495.662223 503.773961,494.115433 491.062119,491.52526 L491.062119,491.52526 L556,491.52526 L534.40748,454.28753 C501.444187,450.465188 235.239706,419.42668 228.884528,413.196739 C234.602912,412.679887 460.535361,423.873667 518.443086,426.755878 L518.443086,426.755878 L508.546331,409.688269 L508.546331,409.688269 L508.790121,411.248523 L304.693118,405.851725 L500.519798,395.845982 L482.164877,364.191706 C451.001135,368.285053 250.641527,394.567518 243.856507,394.567518 C247.591144,391.926219 438.906787,348.346818 469.007703,341.501289 L469.007703,341.501289 L441.53167,294.117052 L441.53167,294.117052 C418.236386,304.668514 268.676584,372.361008 258.62456,375.639224 C266.298042,369.270149 401.113802,291.9772 430.526459,275.137838 L413.887946,246.443623 C387.078211,266.646963 215.309908,395.983478 209.4245,397.730709 C204.434518,399.221309 376.465819,234.536987 396.094359,215.757405 L396.094359,215.757405 L381.909356,191.294428 L381.909356,191.294428 L261.028134,317.049902 L372.979339,175.894024 L348.103231,132.99353 L348.103231,132.99353 C342.987059,141.639108 259.036757,283.444508 218.910624,347.455633 L218.910624,347.455633 C219.258499,348.09459 219.602242,348.911992 220.315728,349.44386 C221.878811,350.609071 222.361951,350.580652 223.271382,351.376409 C224.180813,352.172154 224.891303,354.019447 225.317605,356.150926 C225.743908,358.282405 224.97657,359.447615 224.97657,359.902337 C224.97657,360.357047 225.772315,361.94856 226.795432,361.493838 C227.818538,361.039129 229.182691,360.925443 229.296365,360.129697 C229.410051,359.333941 230.887879,356.832996 230.887879,356.378286 C230.887879,355.923565 231.115239,354.332063 231.342588,353.649981 C231.569949,352.967911 231.79731,351.831119 232.47938,351.149048 C233.161462,350.466966 233.957208,349.102825 234.980325,348.989139 C236.003431,348.875465 238.731736,349.2165 239.186446,349.2165 C239.641167,349.2165 241.005319,350.466966 241.118994,350.921688 C241.232669,351.376409 241.573715,352.626875 241.68739,353.422632 C241.801065,354.218377 241.68739,355.696204 241.68739,356.2646 C241.68739,356.832996 240.550598,359.220266 240.095888,359.447615 C239.641167,359.674976 237.822304,361.607524 237.026548,361.834885 C236.230791,362.062234 235.889756,362.289595 234.752964,362.63063 C233.616172,362.971666 231.79731,363.994783 231.228914,364.676853 C230.660518,365.358935 230.490006,366.069425 229.637412,367.405158 C228.784818,368.740892 228.273259,369.565056 227.818538,370.019778 C227.363828,370.474487 226.227036,372.520711 225.65864,372.748071 C225.090244,372.975432 222.816661,373.089107 221.90723,372.634397 C220.997798,372.179675 221.225159,371.952315 220.202042,371.270244 C219.178936,370.588173 218.269505,369.678742 217.019027,369.678742 C215.76856,369.678742 214.631768,369.451382 213.153941,369.451382 C211.676114,369.451382 211.221393,368.99666 209.629891,368.882986 C208.038378,368.7693 207.725761,368.740881 206.787911,368.655625 C205.850061,368.570358 206.105841,368.99666 205.87848,368.54195 C205.831479,368.447948 205.814841,368.222776 205.832835,367.891541 C200.715269,375.617991 197.776195,379.509256 197.871752,378.092903 C198.35646,370.14369 318.697015,108.723908 325.484162,93.9854491 L300,50.0363265 L224.170291,180.809675 C211.891363,238.211201 189.731644,341.069026 182.621073,369.255096 C181.793996,373.456192 181.030168,376.426077 180.869081,376.385808 C180.828115,376.375565 180.740093,376.353329 180.612496,376.320926 C180.59653,376.355805 180.581299,376.387059 180.566808,376.414658 C180.552066,376.386578 180.538674,376.34801 180.526613,376.299101 C179.10311,375.937095 173.963616,374.61862 172.343154,374.112224 C170.52428,373.543828 167.22759,374.68062 167.113916,372.293361 C167.104314,372.091739 167.055141,371.728102 166.973205,371.231243 L166.973205,371.231243 C167.145669,373.476239 167.086936,374.5663 166.73791,374.185547 C165.368315,372.691443 156.572024,335.9055 150.152056,308.459018 L140.315788,325.422313 C149.417899,344.719801 161.923326,371.426214 161.923326,372.489715 C157.686561,373.454573 151.680577,367.803646 145.524825,359.779134 C144.920872,359.854138 144.169544,359.897493 143.582344,360.584407 C142.076098,362.346432 140.513004,363.653748 140.058294,363.653748 C139.603573,363.653748 138.353106,364.335818 137.55735,364.335818 C136.761593,364.335818 135.965836,364.53476 134.71537,363.653748 C133.464903,362.772735 133.237543,361.94856 132.555472,360.811768 C131.873401,359.674976 130.850284,357.742428 130.281888,356.946682 C129.713492,356.150926 128.121991,354.445738 127.667269,353.649981 C127.212548,352.854236 126.985199,351.603758 127.212548,350.580652 C127.439909,349.557535 128.804061,348.420743 129.599818,347.852347 C130.395563,347.283963 132.100751,346.147171 132.782833,345.578775 C133.372608,345.087292 134.30237,344.680801 134.910665,344.138828 L134.910665,344.138828 Z M471.111608,435.868939 L515.001296,437.430092 L515.852834,439.487975 L516.207641,441.900666 C516.207652,441.900677 516.543578,443.811915 515.852834,443.639223 C515.1621,443.466554 471.111608,436.04163 471.111608,435.868939 Z M424.028653,287.275558 C424.229388,287.255234 424.477277,287.339593 424.951152,287.523923 C426.846664,288.261048 428.924621,290.701795 428.889515,292.562189 C428.854432,294.422573 428.108803,293.219406 424.809229,294.9394 C421.509656,296.659393 418.293873,300.020902 415.690676,299.445455 C414.959216,299.283765 411.76747,297.290076 413.171543,294.832957 C414.575627,292.375827 418.383569,291.442576 421.332116,289.617287 C423.543514,288.248332 423.426433,287.336437 424.028653,287.275558 Z M326.279186,117.854976 L330.21755,120.799879 L305.16814,162.98649 C305.16814,160.533402 326.279186,117.854976 326.279186,117.854976 Z M260.143057,427.327252 C261.392206,428.080704 263.474115,429.468643 263.474115,429.865198 C263.474115,430.261754 264.782747,430.955735 265.218961,432.165225 C265.655176,433.374716 265.298325,433.612647 265.218961,434.703172 C265.139598,435.793697 265.298211,436.606632 264.901712,436.527325 C264.505157,436.447962 263.474115,436.765256 262.760321,436.210076 C262.046517,435.654907 261.253406,435.258352 260.777544,434.703172 C260.301681,434.147992 260.936168,433.910061 259.349946,433.275574 C257.763723,432.641087 257.60511,432.799712 256.336126,432.085907 C255.067152,431.372114 255.225777,431.530739 254.511972,431.054865 C253.798179,430.579003 253.005068,430.737627 252.529206,429.547961 C252.053332,428.358294 251.736095,428.278987 252.449843,427.485876 C253.163647,426.692765 251.4188,426.454834 253.639509,426.216892 C255.860218,425.978961 255.146425,425.978961 256.098149,425.978961 C257.049885,425.978961 257.466264,426.514317 258.477483,426.85139 C259.488701,427.188462 258.893862,426.5738 260.143011,427.327252 L260.143057,427.327252 Z M262.046483,288.226101 C263.36824,287.077422 264.406776,285.739939 266.389417,284.260818 C268.372059,282.781696 269.284715,282.246703 269.977061,282.309638 C270.669418,282.372538 271.283081,283.017731 272.117055,283.757286 C272.951029,284.496841 272.746478,284.229345 273.312944,285.267869 C273.879409,286.306394 274.194115,286.636836 274.382941,287.911395 C274.571767,289.185955 274.320041,290.366107 274.068235,290.366107 C273.816475,290.366107 272.242946,291.310213 271.928241,291.436104 C271.613535,291.561984 270.102941,293.890804 269.662355,294.016684 C269.221769,294.142564 268.733974,294.284181 267.837066,295.086682 C266.940158,295.889182 266.326483,297.100796 266.074712,297.226687 C265.822952,297.352567 264.501183,298.73727 263.997663,298.800205 C263.494131,298.863105 262.86472,299.240802 262.235308,298.863105 C261.605897,298.485454 261.480017,298.548399 260.850606,297.667228 C260.221194,296.786045 260.5359,297.730128 259.591783,296.219579 C258.647665,294.708996 257.514722,295.275462 257.829428,293.261347 C258.144134,291.247233 258.018254,290.743702 258.773545,290.11429 C259.528837,289.484879 260.284128,289.327526 261.102366,288.855467 C261.920603,288.383409 260.724714,289.374735 262.046483,288.226056 L262.046483,288.226101 Z M253.737368,380.137207 C255.641486,380.904545 256.153056,381.188754 257.9435,382.183442 C259.733944,383.17814 259.961305,383.007605 260.899155,384.115979 C261.837004,385.224352 262.20647,385.679073 261.694911,386.616923 C261.183353,387.554773 259.762363,387.86739 258.852931,387.86739 C257.9435,387.86739 255.783591,387.640029 254.87416,387.526354 C253.964729,387.41268 250.554364,387.41268 250.099643,387.185319 C249.644922,386.957958 248.280781,386.389562 247.030303,386.048527 C245.779836,385.707492 244.52937,386.389562 244.302009,385.02541 C244.074648,383.661269 244.074648,382.865512 244.074648,382.183442 C244.074648,381.50136 243.051543,380.591928 244.52937,379.909858 C246.007197,379.227776 246.689267,378.545705 247.485024,378.65938 C248.280781,378.773066 248.763921,378.744647 250.327004,379.114101 C251.890087,379.483555 251.833238,379.369869 253.737368,380.137207 L253.737368,380.137207 Z M213.040267,372.975432 C214.19007,373.044463 215.939084,372.80492 217.473748,373.771188 C219.008413,374.737457 219.036831,375.646888 219.178936,376.840517 C219.321029,378.034147 218.837889,377.977309 218.042144,378.545705 C217.246387,379.114101 215.995921,379.796172 213.494976,379.682497 C210.994043,379.568822 211.079299,379.82459 209.857252,379.455136 C208.635204,379.085683 208.606774,379.341462 208.606774,378.20467 C208.606774,377.067878 207.356307,377.522599 208.606774,376.158447 C209.857252,374.794294 209.544624,374.794294 210.652997,373.998538 C211.76137,373.202781 211.348102,372.873894 213.040267,372.975432 L213.040267,372.975432 Z M215.200164,312.95288 C216.820085,314.317032 217.246387,317.613722 216.791666,317.727397 C216.336956,317.841071 215.882235,320.228341 214.745443,320.342016 C213.608662,320.45569 211.448753,320.796726 210.880357,320.796726 C210.311961,320.796726 208.464669,321.080935 207.469982,320.228341 C206.475283,319.375747 206.787911,318.523153 206.901586,317.386361 C207.015272,316.249569 207.356307,314.317021 207.469982,313.862311 C207.583668,313.40759 208.379413,312.498159 210.311961,312.270798 C212.24451,312.043437 213.580232,311.588727 215.200164,312.95288 L215.200164,312.95288 Z M213.040267,296.355723 C213.040267,295.787338 211.647695,293.599011 212.017149,291.240171 C212.386603,288.881331 212.812906,288.995006 214.518094,286.920364 C216.223281,284.845722 217.019027,284.618362 218.837889,282.941592 C220.656752,281.264823 220.202053,280.781695 221.793555,280.213299 C223.385057,279.644903 223.896615,279.957531 225.203919,280.66802 C226.511223,281.378509 226.369141,281.492195 227.022793,283.055278 C227.676445,284.618362 227.989062,285.584642 227.818538,286.920364 C227.648015,288.256087 226.681746,287.943481 226.340711,288.398191 C225.999676,288.852913 225.033396,290.33074 224.862884,292.376963 C224.692372,294.423186 225.459698,294.678965 225.65864,296.583084 C225.857582,298.487213 226.425978,298.79983 225.65864,299.993459 C224.891303,301.187088 223.498743,301.016565 222.5893,301.357612 C221.679869,301.698647 218.042144,302.380718 217.360062,302.039682 C216.677991,301.698647 214.745443,300.22082 214.518094,299.766099 C214.290733,299.311389 213.040267,296.469409 213.040267,296.355723 L213.040267,296.355723 Z M333.247685,489.994193 C334.252454,489.435981 329.228573,486.142539 325.767662,483.742235 C322.30675,481.341931 321.190327,481.537308 319.40405,480.392977 C317.617773,479.248646 317.980619,480.392977 318.622565,479.164911 C319.264511,477.936846 320.687942,477.099534 321.971823,475.480726 C323.255704,473.861919 321.190327,472.940861 323.7581,472.689669 C326.325873,472.438476 325.097808,472.940872 332.242904,474.475946 C339.388001,476.01103 343.211736,476.206396 352.338486,478.829984 C361.465236,481.453573 368.303313,484.858658 368.749882,484.9703 C369.196452,485.081908 381.477083,490.105846 381.477083,490.105846 L333.247685,489.994238 L333.247685,489.994193 Z M321.525254,435.847764 C323.978592,435.331277 326.716616,435.763972 330.679912,435.624479 C334.643208,435.484929 336.596943,435.289552 337.378439,435.289552 C338.159935,435.289552 345.863243,435.736121 346.756382,435.847764 C347.64952,435.959372 347.92862,437.299114 349.882355,438.638821 C351.83609,439.978529 352.394313,439.838968 354.571332,441.206583 C356.748351,442.574199 357.585663,442.657933 358.590444,444.109283 C359.595224,445.560633 358.897463,445.532725 358.590444,447.011983 C358.283425,448.491241 358.925371,449.049452 357.362378,450.026314 C355.799386,451.003187 354.236405,451.142737 352.338486,450.919453 C350.440567,450.696168 342.848901,449.468103 342.067405,449.468103 C341.285909,449.468103 332.801116,448.909891 331.907977,449.021533 C331.014839,449.133142 326.102589,448.798249 325.656019,448.798249 C325.20945,448.798249 323.060339,448.85411 321.636896,447.90511 C320.213454,446.956156 320.157639,446.453772 319.962262,445.002422 C319.766885,443.551072 320.8554,442.657933 320.8554,442.099722 C320.8554,441.54151 320.632116,439.420318 320.073904,438.750464 C319.515692,438.08061 321.327084,435.889489 321.525254,435.847764 L321.525254,435.847764 Z M297.633834,441.094941 C299.771365,442.034369 301.262215,442.574199 303.550876,443.774356 C305.839538,444.974514 306.202373,444.639587 306.788492,445.89556 C307.374611,447.151533 308.211923,447.933018 305.895353,448.798249 C303.578773,449.66348 298.750257,449.468103 297.522192,449.35646 C296.294138,449.244852 292.609941,448.742433 290.60038,447.34691 C288.590818,445.951387 289.707253,444.44421 289.483968,443.774356 C289.260684,443.104502 289.149041,440.313445 289.595576,440.313445 C290.042134,440.313445 292.051707,440.787922 294.061257,440.983299 C296.070808,441.178675 295.389373,440.108531 297.6338,441.094907 L297.633834,441.094941 Z M342.960543,348.543614 C346.198159,346.841072 348.654301,345.585099 353.119982,343.519722 C357.585674,341.454345 360.153436,340.282095 360.82329,340.282095 C361.493144,340.282095 363.446878,341.035683 365.623898,342.626583 C367.800917,344.217484 368.554506,345.026887 369.531379,346.645695 C370.508252,348.264503 369.670929,347.399284 369.531379,349.101826 C369.391829,350.804368 370.08959,351.613772 368.973167,353.455865 C367.856744,355.297957 365.512255,356.246922 365.065686,356.470207 C364.619117,356.693492 364.507486,359.121715 362.386282,359.931119 C360.265078,360.740523 358.702086,360.154403 356.580882,359.707834 C354.459678,359.261265 354.571332,358.033199 353.901478,358.144842 C353.231624,358.25645 349.65907,359.261265 348.765932,359.261265 C347.872805,359.261265 345.863243,360.154403 344.300251,360.266034 C342.737259,360.377642 341.174278,358.786776 339.499643,357.140061 C337.825008,355.493345 337.490081,354.125719 337.601724,353.679149 C337.713332,353.23258 338.829789,351.613772 340.169497,350.329891 C341.509205,349.046011 339.722916,350.246214 342.960543,348.543614 L342.960543,348.543614 Z M321.860181,199.389728 C324.009293,198.971067 326.325862,198.161663 326.660789,197.715094 C326.995716,197.268525 327.721396,196.207928 329.11692,195.258963 C330.512454,194.310009 330.093793,193.947163 332.242904,193.919255 C334.392016,193.891325 336.122466,193.919255 337.713366,195.147321 C339.304266,196.375386 338.299485,197.184801 338.606505,198.831517 C338.913524,200.478232 338.411139,200.199132 338.941431,201.734206 C339.471735,203.26929 340.923074,203.241382 340.727697,204.971833 C340.53232,206.702283 338.829789,208.097806 338.159935,208.656017 C337.490081,209.214229 336.262016,210.442294 334.922308,212.340214 C333.582601,214.238133 333.470958,215.689471 332.801116,216.247683 C332.131262,216.805895 329.563489,219.038741 328.893635,219.262025 C328.223781,219.48531 325.544377,221.941441 324.651239,222.499641 C323.7581,223.057853 322.557942,224.67666 320.632116,226.072195 C318.706289,227.467718 317.617785,228.081756 316.947931,228.081756 C316.278077,228.081756 313.710304,228.528326 312.593881,228.193365 C311.477469,227.858438 310.807615,227.076942 309.691192,227.076942 C308.574769,227.076942 306.788492,226.630372 306.006996,226.183803 C305.2255,225.737234 304.332361,223.839315 303.774161,223.392745 C303.215949,222.946176 302.76938,219.931845 302.434453,219.373634 C302.099526,218.815422 301.987884,217.029145 301.987884,216.136007 C301.987884,215.242868 302.434453,213.456603 302.992665,212.563464 C303.550876,211.670326 303.885803,211.558683 304.444003,209.884049 C305.002215,208.209414 306.006996,206.423149 306.118638,205.753295 C306.230246,205.083441 308.1282,202.962237 308.686411,202.515668 C309.244623,202.069098 310.695973,200.729391 311.142542,200.171191 C311.589111,199.612979 313.096277,199.473429 314.826727,199.278052 C316.557177,199.082675 317.282858,199.38966 318.064354,199.38966 C318.84585,199.38966 319.711069,199.808322 321.860181,199.38966 L321.860181,199.389728 Z M239.468282,200.729425 C241.058137,198.960076 242.398901,198.412855 244.268901,195.928817 C246.138901,193.444778 246.390094,191.574778 246.948305,190.793282 C247.506517,190.011786 249.125325,187.304474 250.185932,185.211178 C251.24654,183.117893 250.046382,183.815655 251.190713,182.42012 C252.335044,181.024597 254.205044,179.629063 254.763256,179.629063 C255.321467,179.629063 257.219386,180.466386 259.005663,180.96877 C260.79194,181.471166 260.149994,181.666532 261.908352,181.638624 C263.666721,181.610694 264.169106,181.303697 266.039117,180.857128 C267.909118,180.410559 267.462548,179.405778 269.388375,179.852347 C271.314202,180.298916 272.65391,181.052505 273.742425,182.643405 C274.830941,184.234305 274.216902,184.29012 273.742425,186.215947 C273.267948,188.141774 272.179433,189.788501 271.844506,190.346713 C271.509579,190.904924 271.397937,192.970301 270.504798,194.589109 C269.61166,196.207917 269.723302,195.231055 268.271952,196.821955 C266.820602,198.412855 265.145979,200.729425 264.69941,200.952709 C264.25284,201.175994 262.354921,202.766894 261.126856,204.525263 C259.89879,206.283621 260.93149,206.227794 259.787159,207.986164 C258.642829,209.744521 258.391625,209.688717 256.549532,211.558717 C254.70744,213.428718 254.093413,213.54036 252.418778,215.466187 C250.744144,217.392014 251.553548,218.368887 249.851005,219.262025 C248.148463,220.155164 246.725021,219.262025 245.608609,219.038741 C244.492186,218.815456 241.924413,216.247683 241.589486,215.801114 C241.254559,215.354545 239.468282,212.786783 239.133355,212.340214 C238.798439,211.893644 237.123805,208.990944 236.90052,208.544375 C236.677236,208.097806 236.007382,204.636906 236.453951,204.078694 C236.90052,203.520483 239.327687,200.885903 239.468282,200.729425 L239.468282,200.729425 Z M211.301426,460.888067 C213.918327,461.778924 215.922768,461.611897 217.982877,463.783365 C220.042986,465.954832 219.152118,467.34679 219.541873,469.573937 C219.931616,471.801083 220.711125,471.856774 219.541873,472.691951 C218.37262,473.527128 216.869292,473.527117 214.864863,472.914656 C212.860433,472.302196 213.472893,471.522698 211.524143,470.242087 C209.575392,468.961476 209.241317,468.627401 207.06985,467.792224 C204.898382,466.957047 204.063205,468.014941 202.838274,466.901368 C201.613342,465.787794 202.281493,464.952617 202.170134,463.337931 C202.058753,461.723256 201.05655,461.222143 202.39284,460.442645 C203.72913,459.663147 205.288137,460.10857 207.515284,460.219928 C209.74243,460.331309 208.684525,459.997211 211.301426,460.888067 L211.301426,460.888067 Z M194.152404,413.44985 C195.711411,410.77727 195.321657,409.162584 196.379551,406.991116 C197.437445,404.819649 195.822759,405.320751 198.38398,404.76397 C200.945202,404.207189 202.337172,404.76397 206.624427,404.76397 C210.911683,404.76397 212.637727,404.429894 215.533013,404.76397 C218.428299,405.098045 217.481764,404.986687 218.205582,406.10026 C218.929401,407.213833 218.873722,407.770614 218.428299,409.218263 C217.982866,410.665912 217.593122,411.055666 216.42387,411.890843 C215.254617,412.72602 214.642146,411.501089 213.751289,412.558983 C212.860433,413.616877 212.470678,415.008846 212.860433,416.12242 C213.250188,417.235993 214.141044,415.788344 215.310297,417.013276 C216.479549,418.238208 217.537443,419.296113 217.537443,421.022146 C217.537443,422.74818 216.869304,422.692501 215.310297,423.917432 C213.751289,425.142364 214.029686,425.142364 211.301426,425.921862 C208.573178,426.70136 207.626642,426.70136 204.397281,427.035435 C201.167919,427.369511 199.497554,427.258152 198.38398,427.258152 C197.270407,427.258152 194.876223,427.480858 192.593397,427.035435 C190.310571,426.590013 190.310571,426.924054 189.252677,425.47644 C188.194783,424.028802 188.139104,423.193614 188.361821,421.244863 C188.584538,419.296113 188.695885,419.630177 190.143534,417.681427 C191.591182,415.732676 192.593397,416.122431 194.152404,413.44985 L194.152404,413.44985 Z M174.108085,389.842095 C176.724987,389.340993 178.116956,388.338767 181.012242,388.728522 C183.907528,389.118276 183.295056,390.343197 185.689241,391.401091 C188.083425,392.458985 188.361821,391.735166 190.588968,392.960098 C192.816114,394.185029 194.709185,395.020207 194.597827,396.300818 C194.486446,397.581429 192.147963,396.857598 190.143534,398.08253 C188.139104,399.307462 188.306142,400.086971 186.580108,401.200544 C184.854075,402.314118 184.854075,401.645967 183.239389,402.536823 C181.624702,403.42768 181.513344,404.708291 180.121374,404.76397 C178.729405,404.819604 179.341876,403.984472 177.671522,402.75954 C176.001157,401.534609 174.553508,399.864254 173.439935,399.864254 C172.326361,399.864254 169.542434,400.254009 167.203929,399.864254 C164.865424,399.4745 164.642707,399.864254 164.085926,398.305247 C163.529134,396.74624 163.362107,395.521308 164.976782,393.628237 C166.591469,391.735166 168.261823,391.679487 170.544649,390.732951 C172.827474,389.786416 171.491184,390.343197 174.108085,389.842095 L174.108085,389.842095 Z M145.600603,371.802206 C146.992572,372.581703 147.772081,374.307737 147.382327,375.588348 C146.992572,376.868959 145.433576,377.091676 144.041607,376.924638 C142.649638,376.7576 142.371253,376.033782 141.81446,374.920208 C141.257668,373.806635 140.867925,373.249843 141.81446,372.470345 C142.760996,371.690847 144.208633,371.022708 145.600603,371.802206 Z M135.578443,376.033782 C137.749911,377.203034 138.863484,379.764256 137.80559,381.601648 C136.747696,383.43904 133.685372,383.43904 131.346867,383.383361 C129.008362,383.327727 129.008362,382.993617 128.451581,381.378931 C127.894789,379.764256 127.338008,378.260928 129.119721,376.924638 C130.901433,375.588348 133.406976,374.864529 135.578443,376.033782 Z M150.968801,381.299545 C132.163344,386.178108 118.255549,403.268033 118.255549,423.592599 C118.255549,447.713503 137.846929,467.304883 161.967833,467.304883 C176.666503,467.304883 189.66841,460.02781 197.590506,448.890374 C196.501639,447.973063 195.339426,446.946733 195.035892,445.732587 C194.672058,444.277229 195.122068,442.696513 193.935989,441.510378 C193.01224,440.586629 192.441222,439.415867 191.026567,439.062206 C189.701972,438.73106 187.591054,438.557165 186.130224,438.849322 C185.070854,439.061196 181.908015,440.318611 181.908015,438.849322 C181.908015,437.657929 182.060156,436.544867 181.446765,435.727016 C180.668856,434.689797 178.000239,436.097787 177.685805,434.839997 C177.325173,433.397469 179.24798,433.242341 180.559746,431.930575 C180.782463,431.707858 179.263183,430.394844 181.23388,431.256441 C182.750254,431.919415 180.874838,427.651551 181.908015,426.360098 C183.020203,424.969843 187.265608,423.910529 187.265608,422.137888 C187.265608,420.85118 186.908348,420.272782 187.265608,417.915679 C187.562079,415.959696 187.023078,416.36194 184.356186,417.02866 C184.059227,417.102914 183.556433,416.046144 183.256283,416.106161 C182.098532,416.337711 179.281803,417.126054 177.89869,416.780295 C176.351547,416.393504 176.251418,415.065843 174.989268,414.119239 C173.828077,413.248354 173.479321,413.232231 171.866962,413.23222 C169.986698,413.23222 169.347954,411.564727 168.106003,410.322799 C166.638576,408.855383 165.530782,408.335865 163.422544,408.335877 C160.93091,408.335877 158.783126,408.761646 156.290913,408.761646 C154.886205,408.761646 151.950635,409.353192 150.93332,408.335877 C149.716529,407.119086 149.885099,405.882652 150.507551,404.326552 C151.071326,402.917097 152.469313,402.1771 152.955723,401.204246 C153.873624,399.368421 156.824214,399.523333 158.064951,397.869055 C158.945736,396.694671 158.951981,395.294754 158.951969,393.398481 C158.951969,391.498404 157.88682,389.340857 156.752163,387.828003 C155.900068,386.691881 154.170947,386.175213 153.842741,385.628197 C153.284462,384.697749 152.56364,382.787954 151.820339,382.044641 C151.571667,381.795969 151.283915,381.550703 150.968801,381.299545 Z" id="sign_border" sketch:type="MSShapeGroup"></path>
        </g>
    </g>
</svg>