<?xml version="1.0" encoding="UTF-8" standalone="no"?>
<svg width="600px" height="524px" viewBox="0 0 600 524" version="1.1" xmlns="http://www.w3.org/2000/svg" xmlns:xlink="http://www.w3.org/1999/xlink" xmlns:sketch="http://www.bohemiancoding.com/sketch/ns">
    <!-- Generator: Sketch 3.0 (7574) - http://www.bohemiancoding.com/sketch -->
    <title>Slice 1</title>
    <description>Created with Sketch.</description>
    <defs></defs>
    <g id="Page-1" stroke="none" stroke-width="1" fill="none" fill-rule="evenodd" sketch:type="MSPage">
        <g id="ISO_7010_W018_Original" sketch:type="MSLayerGroup" fill="#000000">
            <path d="M597.6,499.6 L313.8,8 C310.9,3 305.6,0 299.9,0 C294.2,0 288.9,3.1 286,8 L2.2,499.6 C-0.7,504.6 -0.7,510.7 2.2,515.6 C5.1,520.6 10.4,523.6 16.1,523.6 L583.7,523.6 C589.4,523.6 594.7,520.5 597.6,515.6 C600.5,510.6 600.5,504.5 597.6,499.6 Z M44,491.52526 L300.005,50.0363265 L556.005,491.52526 L44,491.52526 Z M345.02,240.62 L340.2084,253.299 C374.8974,261.3753 400.7754,292.498 400.7754,329.634 C400.77541,364.74 377.6664,394.48 345.8324,404.441 C359.7904,393.892 369.3914,377.924 371.5484,359.674 C371.66427,358.6936 371.76874,357.7086 371.84099,356.7155 C371.84699,356.6395 371.86829,356.56397 371.87349,356.48793 C371.88889,356.28195 371.89259,356.07621 371.90599,355.87023 C371.94559,355.20929 371.98359,354.55313 372.00349,353.88703 C372.02699,353.21518 372.03309,352.54243 372.03599,351.87133 C372.04099,350.74543 371.99099,349.61213 371.93849,348.49023 C371.88819,347.41683 371.81329,346.33943 371.71092,345.27163 C371.70692,345.22863 371.71492,345.18453 371.71092,345.14159 C371.70792,345.10929 371.71392,345.07639 371.71092,345.04409 C371.64612,344.39138 371.56749,343.74339 371.48335,343.09349 C370.45045,329.77849 366.50915,316.47749 359.38935,304.14549 C333.91635,260.02549 277.46635,244.86149 233.34935,270.33449 C196.56835,291.57049 179.90135,334.37749 190.14235,373.58449 L203.53635,371.40629 C193.18635,337.32629 207.20265,299.36729 239.36335,280.79929 C269.61235,263.33529 306.69035,268.35129 331.23835,290.64999 C320.90635,286.39099 309.95935,284.93849 299.34535,286.06599 C299.10739,286.08969 298.86801,286.10469 298.63012,286.13099 C298.29439,286.17039 297.95725,286.21659 297.62232,286.26103 C296.56052,286.39508 295.49492,286.56174 294.43632,286.74869 C292.33172,287.12033 290.24272,287.59543 288.16172,288.17919 L288.06422,287.88659 C286.11712,288.56128 284.18262,289.32539 282.27732,290.12979 C282.15856,290.17559 282.03833,290.21329 281.91971,290.25984 C278.88911,291.45004 275.88421,292.87414 272.97931,294.55124 C271.86651,295.19369 270.82141,295.90304 269.76071,296.59944 C257.17271,304.36724 246.26571,315.24744 238.35571,328.94744 C212.88271,373.06744 228.01371,429.54744 272.13471,455.02744 C308.91571,476.26344 354.28871,469.26244 383.12471,440.78744 L374.54191,430.28644 C350.20291,456.29044 310.30791,463.15844 278.14791,444.59144 C247.99491,427.18244 233.78291,392.70744 240.66291,360.38944 C241.77371,368.65864 244.49231,376.84244 248.92061,384.51244 C251.99031,389.82934 255.69461,394.55644 259.87661,398.65444 C260.03927,398.81536 260.19997,398.98285 260.36427,399.1421 L260.1367,399.40218 C262.1605,401.15458 264.2714,402.83528 266.4438,404.40878 C266.5388,404.47758 266.64116,404.53541 266.73639,404.60384 C266.74869,404.61284 266.75659,404.62714 266.76889,404.63634 C268.80459,406.15914 270.96569,407.54694 273.17349,408.83024 C273.77086,409.17744 274.35249,409.54181 274.96159,409.87054 C288.41659,417.52604 303.96559,421.89954 320.54159,421.89954 C371.48759,421.89954 412.83959,380.57954 412.83959,329.63454 C412.83959,287.16354 384.10059,251.35654 345.02259,240.62054 L345.02,240.62 Z M305.942,301.577 C333.719,301.57699 356.268,324.094 356.268,351.871 C356.268,360.5513 354.0641,368.733 350.1885,375.864 C349.8315,376.52083 349.46811,377.1433 349.0831,377.7821 C349.0501,377.8368 349.0187,377.89009 348.9856,377.94465 C348.9649,377.97785 348.9413,378.00905 348.9206,378.04215 C348.63249,378.51367 348.31334,378.97897 348.01031,379.44015 C347.89073,379.62212 347.77455,379.81251 347.65269,379.99283 C347.46363,380.26617 347.26117,380.53704 347.0675,380.80559 C332.1545,401.48459 303.6875,407.93559 281.1355,394.91559 C259.3355,382.32959 250.5115,355.83859 259.3855,333.08059 C259.99754,331.51109 260.7168,329.95999 261.4987,328.43159 C261.79525,327.85195 262.12022,327.28109 262.44151,326.70849 C262.5438,326.5262 262.62929,326.33735 262.73411,326.15581 C262.86909,325.922 263.01858,325.70391 263.15675,325.47309 C263.51094,324.8942 263.85119,324.31549 264.22955,323.74999 C264.29855,323.64792 264.38735,323.55895 264.45712,323.4574 C264.48422,323.4175 264.49492,323.3671 264.52212,323.32736 C264.96329,322.68912 265.41811,322.05816 265.88752,321.44176 C266.28692,320.91268 266.70123,320.39576 267.12292,319.88126 C267.15762,319.83926 267.18562,319.79316 267.22042,319.75122 C267.47903,319.43775 267.76634,319.14872 268.03319,318.84092 C268.31255,318.52109 268.5587,318.17823 268.84595,317.8656 C269.33494,317.32981 269.85935,316.8217 270.37395,316.3051 C271.69275,314.9874 273.07745,313.7319 274.53535,312.5664 C274.94116,312.2413 275.35275,311.90509 275.77075,311.59109 C284.17815,305.28979 294.63075,301.57809 305.94075,301.57809 L305.942,301.577 Z" id="Shape" sketch:type="MSShapeGroup"></path>
        </g>
    </g>
</svg>