<?xml version="1.0" encoding="UTF-8" standalone="no"?>
<svg width="600px" height="524px" viewBox="0 0 600 524" version="1.1" xmlns="http://www.w3.org/2000/svg" xmlns:xlink="http://www.w3.org/1999/xlink" xmlns:sketch="http://www.bohemiancoding.com/sketch/ns">
    <!-- Generator: Sketch 3.0 (7574) - http://www.bohemiancoding.com/sketch -->
    <title>ISO_7010_W001</title>
    <description>Created with Sketch.</description>
    <defs></defs>
    <g id="Page-1" stroke="none" stroke-width="1" fill="none" fill-rule="evenodd" sketch:type="MSPage">
        <g id="ISO_7010_W001_Original" sketch:type="MSLayerGroup" fill="#000000">
            <path d="M597.6,499.6 L313.8,8 C310.9,3 305.6,0 299.9,0 C294.2,0 288.9,3.1 286,8 L2.2,499.6 C-0.7,504.6 -0.7,510.7 2.2,515.6 C5.1,520.6 10.4,523.6 16.1,523.6 L583.7,523.6 C589.4,523.6 594.7,520.5 597.6,515.6 C600.5,510.6 600.5,504.5 597.6,499.6 Z M44,491.52526 L300,50.0363265 L556,491.52526 L44,491.52526 Z M337.892114,434.631185 C337.895214,448.170799 330.673697,460.683245 318.948565,467.453947 C307.223434,474.224649 292.776581,474.224649 281.051449,467.453947 C269.326317,460.683245 262.104801,448.170799 262.107901,434.631185 C262.104801,421.091571 269.326317,408.579126 281.051449,401.808423 C292.776581,395.037721 307.223434,395.037721 318.948565,401.808423 C330.673697,408.579126 337.895214,421.091571 337.892114,434.631185 L337.892114,434.631185 Z M300,168.60074 C279.35255,168.60074 262.73284,185.57366 262.73284,206.65732 L273.75181,339.9705 C275.8563,357.21507 277.65365,366.9854 284.77079,371.58016 C289.41791,373.69736 294.56547,374.9023 300,374.9023 C305.40832,374.9023 310.53383,373.711 315.16343,371.61305 C322.3204,367.03127 324.13899,357.25364 326.24819,339.9705 L337.26717,206.65732 C337.26717,185.57366 320.64744,168.60074 300,168.60074 L300,168.60074 Z" id="sign_border" sketch:type="MSShapeGroup"></path>
        </g>
    </g>
</svg>