<?xml version="1.0" encoding="UTF-8" standalone="no"?>
<svg width="608px" height="532px" viewBox="0 0 608 532" version="1.1" xmlns="http://www.w3.org/2000/svg" xmlns:xlink="http://www.w3.org/1999/xlink" xmlns:sketch="http://www.bohemiancoding.com/sketch/ns">
    <!-- Generator: Sketch 3.0 (7574) - http://www.bohemiancoding.com/sketch -->
    <title>ISO_7010_W016</title>
    <description>Created with Sketch.</description>
    <defs></defs>
    <g id="Page-1" stroke="none" stroke-width="1" fill="none" fill-rule="evenodd" sketch:type="MSPage">
        <g id="ISO_7010_W016_Original" sketch:type="MSLayerGroup" transform="translate(4.000000, 4.000000)">
            <path d="M597.6,499.6 L313.8,8 C310.9,3 305.6,0 299.9,0 C294.2,0 288.9,3.1 286,8 L2.2,499.6 C-0.7,504.6 -0.7,510.7 2.2,515.6 C5.1,520.6 10.4,523.6 16.1,523.6 L583.7,523.6 C589.4,523.6 594.7,520.5 597.6,515.6 C600.5,510.6 600.5,504.5 597.6,499.6 Z M300.005,50.0363265 L556.005,491.52526 L44,491.52526 L300.005,50.0363265 Z M258.99006,373.18 C287.82306,387.463 313.28606,384.849 340.97206,372.23595 C355.92606,418.44395 252.74206,428.17195 258.99006,373.18 Z M349.667905,317.136075 C348.849202,307.563244 338.271737,302.641873 326.785037,303.463601 C316.414574,304.199967 308.690449,308.927992 311.21243,318.195724 C313.817382,327.768555 322.414599,340.198441 332.809934,340.373383 C343.205268,340.547885 350.487673,326.708906 349.6689,317.136075 L349.667905,317.136075 Z M250.788786,317.611604 C251.593903,308.134619 258.923312,302.640026 270.219879,303.454516 C280.418243,304.18351 290.841629,307.620886 288.361501,316.796124 C285.799778,326.273109 278.082912,339.200049 267.860089,339.37324 C257.637266,339.545995 249.984579,327.088589 250.789765,317.611604 L250.788786,317.611604 Z M285.558862,350.544598 C282.223215,367.273719 289.342248,372.933581 300.318074,364.514637 C315.895214,374.886393 315.061499,361.957621 314.491219,351.046522 C314.167343,323.734098 288.901613,320.787418 285.558862,350.545087 L285.558862,350.544598 Z" id="Shape" fill="#000000" sketch:type="MSShapeGroup"></path>
            <path d="M348.463341,408.411389 C390.548282,429.880773 389.695247,426.399337 390.54828,426.912448 C398.749285,431.845028 407.717921,426.660483 411.132034,429.880775 C414.546048,433.101048 407.272283,438.091554 406.344449,443.375996 C404.954629,451.291134 407.789651,457.416397 402.144079,457.411386 C397.273469,457.407377 395.680745,451.719962 382.927556,444.875242 C367.558102,436.626181 339.037476,423.060007 339.037476,423.060007 L348.463341,408.411389 L348.463341,408.411389 Z" id="Path" stroke="#000000" stroke-width="8" sketch:type="MSShapeGroup"></path>
            <path d="M356.248709,370.035638 C405.830627,348.610824 389.41634,356.167533 405.830626,348.610828 C409.905257,346.734785 416.900213,337.991297 421.794505,341.05722 C425.418328,343.327127 424.869312,347.91957 425.180284,353.687012 C425.491255,359.454554 429.200244,361.712877 429.031918,366.193972 C428.726795,374.203259 421.944173,364.505972 411.862272,366.944999 C393.547047,371.376161 353.037476,389.411389 353.037476,389.411389 L356.248709,370.035638 L356.248709,370.035638 Z" id="Path" stroke="#000000" stroke-width="8" sketch:type="MSShapeGroup"></path>
            <path d="M253.097951,408.411389 C253.097953,408.411395 210.577579,427.915554 209.702416,428.399901 C201.295149,433.057091 192.738625,425.515202 189.205001,428.611482 C185.671777,431.707821 191.065124,439.113954 193.40219,443.904712 C195.838662,448.90005 192.382964,454.2948 197.33743,456.142678 C201.936536,457.858281 202.888726,451.045399 215.939656,444.621784 C231.666629,436.880886 259.037476,423.83962 259.037476,423.83962 L253.097951,408.411389 L253.097951,408.411389 Z" id="Path" stroke="#000000" stroke-width="8" sketch:type="MSShapeGroup"></path>
            <path d="M241.811446,368.575875 C241.811446,368.016679 208.150307,357.068783 192.212,348.704673 C188.25539,346.628345 182.66693,339.183994 177.681009,342.066021 C173.989739,344.199834 175.82363,347.135506 175.262893,352.95078 C174.702086,358.766155 171.06702,363.384954 171.037659,367.921112 C170.989388,376.029419 180.472353,365.105461 190.357905,368.016685 C208.318607,373.305603 246.037476,389.411389 246.037476,389.411389 L241.811446,368.575875 L241.811446,368.575875 Z" id="Path" stroke="#000000" stroke-width="8" sketch:type="MSShapeGroup"></path>
            <path d="M362.928104,318.824 C365.976464,310.923641 374.015972,302.97867 375.671118,287.222963 C377.325862,271.467256 367.658426,244.832323 351.633342,231.423741 C340.555517,222.15484 320.671674,212.868811 298.854485,212.824" id="Shape" stroke="#000000" stroke-width="8" sketch:type="MSShapeGroup"></path>
            <path d="M235.780866,318.824 C232.732606,310.923641 224.692997,302.97867 223.037852,287.222963 C221.383108,271.467256 231.050544,244.832323 247.075628,231.423741 C258.153453,222.15484 278.037296,212.868811 299.854485,212.824" id="Shape" stroke="#000000" stroke-width="8" sketch:type="MSShapeGroup"></path>
            <path d="M338.857639,378.416241 C338.751651,381.730474 341.309286,363.855758 347.625991,360.388929 C357.543035,354.946275 364.891288,345.042196 362.346845,348.563488" id="Shape" stroke="#000000" stroke-width="8" sketch:type="MSShapeGroup"></path>
            <path d="M299.854485,437.809497 C309.071994,437.976816 323.195066,436.913552 333.58259,422.9522 C339.553475,414.927581 351.172117,396.770062 351.0726,376.691527 C350.980946,358.30877 355.699417,361.977128 359.958819,354.174748 C367.847188,339.725158 367.107581,336.055802 361.925861,311.960161 C359.37008,300.075722 360.405051,302.545143 362.544425,289.479356 C364.944164,274.822915 364.717963,268.804251 359.784039,260.824" id="Shape" stroke="#000000" stroke-width="8" sketch:type="MSShapeGroup"></path>
            <path d="M263.853103,377.413327 C263.960728,380.693541 257.763338,363.350227 251.348937,359.918983 C241.278833,354.532195 232.737073,344.032942 235.320787,347.51809" id="Shape" stroke="#000000" stroke-width="8" sketch:type="MSShapeGroup"></path>
            <path d="M299.854485,437.824 C290.761917,436.490296 276.888918,432.223384 265.795544,422.944799 C257.174789,415.734671 249.819236,390.68051 248.133975,376.615922 C245.943438,358.33516 243.6099,362.508302 239.160592,354.777482 C233.192339,344.406675 231.405681,330.258023 238.288829,313.316269 C242.874908,302.028772 238.226222,301.228169 237.054579,288.018225 C235.641252,272.083229 236.122169,267.061448 239.842042,259.824" id="Shape" stroke="#000000" stroke-width="8" sketch:type="MSShapeGroup"></path>
        </g>
    </g>
</svg>