<?xml version="1.0" encoding="UTF-8" standalone="no"?>
<svg width="600px" height="524px" viewBox="0 0 600 524" version="1.1" xmlns="http://www.w3.org/2000/svg" xmlns:xlink="http://www.w3.org/1999/xlink" xmlns:sketch="http://www.bohemiancoding.com/sketch/ns">
    <!-- Generator: Sketch 3.0 (7574) - http://www.bohemiancoding.com/sketch -->
    <title>ISO_7010_W004</title>
    <description>Created with Sketch.</description>
    <defs></defs>
    <g id="Page-1" stroke="none" stroke-width="1" fill="none" fill-rule="evenodd" sketch:type="MSPage">
        <g id="ISO_7010_W004_Original" sketch:type="MSLayerGroup" fill="#000000">
            <path d="M285.500982,324.162495 L244.846385,253.746667 L237.110886,258.212759 L276.888882,327.110269 L248.391968,298.613351 L242.075958,304.929359 L270.495147,333.348554 L270.495147,333.348554 L201.63212,293.590466 L197.166028,301.325965 L266.063538,341.103961 L227.136028,330.673363 L224.824207,339.301192 L264.816864,350.017196 L264.816864,350.017196 L184.768284,350.017174 L184.768282,358.949362 L261.441213,358.949383 L224.971184,368.721494 L227.283004,377.349328 L265.199816,367.189552 L197.187735,406.456346 L201.653831,414.191852 L270.551401,374.413821 L242.054458,402.910759 L248.370472,409.226775 L282.258755,375.338498 L282.258755,375.338498 L237.277286,453.248688 L245.012795,457.714787 L284.790846,388.817183 L274.360233,427.744746 L282.988074,430.05657 L293.76837,389.823971 L293.76837,466.835226 L302.700558,466.835226 L302.700558,388.352208 L312.997823,426.78214 L321.625656,424.47032 L311.688821,387.385531 L350.053731,453.835506 L357.78923,449.369413 L318.547735,381.40115 L346.680384,409.533804 L352.996394,403.217795 L324.785988,375.007384 L392.788775,414.268811 L397.254867,406.533312 L329.286603,367.291817 L367.71652,377.589085 L370.02834,368.961256 L332.663606,358.949402 L479.125119,358.949442 L556,491.52526 L44,491.52526 L300,50.0363265 L473.945735,350.017253 L473.945735,350.017253 L329.28788,350.017213 L370.175403,339.061439 L367.863582,330.433605 L328.422885,341.001705 L328.422885,341.001705 L397.276747,301.248908 L392.810651,293.513403 L324.842329,332.754932 L352.975008,304.622258 L346.658993,298.306242 L323.917634,321.047598 L357.955795,262.091773 L350.220286,257.625674 L310.978737,325.594031 L321.276019,287.164062 L312.648178,284.852238 L302.700558,321.97725 L302.700558,240.949456 L293.76837,240.949456 L293.76837,320.505476 L283.337775,281.57795 L274.709942,283.88977 L285.500982,324.162495 Z M597.6,499.6 L313.8,8 C310.9,3 305.6,0 299.9,0 C294.2,0 288.9,3.1 286,8 L2.2,499.6 C-0.7,504.6 -0.7,510.7 2.2,515.6 C5.1,520.6 10.4,523.6 16.1,523.6 L583.7,523.6 C589.4,523.6 594.7,520.5 597.6,515.6 C600.5,510.6 600.5,504.5 597.6,499.6 Z" id="sign_border" sketch:type="MSShapeGroup"></path>
        </g>
    </g>
</svg>