<?xml version="1.0" encoding="UTF-8" standalone="no"?>
<svg width="600px" height="524px" viewBox="0 0 600 524" version="1.1" xmlns="http://www.w3.org/2000/svg" xmlns:xlink="http://www.w3.org/1999/xlink" xmlns:sketch="http://www.bohemiancoding.com/sketch/ns">
    <!-- Generator: Sketch 3.0 (7574) - http://www.bohemiancoding.com/sketch -->
    <title>ISO_7010_W012</title>
    <description>Created with Sketch.</description>
    <defs></defs>
    <g id="Page-1" stroke="none" stroke-width="1" fill="none" fill-rule="evenodd" sketch:type="MSPage">
        <g id="ISO_7010_W012_Original" sketch:type="MSLayerGroup" fill="#000000">
            <path d="M597.6,499.6 L313.8,8 C310.9,3 305.6,0 299.9,0 C294.2,0 288.9,3.1 286,8 L2.2,499.6 C-0.7,504.6 -0.7,510.7 2.2,515.6 C5.1,520.6 10.4,523.6 16.1,523.6 L583.7,523.6 C589.4,523.6 594.7,520.5 597.6,515.6 C600.5,510.6 600.5,504.5 597.6,499.6 Z M556,491.52526 L44,491.52526 L300,50.0363265 L556,491.52526 Z M290.48435,168.61048 L239.97343,340.5512 L313.85228,302.45741 L298.04484,418.18019 L282.9415,396.1205 L294.58177,468.68483 L336.93942,407.50391 L315.48712,420.84247 L360.02657,256.8603 L280.37592,300.72587 L338.67096,168.55199 L290.48435,168.61049 L290.48435,168.61048 Z" id="sign_border" sketch:type="MSShapeGroup"></path>
        </g>
    </g>
</svg>