<?xml version="1.0" encoding="UTF-8" standalone="no"?>
<svg width="600px" height="524px" viewBox="0 0 600 524" version="1.1" xmlns="http://www.w3.org/2000/svg" xmlns:xlink="http://www.w3.org/1999/xlink" xmlns:sketch="http://www.bohemiancoding.com/sketch/ns">
    <!-- Generator: Sketch 3.0 (7574) - http://www.bohemiancoding.com/sketch -->
    <title>ISO_7010_W026</title>
    <description>Created with Sketch.</description>
    <defs></defs>
    <g id="Page-1" stroke="none" stroke-width="1" fill="none" fill-rule="evenodd" sketch:type="MSPage">
        <g id="ISO_7010_W026_Original" sketch:type="MSLayerGroup" fill="#000000">
            <path d="M297.162551,190.299708 C294.175203,188.931488 291.900479,187.648897 289.661945,186.082099 C283.81015,181.986301 280.36083,176.832912 279.734404,170.177119 L288.553698,169.347069 C289.101915,175.171886 292.739856,178.670763 302.752509,183.040815 C304.258018,180.474354 305.398221,177.779694 306.196767,174.965669 C308.932875,165.323804 307.560123,154.770718 303.540282,144.46023 C302.644941,142.163768 301.686739,140.072025 300.733095,138.233035 C300.403769,137.597969 300.100588,137.04301 299.832063,136.574026 C299.67971,136.307939 299.578837,136.1391 299.537979,136.073314 L307.063034,131.399721 C307.394118,131.932806 307.928154,132.865511 308.596899,134.155105 C309.689989,136.263 310.778523,138.639257 311.793467,141.242488 C316.452034,153.191246 318.065028,165.591194 314.718559,177.38393 C313.8322,180.507402 312.612645,183.503796 311.050337,186.36202 C311.678643,186.600347 312.414753,186.879707 312.727134,186.998734 C322.087732,190.565399 327.19435,192.975737 331.900431,196.591434 C338.361475,201.555473 342.075332,207.903391 342.602382,216.081776 C343.600501,231.569911 334.813338,241.89893 319.295147,247.086288 C307.84939,250.912328 293.051095,251.836996 278.315381,250.513393 C269.855408,249.753494 262.451232,249.583508 256.165213,249.939138 C257.595754,254.569038 259.782629,259.761921 262.795016,265.588066 C262.931442,265.563769 263.068042,265.538921 263.204812,265.51352 L264.822264,274.22287 C244.271457,278.039451 225.265746,270.706967 224.566177,258.569759 C224.186807,251.98786 229.492051,246.768376 238.66845,243.871989 C240.730213,243.221226 243.004528,242.674117 245.487673,242.233999 C244.716537,235.407407 245.637456,229.522824 248.168707,224.417197 C252.400205,215.88211 259.333978,211.099679 272.976172,204.996205 C273.852024,204.604351 276.84483,203.279288 276.911315,203.249739 C278.249363,202.655052 279.275974,202.191668 280.249988,201.74003 C287.354691,198.445671 292.94043,194.612889 297.162551,190.299708 Z M305.876731,193.872212 C306.203504,193.997203 306.53676,194.124157 306.876753,194.253211 C306.646105,194.165662 308.956562,195.041556 309.573073,195.276464 C318.152121,198.545336 322.69448,200.689342 326.503545,203.615858 C331.031678,207.094837 333.408379,211.157216 333.762451,216.651458 C334.471877,227.659854 328.512303,234.665136 316.48679,238.684975 C306.386172,242.061368 292.73294,242.914487 279.107865,241.690645 C269.661512,240.842146 261.363587,240.68975 254.266947,241.186056 C253.707274,236.071806 254.372375,231.84696 256.105145,228.351899 C259.125434,222.259865 264.747753,218.381983 276.593779,213.082108 C277.450988,212.698596 280.428653,211.380236 280.508992,211.34453 C281.886412,210.732345 282.952406,210.251184 283.976347,209.776396 C293.367903,205.421652 300.624634,200.069914 305.876731,193.872212 Z M253.30058,266.412739 C248.592905,266.369766 244.316129,265.610462 240.755888,264.236907 C236.072118,262.429888 233.514819,259.882629 233.409767,258.060029 C233.312271,256.368503 235.582357,254.135113 241.334761,252.319457 C243.089341,251.765651 245.058918,251.296676 247.238625,250.917548 C248.578185,255.675406 250.592176,260.827182 253.30058,266.412739 Z M597.6,499.6 L313.8,8 C310.9,3 305.6,0 299.9,0 C294.2,0 288.9,3.1 286,8 L2.2,499.6 C-0.7,504.6 -0.7,510.7 2.2,515.6 C5.1,520.6 10.4,523.6 16.1,523.6 L583.7,523.6 C589.4,523.6 594.7,520.5 597.6,515.6 C600.5,510.6 600.5,504.5 597.6,499.6 Z M44,491.52526 L300,50.0363265 L556,491.52526 L44,491.52526 Z M327.602995,289.853167 L327.602995,305.780778 L258.425873,305.780778 L258.425873,290.123127 L230.113871,290.123127 L230.113871,305.780778 L196.267698,305.780778 L196.267698,425.440326 L291.293442,425.440326 C294.112197,428.551145 297.672045,432.48209 299.594697,437.622249 C304.89276,451.786451 324.33845,456.756373 341.539654,456.215709 C388.974346,454.724745 371.781122,459.270139 396.071473,463.403381 C413.439793,466.369674 411.933224,476.265439 460.760518,471.772126 C473.224127,470.618081 480.559791,462.8775 479.657683,454.697187 C477.443573,434.440992 456.305787,444.899007 456.272442,423.55061 C456.247389,407.441079 450.620926,402.462173 438.893799,402.595004 C405.434533,402.973994 401.255138,405.809552 399.648437,379.209762 C399.638718,379.22218 399.62414,379.231035 399.614746,379.243453 L399.614746,305.780724 L398.939847,305.780724 C398.419721,294.748516 395.389815,294.408734 389.086271,294.408734 L360.200605,294.408734 C355.673384,294.651255 354.76767,289.853167 354.76767,289.853167 L327.602995,289.853167 Z M207.504762,318.16517 L377.343033,318.16517 L377.343033,413.089679 L207.504762,413.089679 L207.504762,318.16517 Z M228.662838,326.16272 L228.662838,339.323246 L215.536058,339.323246 L215.536058,350.189116 L228.662838,350.189116 L228.662838,363.315896 L239.528708,363.315896 L239.528708,350.189116 L252.689234,350.189116 L252.689234,339.323246 L239.528708,339.323246 L239.528708,326.16272 L228.662838,326.16272 Z M332.462266,339.76193 L332.462266,350.626788 L369.631516,350.626788 L369.631516,339.76193 L332.462266,339.76193 Z" id="sign_border" sketch:type="MSShapeGroup"></path>
        </g>
    </g>
</svg>