<?xml version="1.0" encoding="UTF-8" standalone="no"?>
<svg width="174px" height="151px" viewBox="0 0 174 151" version="1.1" xmlns="http://www.w3.org/2000/svg" xmlns:xlink="http://www.w3.org/1999/xlink" xmlns:sketch="http://www.bohemiancoding.com/sketch/ns">
    <!-- Generator: Sketch 3.0 (7574) - http://www.bohemiancoding.com/sketch -->
    <title>Slice 1</title>
    <description>Created with Sketch.</description>
    <defs></defs>
    <g id="Page-1" stroke="none" stroke-width="1" fill="none" fill-rule="evenodd" sketch:type="MSPage">
        <g id="ISO_7010_W031_Original" sketch:type="MSLayerGroup" fill="#000000">
            <path d="M84.33,1.34 C86.3,-0.1 89.44,0.15 90.95,2.13 C92.11,3.69 92.99,5.44 93.97,7.12 C120.36,52.65 146.82,98.15 173.19,143.69 C175.45,146.78 172.88,151.61 169.04,151.35 C114.69,151.44 60.34,151.39 5.99,151.38 C3.02,151.71 0.11,149.11 0.48,146.07 C0.89,143.68 2.51,141.74 3.62,139.63 C29.94,94.26 56.25,48.87 82.56,3.49 C83.02,2.66 83.61,1.94 84.33,1.34 L84.33,1.34 Z M87.22,16.35 C63.15,57.87 39.08,99.41 14.99,140.92 C63.16,141.01 111.33,140.99 159.5,140.93 C135.39,99.42 111.37,57.85 87.22,16.35 Z M47,133 C47.4895692,133.529857 48.4487252,133.59118 49,134 C48.9682681,129.094164 48.9482857,124.566486 49,120 C50.5468791,120.192116 52.5151471,119.670871 54,121 C57.4108394,125.087731 61.1875162,128.981739 65,133 C69.1605007,128.59336 73.3368259,124.362076 77,120 C78.66214,120.110352 79.8510939,120.100131 81,120 C81.1199774,124.474502 80.8502147,128.859093 81,133 L83,134 C83.1781663,128.695565 82.8984125,123.370689 83,118 C80.8701971,118.066254 78.7720433,118.066254 77,118 C72.7773182,122.021584 68.890738,125.987135 65,130 C61.0975953,126.140442 57.4707866,122.021584 53,118 C51.3761494,117.718757 49.1381186,118.148017 47,118 C47.0199824,123.227602 47.0099912,128.368509 47,133 Z M94.31,102.58 C98.89,102.8 103.46,103.03 108.03,103.29 C106.76,104.56 105.49,105.83 104.23,107.11 C108.9,111.95 112.87,117.55 115.19,123.91 C112.82,124.85 110.42,125.73 108,126.55 C105.97,121.29 102.7,116.63 98.82,112.58 C97.54,113.79 96.27,115.02 95,116.25 C94.81,111.69 94.56,107.14 94.31,102.58 Z M94.27,82.45 C95.43,81.25 96.57,80.02 97.76,78.85 C100.51,81.57 103.25,84.31 105.98,87.05 C92.25,100.71 78.46,114.33 64.73,127.99 C57.89,121.01 51.06,114.02 44.24,107.03 C45.22,106.02 46.2,105.02 47.19,104.01 C53.05,109.8 58.84,115.64 64.71,121.42 C76.16,110.05 87.52,98.6 99.04,87.3 C97.53,85.61 95.93,84 94.27,82.45 Z M79.11,80.2 C80.43,78.3 82.55,76.33 85.06,76.98 C87.16,77.47 90.6,76.78 90.97,79.73 C90.02,79.59 88.12,79.32 87.16,79.18 C86.22,79.85 85.27,80.53 84.33,81.21 C84.05,82.42 83.77,83.63 83.5,84.85 C84.34,85.2 86.02,85.9 86.86,86.25 C85.48,87.47 84.06,89.18 81.99,88.56 C81.22,89.47 80.45,90.38 79.68,91.29 C79.42,90.73 78.89,89.61 78.62,89.05 C77.59,89.65 76.58,90.29 75.54,90.9 C75.44,90.35 75.24,89.26 75.13,88.71 C77.98,86.7 77.21,82.8 79.11,80.2 Z M73.24,88.47 C72.28,81.62 75.89,74.47 82.07,71.37 C88.96,70.33 95.97,71.1 102.88,71.65 C106.69,72.43 110.16,74.49 113.44,76.5 C117.49,82.9 121.09,89.6 124.93,96.13 C117.34,91.41 110.02,86.22 102.17,81.93 C100.5,80.79 99.15,79.25 97.66,77.89 C96.22,79.4 94.75,80.89 93.27,82.37 C94.36,83.44 95.45,84.51 96.55,85.59 C92.32,88.72 88.05,91.99 82.97,93.63 C82.11,88.25 88.87,87.68 90.6,83.57 C91.76,81.6 91.39,79.29 90.99,77.16 C88.17,76.79 85.31,75.94 82.46,76.37 C79,77.93 77.15,81.56 76.61,85.16 C76.63,87.14 74.72,87.76 73.24,88.47 Z M64.49,69.96 C65.9,66.9 69.71,68.47 72.31,68.12 C72.33,82.51 72.29,96.89 72.33,111.27 C69.8,113.85 67.25,116.4 64.71,118.98 C62.27,116.57 59.86,114.13 57.44,111.69 C60.13,108.97 62.61,105.82 63.29,101.95 C64.72,95.85 62,89.36 57.16,85.55 C56.94,83.35 57.87,81.38 59.05,79.6 C59.1,81.27 59.15,82.94 59.2,84.61 C63.71,88.67 66.37,94.83 65.47,100.93 C65.04,105.02 62.92,108.68 60.23,111.72 C61.73,113.19 63.22,114.67 64.71,116.14 C66.51,114.1 69.03,112.51 70.28,110.09 C70.51,96.76 70.31,83.4 70.37,70.06 C68.41,70.05 66.45,70.04 64.49,69.96 Z" id="Shape" sketch:type="MSShapeGroup"></path>
        </g>
    </g>
</svg>