<?xml version="1.0" encoding="UTF-8" standalone="no"?>
<svg width="600px" height="524px" viewBox="0 0 600 524" version="1.1" xmlns="http://www.w3.org/2000/svg" xmlns:xlink="http://www.w3.org/1999/xlink" xmlns:sketch="http://www.bohemiancoding.com/sketch/ns">
    <!-- Generator: Sketch 3.0 (7574) - http://www.bohemiancoding.com/sketch -->
    <title>ISO_7010_W021</title>
    <description>Created with Sketch.</description>
    <defs></defs>
    <g id="Page-1" stroke="none" stroke-width="1" fill="none" fill-rule="evenodd" sketch:type="MSPage">
        <g id="ISO_7010_W021_Original" sketch:type="MSLayerGroup" fill="#000000">
            <path d="M597.6,499.6 L313.8,8 C310.9,3 305.6,0 299.9,0 C294.2,0 288.9,3.1 286,8 L2.2,499.6 C-0.7,504.6 -0.7,510.7 2.2,515.6 C5.1,520.6 10.4,523.6 16.1,523.6 L583.7,523.6 C589.4,523.6 594.7,520.5 597.6,515.6 C600.5,510.6 600.5,504.5 597.6,499.6 Z M44,491.52526 L300,50.0363265 L556,491.52526 L44,491.52526 Z M254.20599,412.70348 C230.4458,402.36139 221.11144,382.3116 218.48893,335.98485 C217.42752,317.23485 217.35475,301.89394 218.32724,301.89394 C219.29973,301.89394 222.62243,303.24637 225.71103,304.89933 C230.69927,307.56897 231.70901,306.13012 234.74907,292.02055 C236.6314,283.28425 238.98343,270.26336 239.9758,263.08525 L241.78011,250.03413 L251.66257,259.61259 L261.54504,269.19105 L263.66983,246.51636 C264.83847,234.04528 264.83338,219.46517 263.65863,214.11612 C261.65087,204.97483 261.90044,204.59281 267.81308,207.75716 C271.27287,209.60878 275.54648,213.81977 277.30998,217.11491 C283.25985,228.2325 286.36364,223.21303 286.36364,202.47313 C286.36364,189.44256 287.94746,179.67418 290.66214,175.96164 C294.7908,170.31536 295.04518,170.4199 297.10011,178.60741 C298.27682,183.29579 305.13224,194.03516 312.33437,202.47267 C319.53649,210.91018 325.98055,221.39077 326.65449,225.76286 L327.87982,233.71212 L328.33385,225.37879 C328.91367,214.7368 332.45767,214.84439 341.66222,225.78339 C348.32616,233.70301 351.79673,243.26927 357.73122,270.07576 C359.66573,278.81421 359.84482,278.90232 362.35001,272.34849 C365.68831,263.61509 369.21422,263.71075 374.00622,272.66472 C378.67991,281.3976 379.40058,297.14729 376.31428,323.10606 C374.23807,340.56888 374.46976,342.18173 378.35704,337.32542 C382.40573,332.26745 382.89637,332.76363 384.76134,343.80233 C387.31298,358.90527 381.99264,379.22597 372.04501,392.37154 C362.06598,405.55866 337.54261,416.97748 319.11825,417.01584 C301.16146,417.05314 298.69541,413.24718 311.70358,405.57218 C323.62604,398.53775 335.74343,383.5023 342.47573,367.3896 C347.00428,356.55133 346.9677,356.0316 341.79249,357.67418 C336.96025,359.20785 336.44194,357.73998 337.33319,345.0457 L338.34161,330.68182 L330.42519,342.04545 C320.42255,356.40379 316.27485,356.59742 320.16055,342.5246 C323.91179,328.93873 320.90852,309.4863 313.06882,296.59091 C309.77576,291.17424 306.60394,286.74242 306.02029,286.74242 C305.43665,286.74242 305.00475,297.99242 305.06051,311.74242 C305.15991,336.25863 301.3703,353.40909 295.85366,353.40909 C294.324,353.40909 290.95142,348.29545 288.35904,342.04545 L283.64563,330.68182 L283.18246,341.28788 C282.92774,347.12121 282.96195,356.32576 283.25846,361.74242 C283.55501,367.15909 282.40687,371.59091 280.70701,371.59091 C275.6207,371.59091 268.15693,358.72412 266.20501,346.59091 C264.19995,334.12736 259.36185,331.22448 258.62933,342.04545 C257.64913,356.52491 257.18022,357.93094 253.58331,357.17597 C245.33532,355.44476 257.44026,387.26088 270.83302,402.51436 C276.04151,408.44651 280.30301,414.14278 280.30301,415.17278 C280.30301,418.48527 263.93001,416.93606 254.20597,412.70348 L254.20599,412.70348 Z M185,455 L185,430 L415,430 L415,455 L185,455 Z" id="sign_border" sketch:type="MSShapeGroup"></path>
        </g>
    </g>
</svg>