<?xml version="1.0" encoding="UTF-8" ?>
<!DOCTYPE svg PUBLIC "-//W3C//DTD SVG 1.1//EN" "http://www.w3.org/Graphics/SVG/1.1/DTD/svg11.dtd">
<svg width="200pt" height="200pt" viewBox="0 0 200 200" version="1.1" xmlns="http://www.w3.org/2000/svg">
<g id="#ffffffff">
</g>
<g id="#f4c91bff">
<path fill="#f4c91b" opacity="1.00" d=" M 100.23 40.35 C 124.37 81.90 148.48 123.46 172.53 165.06 C 124.35 164.93 76.17 164.89 27.99 165.06 C 51.96 123.43 76.16 81.93 100.23 40.35 M 112.03 96.01 C 107.83 98.02 106.21 102.72 105.91 107.06 C 107.03 105.99 108.21 105.00 109.43 104.05 C 109.61 104.71 109.96 106.04 110.14 106.70 C 110.79 106.52 112.11 106.16 112.76 105.98 C 112.96 107.33 113.16 108.67 113.37 110.02 C 114.29 109.59 115.22 109.16 116.14 108.73 C 116.85 110.16 116.97 111.76 117.29 113.30 C 118.68 113.79 119.46 114.75 119.65 116.19 C 125.25 114.77 129.20 108.81 127.70 103.10 C 126.36 96.38 117.96 92.59 112.03 96.01 M 69.31 108.07 C 70.33 108.10 72.37 108.15 73.39 108.18 C 73.41 119.16 73.37 130.14 73.41 141.12 C 72.09 142.45 70.74 143.76 69.38 145.06 C 68.44 144.08 67.51 143.11 66.57 142.14 C 71.88 136.47 71.46 127.02 65.63 121.89 C 65.59 119.56 65.59 117.22 65.55 114.89 C 63.79 117.20 63.38 120.01 63.72 122.85 C 67.18 125.78 69.36 130.48 68.17 135.03 C 67.67 137.86 65.69 140.04 63.82 142.10 C 65.68 144.08 67.61 145.99 69.66 147.77 C 71.47 145.75 73.38 143.82 75.33 141.94 C 75.30 130.00 75.42 118.06 75.27 106.12 C 73.19 106.45 70.26 105.50 69.31 108.07 M 107.02 108.29 C 105.58 111.28 110.37 108.33 107.02 108.29 M 79.25 111.52 C 80.53 114.15 81.57 116.94 83.33 119.31 C 83.66 118.59 84.31 117.15 84.64 116.43 C 87.99 118.09 91.13 120.15 93.82 122.77 C 94.99 121.52 96.13 120.25 97.26 118.97 C 94.15 115.93 90.51 113.51 86.54 111.77 C 86.85 110.94 87.47 109.30 87.78 108.48 C 84.93 109.47 82.09 110.49 79.25 111.52 M 107.53 111.36 C 95.56 123.39 83.45 135.29 71.49 147.33 C 70.67 147.96 69.55 149.86 68.53 148.34 C 65.05 145.02 61.73 141.51 58.27 138.17 C 57.79 138.65 56.84 139.62 56.36 140.10 C 60.72 144.57 65.10 149.01 69.43 153.50 C 83.00 140.07 96.55 126.62 110.07 113.13 C 110.63 113.58 111.74 114.49 112.30 114.95 C 111.72 114.06 111.13 113.18 110.54 112.31 C 111.03 111.98 112.01 111.32 112.50 110.99 C 112.02 110.42 111.06 109.28 110.58 108.71 C 109.52 109.55 108.48 110.40 107.53 111.36 M 113.33 114.94 C 113.48 118.28 116.28 113.42 113.33 114.94 M 119.59 122.07 C 120.20 121.65 121.42 120.80 122.03 120.38 C 123.15 121.42 122.27 122.82 121.99 123.98 C 122.36 124.40 123.10 125.25 123.48 125.67 C 120.91 127.18 120.62 130.04 122.41 132.31 C 120.59 132.22 118.77 132.20 116.95 132.25 C 115.89 136.69 114.84 141.14 113.72 145.57 C 106.47 145.57 99.22 145.53 91.97 145.53 C 89.54 145.32 87.03 146.76 86.28 149.14 C 85.04 152.31 87.60 156.25 91.05 156.21 C 100.36 156.23 109.70 156.49 119.00 156.19 C 125.08 154.60 123.72 146.63 125.74 141.98 C 128.63 147.17 131.42 152.42 134.34 157.60 C 141.43 157.52 148.52 157.65 155.61 157.52 C 155.09 155.17 154.40 152.84 153.15 150.76 C 147.65 140.93 142.41 130.95 136.85 121.16 C 133.13 114.66 122.76 115.43 119.59 122.07 M 119.04 123.12 C 117.66 126.16 122.38 123.08 119.04 123.12 M 98.45 127.12 C 101.09 129.79 103.16 132.93 104.77 136.31 C 104.00 136.63 102.46 137.25 101.69 137.57 C 104.27 139.14 107.04 140.37 109.82 141.57 C 110.76 138.73 111.73 135.90 112.80 133.10 C 112.04 133.38 110.53 133.93 109.77 134.20 C 107.31 130.69 105.59 126.46 102.07 123.70 C 100.87 124.85 99.66 125.99 98.45 127.12 M 118.16 126.21 C 116.82 129.26 121.50 126.10 118.16 126.21 M 77.73 146.67 C 74.99 149.40 72.23 152.11 69.59 154.95 C 66.28 151.88 63.16 148.62 59.94 145.46 C 58.15 145.46 56.36 145.46 54.57 145.46 C 54.56 149.51 54.56 153.55 54.58 157.60 L 56.45 157.55 C 56.45 154.10 56.45 150.65 56.46 147.20 C 57.59 147.42 58.98 147.16 59.85 148.11 C 63.10 151.21 66.26 154.41 69.43 157.59 C 72.72 154.46 75.81 151.11 79.15 148.03 C 80.02 147.04 81.43 147.47 82.58 147.37 C 82.43 150.88 82.42 154.40 82.58 157.92 L 84.26 157.28 C 84.53 153.35 84.28 149.42 84.38 145.49 C 82.17 145.64 79.35 144.67 77.73 146.67 Z" />
</g>
<g id="#000000ff">
<path fill="#000000" opacity="1.00" d=" M 97.37 25.32 C 99.31 23.93 102.37 24.15 103.89 26.06 C 105.38 28.05 106.46 30.31 107.73 32.44 C 133.41 76.66 159.04 120.92 184.75 165.14 C 185.88 167.22 187.73 169.50 186.77 172.02 C 186.05 174.45 183.42 175.63 181.03 175.40 C 127.04 175.38 73.05 175.42 19.07 175.38 C 16.05 175.75 13.04 173.09 13.49 169.98 C 13.95 167.63 15.51 165.71 16.62 163.63 C 42.18 119.58 67.72 75.51 93.26 31.44 C 94.57 29.37 95.48 26.94 97.37 25.32 M 100.23 40.35 C 76.16 81.93 51.96 123.43 27.99 165.06 C 76.17 164.89 124.35 164.93 172.53 165.06 C 148.48 123.46 124.37 81.90 100.23 40.35 Z" />
<path fill="#000000" opacity="1.00" d=" M 112.03 96.01 C 117.96 92.59 126.36 96.38 127.70 103.10 C 129.20 108.81 125.25 114.77 119.65 116.19 C 119.46 114.75 118.68 113.79 117.29 113.30 C 116.97 111.76 116.85 110.16 116.14 108.73 C 115.22 109.16 114.29 109.59 113.37 110.02 C 113.16 108.67 112.96 107.33 112.76 105.98 C 112.11 106.16 110.79 106.52 110.14 106.70 C 109.96 106.04 109.61 104.71 109.43 104.05 C 108.21 105.00 107.03 105.99 105.91 107.06 C 106.21 102.72 107.83 98.02 112.03 96.01 Z" />
<path fill="#000000" opacity="1.00" d=" M 69.31 108.07 C 70.26 105.50 73.19 106.45 75.27 106.12 C 75.42 118.06 75.30 130.00 75.33 141.94 C 73.38 143.82 71.47 145.75 69.66 147.77 C 67.61 145.99 65.68 144.08 63.82 142.10 C 65.69 140.04 67.67 137.86 68.17 135.03 C 69.36 130.48 67.18 125.78 63.72 122.85 C 63.38 120.01 63.79 117.20 65.55 114.89 C 65.59 117.22 65.59 119.56 65.63 121.89 C 71.46 127.02 71.88 136.47 66.57 142.14 C 67.51 143.11 68.44 144.08 69.38 145.06 C 70.74 143.76 72.09 142.45 73.41 141.12 C 73.37 130.14 73.41 119.16 73.39 108.18 C 72.37 108.15 70.33 108.10 69.31 108.07 Z" />
<path fill="#000000" opacity="1.00" d=" M 107.02 108.29 C 110.37 108.33 105.58 111.28 107.02 108.29 Z" />
<path fill="#000000" opacity="1.00" d=" M 79.25 111.52 C 82.09 110.49 84.93 109.47 87.78 108.48 C 87.47 109.30 86.85 110.94 86.54 111.77 C 90.51 113.51 94.15 115.93 97.26 118.97 C 96.13 120.25 94.99 121.52 93.82 122.77 C 91.13 120.15 87.99 118.09 84.64 116.43 C 84.31 117.15 83.66 118.59 83.33 119.31 C 81.57 116.94 80.53 114.15 79.25 111.52 Z" />
<path fill="#000000" opacity="1.00" d=" M 107.53 111.36 C 108.48 110.40 109.52 109.55 110.58 108.71 C 111.06 109.28 112.02 110.42 112.50 110.99 C 112.01 111.32 111.03 111.98 110.54 112.31 C 111.13 113.18 111.72 114.06 112.30 114.95 C 111.74 114.49 110.63 113.58 110.07 113.13 C 96.55 126.62 83.00 140.07 69.43 153.50 C 65.10 149.01 60.72 144.57 56.36 140.10 C 56.84 139.62 57.79 138.65 58.27 138.17 C 61.73 141.51 65.05 145.02 68.53 148.34 C 69.55 149.86 70.67 147.96 71.49 147.33 C 83.45 135.29 95.56 123.39 107.53 111.36 Z" />
<path fill="#000000" opacity="1.00" d=" M 113.33 114.94 C 116.28 113.42 113.48 118.28 113.33 114.94 Z" />
<path fill="#000000" opacity="1.00" d=" M 119.59 122.07 C 122.76 115.43 133.13 114.66 136.85 121.16 C 142.41 130.95 147.65 140.93 153.15 150.76 C 154.40 152.84 155.09 155.17 155.61 157.52 C 148.52 157.65 141.43 157.52 134.34 157.60 C 131.42 152.42 128.63 147.17 125.74 141.98 C 123.72 146.63 125.08 154.60 119.00 156.19 C 109.70 156.49 100.36 156.23 91.05 156.21 C 87.60 156.25 85.04 152.31 86.28 149.14 C 87.03 146.76 89.54 145.32 91.97 145.53 C 99.22 145.53 106.47 145.57 113.72 145.57 C 114.84 141.14 115.89 136.69 116.95 132.25 C 118.77 132.20 120.59 132.22 122.41 132.31 C 120.62 130.04 120.91 127.18 123.48 125.67 C 123.10 125.25 122.36 124.40 121.99 123.98 C 122.27 122.82 123.15 121.42 122.03 120.38 C 121.42 120.80 120.20 121.65 119.59 122.07 Z" />
<path fill="#000000" opacity="1.00" d=" M 119.04 123.12 C 122.38 123.08 117.66 126.16 119.04 123.12 Z" />
<path fill="#000000" opacity="1.00" d=" M 98.45 127.12 C 99.66 125.99 100.87 124.85 102.07 123.70 C 105.59 126.46 107.31 130.69 109.77 134.20 C 110.53 133.93 112.04 133.38 112.80 133.10 C 111.73 135.90 110.76 138.73 109.82 141.57 C 107.04 140.37 104.27 139.14 101.69 137.57 C 102.46 137.25 104.00 136.63 104.77 136.31 C 103.16 132.93 101.09 129.79 98.45 127.12 Z" />
<path fill="#000000" opacity="1.00" d=" M 118.16 126.21 C 121.50 126.10 116.82 129.26 118.16 126.21 Z" />
<path fill="#000000" opacity="1.00" d=" M 77.73 146.67 C 79.35 144.67 82.17 145.64 84.38 145.49 C 84.28 149.42 84.53 153.35 84.26 157.28 L 82.58 157.92 C 82.42 154.40 82.43 150.88 82.58 147.37 C 81.43 147.47 80.02 147.04 79.15 148.03 C 75.81 151.11 72.72 154.46 69.43 157.59 C 66.26 154.41 63.10 151.21 59.85 148.11 C 58.98 147.16 57.59 147.42 56.46 147.20 C 56.45 150.65 56.45 154.10 56.45 157.55 L 54.58 157.60 C 54.56 153.55 54.56 149.51 54.57 145.46 C 56.36 145.46 58.15 145.46 59.94 145.46 C 63.16 148.62 66.28 151.88 69.59 154.95 C 72.23 152.11 74.99 149.40 77.73 146.67 Z" />
</g>
</svg>
