<?xml version="1.0" encoding="UTF-8" standalone="no"?>
<svg width="600px" height="524px" viewBox="0 0 600 524" version="1.1" xmlns="http://www.w3.org/2000/svg" xmlns:xlink="http://www.w3.org/1999/xlink" xmlns:sketch="http://www.bohemiancoding.com/sketch/ns">
    <!-- Generator: Sketch 3.0 (7574) - http://www.bohemiancoding.com/sketch -->
    <title>ISO_7010_W003</title>
    <description>Created with Sketch.</description>
    <defs></defs>
    <g id="Page-1" stroke="none" stroke-width="1" fill="none" fill-rule="evenodd" sketch:type="MSPage">
        <g id="ISO_7010_W003_Original" sketch:type="MSLayerGroup" fill="#000000">
            <path d="M597.6,499.6 L313.8,8 C310.9,3 305.6,0 299.9,0 C294.2,0 288.9,3.1 286,8 L2.2,499.6 C-0.7,504.6 -0.7,510.7 2.2,515.6 C5.1,520.6 10.4,523.6 16.1,523.6 L583.7,523.6 C589.4,523.6 594.7,520.5 597.6,515.6 C600.5,510.6 600.5,504.5 597.6,499.6 Z M44,491.52526 L300,50.0363265 L556,491.52526 L44,491.52526 Z M326.54999,340.80001 C326.54999,355.54601 314.59599,367.50001 299.84999,367.50001 C285.10398,367.50001 273.14999,355.54601 273.14999,340.80001 C273.14999,326.054 285.10398,314.10001 299.84999,314.10001 C314.59599,314.10001 326.54999,326.054 326.54999,340.80001 Z M366.75,225 L319.95,306.1 C320.75,306.6 321.55,307 322.35,307.6 C323.45,308.3 324.45,309.1 325.45,309.9 C326.45,310.7 327.35,311.6 328.35,312.5 C329.25,313.4 330.15,314.4 330.95,315.3 C331.75,316.3 332.55,317.3 333.25,318.4 C333.95,319.5 334.65,320.6 335.25,321.7 C335.85,322.8 336.45,324 336.95,325.2 C337.45,326.4 337.95,327.6 338.35,328.9 C338.75,330.2 339.05,331.4 339.35,332.7 C339.65,334 339.85,335.3 339.95,336.7 C340.05,338 340.15,339.4 340.15,340.8 L433.75,340.8 C433.55,291.6 409.35,249.6 366.75,225 L366.75,225 Z M233.05,225 C190.45,249.6 166.25,291.6 166.25,340.8 L259.85,340.8 C259.85,339.4 259.95,338 260.05,336.7 C260.15,335.4 260.45,334 260.65,332.7 C260.95,331.4 261.25,330.1 261.65,328.9 C262.05,327.6 262.45,326.4 263.05,325.2 C263.55,324 264.15,322.8 264.75,321.7 C265.35,320.6 266.05,319.5 266.75,318.4 C267.45,317.3 268.25,316.3 269.05,315.3 C269.85,314.3 270.75,313.4 271.65,312.5 C272.55,311.6 273.55,310.7 274.55,309.9 C275.55,309.1 276.55,308.3 277.65,307.6 C278.45,307.1 279.25,306.6 280.05,306.1 L233.05,225 L233.05,225 Z M279.85,375.5 L233.05,456.6 C275.65,481.2 324.15,481.2 366.75,456.6 L319.95,375.5 C319.65,375.7 319.35,375.9 319.05,376.1 C317.95,376.7 316.75,377.3 315.55,377.8 C314.35,378.3 313.15,378.8 311.85,379.2 C310.55,379.6 309.35,379.9 308.05,380.2 C306.75,380.5 305.45,380.7 304.05,380.8 C302.75,380.9 301.35,381 299.95,381 C298.55,381 297.25,380.9 295.85,380.8 C294.55,380.7 293.15,380.5 291.85,380.2 C290.55,379.9 289.25,379.6 288.05,379.2 C286.75,378.8 285.55,378.4 284.35,377.8 C283.15,377.3 281.95,376.7 280.85,376.1 C280.45,375.9 280.15,375.7 279.85,375.5 Z" id="sign_border" sketch:type="MSShapeGroup"></path>
        </g>
    </g>
</svg>