<?xml version="1.0" encoding="UTF-8" standalone="no"?>
<svg width="600px" height="524px" viewBox="0 0 600 524" version="1.1" xmlns="http://www.w3.org/2000/svg" xmlns:xlink="http://www.w3.org/1999/xlink" xmlns:sketch="http://www.bohemiancoding.com/sketch/ns">
    <!-- Generator: Sketch 3.0 (7574) - http://www.bohemiancoding.com/sketch -->
    <title>ISO_7010_W006 2</title>
    <description>Created with Sketch.</description>
    <defs></defs>
    <g id="Page-1" stroke="none" stroke-width="1" fill="none" fill-rule="evenodd" sketch:type="MSPage">
        <g id="ISO_7010_W006" sketch:type="MSLayerGroup" fill="#000000">
            <path d="M597.6,499.6 L313.8,8 C310.9,3 305.6,0 299.9,0 C294.2,0 288.9,3.1 286,8 L2.2,499.6 C-0.7,504.6 -0.7,510.7 2.2,515.6 C5.1,520.6 10.4,523.6 16.1,523.6 L583.7,523.6 C589.4,523.6 594.7,520.5 597.6,515.6 C600.5,510.6 600.5,504.5 597.6,499.6 Z M44,491.52526 L300.005,50.0363265 L556.005,491.52526 L44,491.52526 Z M298.47,205.31 C280.674,205.308 262.803,208.8578 248.189,216.279 C234.734,223.1114 221.033,238.798 216.47,252.623 C212.0986,265.868 213.798,307.591 222.1888,392.933 C225.4019,425.614 229.2406,459.755 229.2748,462.545 L278.0948,462.4952 L276.3136,450.1832 C274.703,439.0862 262.3316,326.0732 258.7826,290.0232 C255.8256,259.9882 270.8636,242.2112 299.1886,242.2112 C318.7606,242.2112 332.4286,250.9408 337.8766,266.9302 C341.3612,277.1582 340.6869,288.3902 331.7204,368.3102 C326.1754,417.7302 322.5755,461.0812 323.2699,462.2762 L369.7829,462.49743 L371.4391,447.27843 C372.35415,438.90883 374.3851,417.04943 375.9703,398.71643 C377.5556,380.38343 380.1303,352.34643 381.6891,336.40443 C388.2195,269.61543 384.5705,245.06143 365.4701,227.15443 C350.2931,212.92543 324.4801,205.31443 298.4701,205.31043 L298.47,205.31 Z M230.282,404.53 L262.414,404.07971 L269.0324,453.81171 C257.3444,453.81171 248.0174,454.59822 236.3294,454.59822 L230.282,404.53 Z M335.752,404.53 L368.127,404.53 L363.5905,453.26 L331.8485,452.2387 L335.752,404.53 Z M411.91316,398.62 L420.34316,396.97 C424.21386,413.052 426.33596,437.208 420.34316,457.561 L412.30946,455.988 C416.31716,433.371 415.96526,421.376 411.9162,398.628 L411.91316,398.62 Z M391.91316,398.62 L400.34316,396.97 C404.21386,413.052 406.33596,437.208 400.34316,457.561 L392.30946,455.988 C396.31716,433.371 395.96526,421.376 391.9162,398.628 L391.91316,398.62 Z M190.257513,398.62 L181.827513,396.97 C177.956813,413.052 175.834713,437.208 181.827513,457.561 L189.861213,455.988 C185.853513,433.371 186.205413,421.376 190.254473,398.628 L190.257513,398.62 Z M210.257513,398.62 L201.827513,396.97 C197.956813,413.052 195.834713,437.208 201.827513,457.561 L209.861213,455.988 C205.853513,433.371 206.205413,421.376 210.254473,398.628 L210.257513,398.62 Z" id="Shape" sketch:type="MSShapeGroup"></path>
        </g>
    </g>
</svg>