<?xml version="1.0" encoding="UTF-8" standalone="no"?>
<svg width="609px" height="530px" viewBox="0 0 609 530" version="1.1" xmlns="http://www.w3.org/2000/svg" xmlns:xlink="http://www.w3.org/1999/xlink" xmlns:sketch="http://www.bohemiancoding.com/sketch/ns">
    <!-- Generator: Sketch 3.0 (7574) - http://www.bohemiancoding.com/sketch -->
    <title>ISO_7010_W022</title>
    <description>Created with Sketch.</description>
    <defs></defs>
    <g id="Page-1" stroke="none" stroke-width="1" fill="none" fill-rule="evenodd" sketch:type="MSPage">
        <g id="ISO_7010_W022_Original" sketch:type="MSLayerGroup" transform="translate(1.000000, 0.000000)" stroke="#000000" fill="#000000">
            <path d="M592.563267,529.64908 C604.206457,529.13265 609.934157,514.25002 605.943547,506.55049 L317.070307,6.55049 C311.060917,-2.60444 295.614907,-0.35092 290.591437,6.55049 L1.577351,504.01528 C-4.38509,516.03406 3.455286,529.17959 12.844957,529.50823 L592.563267,529.64908 Z M49.887207,494.01528 L303.830877,55.84626 C303.830877,55.84626 557.774537,491.9026 556.859047,494.0857 L49.887207,494.01528 Z M303.126647,200.635 L226.788617,243.17021 C224.018667,244.8134 222.234627,249.41434 221.436507,254.01528 L221.013967,313.4519 C221.248717,321.52702 229.229937,328.89791 235.239327,329.64908 L306.788617,329.64908 C296.506927,354.86035 284.816787,378.24063 270.873127,399.78993 L270.732277,468.38147 L307.633687,468.66316 L308.056227,329.22654 L353.690027,329.93077 C363.596127,330.16551 362.093787,310.82278 353.408337,311.62091 L333.126647,312.18429 L335.802707,305.56457 L375.098477,305.84626 C385.990497,306.36269 387.023357,289.41434 377.351997,288.80401 L338.901297,288.80401 L340.873127,282.32514 L390.450587,282.18429 C399.746357,281.85565 399.464667,265.8932 392.140727,265.56457 L344.535097,265.56457 L346.647777,258.66316 L377.492847,258.66316 C385.427117,259.50823 385.755747,241.48007 377.633687,240.91669 L273.126647,241.05753 L273.126647,237.5364 C288.619607,229.03875 314.112567,221.52702 303.126647,200.635 L303.126647,200.635 Z M281.886437,260.18996 L266.110797,326.126 L282.797037,326.1915 L281.886437,260.18996 Z M286.737757,309.88186 L302.795077,244.78112 L285.967997,244.86622 L286.737757,309.88186 Z M287.009667,326.54853 L303.771207,326.61403 L303.122737,260.321 L287.009667,326.54853 Z M307.636627,310.79247 L324.398167,244.56496 L306.866857,244.56496 L307.636627,310.79247 Z M307.692367,326.68938 L325.927897,326.67938 L325.148357,259.18426 L307.692367,326.68938 Z M329.380557,311.28054 L346.066787,244.7058 L328.676327,244.6403 L329.380557,311.28054 Z" id="path3015" sketch:type="MSShapeGroup"></path>
        </g>
    </g>
</svg>