<?xml version="1.0" encoding="UTF-8" ?>
<!DOCTYPE svg PUBLIC "-//W3C//DTD SVG 1.1//EN" "http://www.w3.org/Graphics/SVG/1.1/DTD/svg11.dtd">
<svg width="200pt" height="200pt" viewBox="0 0 200 200" version="1.1" xmlns="http://www.w3.org/2000/svg">
<g id="#ffffffff">
<path fill="#ffffff" opacity="1.00" d=" M 0.00 0.00 L 200.00 0.00 L 200.00 13.23 C 197.14 13.19 194.20 12.69 191.39 13.35 C 193.56 14.72 197.28 13.63 200.00 13.68 L 200.00 186.27 C 197.14 186.19 194.20 185.68 191.39 186.35 C 193.56 187.70 197.28 186.62 200.00 186.74 L 200.00 200.00 L 0.00 200.00 L 0.00 186.99 C 3.48 186.82 6.96 186.79 10.43 186.59 C 6.98 185.99 3.42 185.90 0.00 186.77 L 0.00 14.00 C 3.47 13.83 6.94 13.80 10.40 13.59 C 6.96 13.01 3.39 12.87 0.00 13.82 L 0.00 0.00 M 13.18 9.80 L 13.77 9.77 C 13.79 6.76 13.91 3.75 13.72 0.74 C 12.73 3.65 13.39 6.80 13.18 9.80 M 97.31 25.36 C 96.56 25.99 95.95 26.74 95.49 27.61 C 68.49 74.21 41.46 120.79 14.46 167.39 C 11.79 170.73 14.81 176.03 19.05 175.38 C 73.35 175.39 127.66 175.44 181.96 175.36 C 185.82 175.67 188.46 170.85 186.22 167.74 C 159.10 120.92 131.91 74.14 104.77 27.33 C 103.56 24.54 99.74 23.50 97.31 25.36 M 13.67 199.21 C 13.90 196.03 13.86 192.83 13.62 189.65 C 12.99 192.74 12.77 196.17 13.67 199.21 Z" />
</g>
<g id="#f3c836ff">
<path fill="#f3c836" opacity="1.00" d=" M 13.18 9.80 C 13.39 6.80 12.73 3.65 13.72 0.74 C 13.91 3.75 13.79 6.76 13.77 9.77 L 13.18 9.80 Z" />
<path fill="#f3c836" opacity="1.00" d=" M 0.00 13.82 C 3.39 12.87 6.96 13.01 10.40 13.59 C 6.94 13.80 3.47 13.83 0.00 14.00 L 0.00 13.82 Z" />
<path fill="#f3c836" opacity="1.00" d=" M 191.39 13.35 C 194.20 12.69 197.14 13.19 200.00 13.23 L 200.00 13.68 C 197.28 13.63 193.56 14.72 191.39 13.35 Z" />
<path fill="#f3c836" opacity="1.00" d=" M 100.16 40.44 C 124.49 81.80 148.34 123.45 172.49 164.93 C 124.34 165.02 76.19 164.96 28.04 164.97 C 51.97 123.40 76.15 81.97 100.16 40.44 M 113.81 90.72 C 114.93 95.32 116.97 100.22 114.77 104.88 C 114.07 106.12 113.19 109.42 115.67 108.66 C 118.56 104.63 118.85 99.12 117.50 94.45 C 116.87 92.66 116.34 90.09 113.81 90.72 M 109.29 93.48 C 111.01 97.44 111.15 101.75 109.34 105.70 C 109.74 105.95 110.55 106.46 110.95 106.72 C 113.57 103.92 113.75 99.52 112.79 95.98 C 112.36 94.37 111.20 91.46 109.29 93.48 M 105.15 95.19 C 105.31 98.20 106.26 101.30 104.75 104.27 C 107.97 105.32 108.44 101.21 108.33 98.97 C 108.07 97.28 107.55 94.16 105.15 95.19 M 98.93 102.87 C 98.97 106.83 99.06 110.79 98.94 114.76 C 87.88 114.68 76.82 114.80 65.76 114.69 C 61.20 122.44 56.55 130.16 52.27 138.06 C 51.94 142.28 52.23 146.52 52.17 150.75 C 53.74 150.74 55.30 150.74 56.86 150.75 C 58.41 153.65 60.75 156.32 64.05 157.15 C 69.33 158.85 75.18 155.78 77.31 150.78 C 80.59 150.77 83.87 150.59 87.15 150.79 C 88.43 151.85 89.15 153.46 90.31 154.65 C 92.50 157.53 96.56 157.84 99.88 157.33 C 106.01 156.18 112.37 157.58 118.45 156.54 C 121.34 152.90 123.38 148.65 126.05 144.84 C 127.56 144.63 129.03 144.17 130.32 143.33 C 135.21 140.43 140.32 137.91 145.15 134.91 C 146.30 133.53 144.82 131.11 143.10 131.91 C 137.69 134.56 132.57 137.78 127.24 140.58 C 125.27 139.31 123.10 138.30 121.36 136.71 C 118.69 131.57 116.62 126.13 114.05 120.93 C 113.53 119.85 112.30 119.44 111.47 118.65 C 110.89 117.39 110.63 116.02 110.27 114.69 C 107.41 114.72 104.55 114.73 101.69 114.82 C 101.48 110.86 101.57 106.90 101.60 102.93 C 104.40 101.18 103.69 96.21 99.98 96.61 C 96.59 96.87 96.51 101.25 98.93 102.87 M 125.33 131.46 C 123.09 132.51 122.57 135.85 124.39 137.53 C 126.23 139.59 130.09 138.63 130.74 135.95 C 131.90 132.89 128.13 129.83 125.33 131.46 Z" />
<path fill="#f3c836" opacity="1.00" d=" M 55.61 135.61 C 59.39 129.27 62.97 122.81 66.78 116.48 C 80.87 116.61 94.95 116.39 109.04 116.60 C 111.19 126.02 113.72 135.35 115.88 144.78 C 115.28 145.61 114.67 146.45 114.07 147.28 C 113.08 144.84 112.35 142.28 111.19 139.91 C 109.89 138.39 107.88 139.68 106.27 139.84 C 102.79 136.11 96.90 134.72 92.40 137.40 C 88.22 139.58 86.50 144.49 86.87 148.98 C 83.88 148.94 80.89 148.94 77.90 148.95 C 78.39 144.74 76.90 140.18 73.20 137.84 C 68.40 134.45 61.03 135.93 57.98 140.98 C 56.34 143.32 56.22 146.23 56.33 148.99 C 55.73 148.97 54.54 148.94 53.94 148.92 C 54.33 144.49 52.72 139.46 55.61 135.61 Z" />
<path fill="#f3c836" opacity="1.00" d=" M 114.37 131.09 C 115.85 134.03 117.15 137.05 118.64 139.99 C 118.38 140.56 117.85 141.68 117.59 142.25 C 115.81 138.78 115.54 134.77 114.37 131.09 Z" />
<path fill="#f3c836" opacity="1.00" d=" M 64.19 138.28 C 69.10 136.39 75.02 139.80 75.99 144.93 C 77.22 149.98 73.16 155.40 68.01 155.76 C 63.00 156.40 58.10 152.10 58.08 147.06 C 57.91 143.20 60.53 139.46 64.19 138.28 Z" />
<path fill="#f3c836" opacity="1.00" d=" M 89.05 144.09 C 90.70 137.72 99.99 135.38 104.20 140.59 C 101.71 141.28 99.13 141.69 96.73 142.69 C 95.05 143.74 96.03 146.51 97.95 146.48 C 100.90 145.92 103.76 144.98 106.67 144.28 C 108.09 149.79 103.85 155.87 98.05 155.86 C 92.05 156.30 87.00 149.79 89.05 144.09 Z" />
<path fill="#f3c836" opacity="1.00" d=" M 107.83 150.78 C 108.77 150.74 109.70 150.71 110.64 150.67 C 110.73 151.16 110.91 152.13 111.00 152.61 C 109.68 152.59 108.35 152.57 107.02 152.56 C 107.23 152.11 107.63 151.22 107.83 150.78 Z" />
<path fill="#f3c836" opacity="1.00" d=" M 0.00 186.77 C 3.42 185.90 6.98 185.99 10.43 186.59 C 6.96 186.79 3.48 186.82 0.00 186.99 L 0.00 186.77 Z" />
<path fill="#f3c836" opacity="1.00" d=" M 191.39 186.35 C 194.20 185.68 197.14 186.19 200.00 186.27 L 200.00 186.74 C 197.28 186.62 193.56 187.70 191.39 186.35 Z" />
<path fill="#f3c836" opacity="1.00" d=" M 13.67 199.21 C 12.77 196.17 12.99 192.74 13.62 189.65 C 13.86 192.83 13.90 196.03 13.67 199.21 Z" />
</g>
<g id="#000000ff">
<path fill="#000000" opacity="1.00" d=" M 97.31 25.36 C 99.74 23.50 103.56 24.54 104.77 27.33 C 131.91 74.14 159.10 120.92 186.22 167.74 C 188.46 170.85 185.82 175.67 181.96 175.36 C 127.66 175.44 73.35 175.39 19.05 175.38 C 14.81 176.03 11.79 170.73 14.46 167.39 C 41.46 120.79 68.49 74.21 95.49 27.61 C 95.95 26.74 96.56 25.99 97.31 25.36 M 100.16 40.44 C 76.15 81.97 51.97 123.40 28.04 164.97 C 76.19 164.96 124.34 165.02 172.49 164.93 C 148.34 123.45 124.49 81.80 100.16 40.44 Z" />
<path fill="#000000" opacity="1.00" d=" M 113.81 90.72 C 116.34 90.09 116.87 92.66 117.50 94.45 C 118.85 99.12 118.56 104.63 115.67 108.66 C 113.19 109.42 114.07 106.12 114.77 104.88 C 116.97 100.22 114.93 95.32 113.81 90.72 Z" />
<path fill="#000000" opacity="1.00" d=" M 109.29 93.48 C 111.20 91.46 112.36 94.37 112.79 95.98 C 113.75 99.52 113.57 103.92 110.95 106.72 C 110.55 106.46 109.74 105.95 109.34 105.70 C 111.15 101.75 111.01 97.44 109.29 93.48 Z" />
<path fill="#000000" opacity="1.00" d=" M 105.15 95.19 C 107.55 94.16 108.07 97.28 108.33 98.97 C 108.44 101.21 107.97 105.32 104.75 104.27 C 106.26 101.30 105.31 98.20 105.15 95.19 Z" />
<path fill="#000000" opacity="1.00" d=" M 98.93 102.87 C 96.51 101.25 96.59 96.87 99.98 96.61 C 103.69 96.21 104.40 101.18 101.60 102.93 C 101.57 106.90 101.48 110.86 101.69 114.82 C 104.55 114.73 107.41 114.72 110.27 114.69 C 110.63 116.02 110.89 117.39 111.47 118.65 C 112.30 119.44 113.53 119.85 114.05 120.93 C 116.62 126.13 118.69 131.57 121.36 136.71 C 123.10 138.30 125.27 139.31 127.24 140.58 C 132.57 137.78 137.69 134.56 143.10 131.91 C 144.82 131.11 146.30 133.53 145.15 134.91 C 140.32 137.91 135.21 140.43 130.32 143.33 C 129.03 144.17 127.56 144.63 126.05 144.84 C 123.38 148.65 121.34 152.90 118.45 156.54 C 112.37 157.58 106.01 156.18 99.88 157.33 C 96.56 157.84 92.50 157.53 90.31 154.65 C 89.15 153.46 88.43 151.85 87.15 150.79 C 83.87 150.59 80.59 150.77 77.31 150.78 C 75.18 155.78 69.33 158.85 64.05 157.15 C 60.75 156.32 58.41 153.65 56.86 150.75 C 55.30 150.74 53.74 150.74 52.17 150.75 C 52.23 146.52 51.94 142.28 52.27 138.06 C 56.55 130.16 61.20 122.44 65.76 114.69 C 76.82 114.80 87.88 114.68 98.94 114.76 C 99.06 110.79 98.97 106.83 98.93 102.87 M 55.61 135.61 C 52.72 139.46 54.33 144.49 53.94 148.92 C 54.54 148.94 55.73 148.97 56.33 148.99 C 56.22 146.23 56.34 143.32 57.98 140.98 C 61.03 135.93 68.40 134.45 73.20 137.84 C 76.90 140.18 78.39 144.74 77.90 148.95 C 80.89 148.94 83.88 148.94 86.87 148.98 C 86.50 144.49 88.22 139.58 92.40 137.40 C 96.90 134.72 102.79 136.11 106.27 139.84 C 107.88 139.68 109.89 138.39 111.19 139.91 C 112.35 142.28 113.08 144.84 114.07 147.28 C 114.67 146.45 115.28 145.61 115.88 144.78 C 113.72 135.35 111.19 126.02 109.04 116.60 C 94.95 116.39 80.87 116.61 66.78 116.48 C 62.97 122.81 59.39 129.27 55.61 135.61 M 114.37 131.09 C 115.54 134.77 115.81 138.78 117.59 142.25 C 117.85 141.68 118.38 140.56 118.64 139.99 C 117.15 137.05 115.85 134.03 114.37 131.09 M 64.19 138.28 C 60.53 139.46 57.91 143.20 58.08 147.06 C 58.10 152.10 63.00 156.40 68.01 155.76 C 73.16 155.40 77.22 149.98 75.99 144.93 C 75.02 139.80 69.10 136.39 64.19 138.28 M 89.05 144.09 C 87.00 149.79 92.05 156.30 98.05 155.86 C 103.85 155.87 108.09 149.79 106.67 144.28 C 103.76 144.98 100.90 145.92 97.95 146.48 C 96.03 146.51 95.05 143.74 96.73 142.69 C 99.13 141.69 101.71 141.28 104.20 140.59 C 99.99 135.38 90.70 137.72 89.05 144.09 M 107.83 150.78 C 107.63 151.22 107.23 152.11 107.02 152.56 C 108.35 152.57 109.68 152.59 111.00 152.61 C 110.91 152.13 110.73 151.16 110.64 150.67 C 109.70 150.71 108.77 150.74 107.83 150.78 Z" />
<path fill="#000000" opacity="1.00" d=" M 125.33 131.46 C 128.13 129.83 131.90 132.89 130.74 135.95 C 130.09 138.63 126.23 139.59 124.39 137.53 C 122.57 135.85 123.09 132.51 125.33 131.46 Z" />
</g>
</svg>
