<?xml version="1.0" encoding="UTF-8" standalone="no"?>
<svg width="174px" height="151px" viewBox="0 0 174 151" version="1.1" xmlns="http://www.w3.org/2000/svg" xmlns:xlink="http://www.w3.org/1999/xlink" xmlns:sketch="http://www.bohemiancoding.com/sketch/ns">
    <!-- Generator: Sketch 3.0 (7574) - http://www.bohemiancoding.com/sketch -->
    <title>ISO_7010_W037</title>
    <description>Created with Sketch.</description>
    <defs></defs>
    <g id="Page-1" stroke="none" stroke-width="1" fill="none" fill-rule="evenodd" sketch:type="MSPage">
        <g id="ISO_7010_W037_Original" sketch:type="MSLayerGroup" fill="#000000">
            <path d="M84.31,1.36 C86.74,-0.5 90.56,0.54 91.77,3.33 C118.91,50.14 146.1,96.92 173.22,143.74 C175.46,146.85 172.82,151.67 168.96,151.36 C114.66,151.44 60.35,151.39 6.05,151.38 C1.81,152.03 -1.21,146.73 1.46,143.39 C28.46,96.79 55.49,50.21 82.49,3.61 C82.95,2.74 83.56,1.99 84.31,1.36 L84.31,1.36 Z M87.16,16.44 C63.15,57.97 38.97,99.4 15.04,140.97 C63.19,140.96 111.34,141.02 159.49,140.93 C135.34,99.45 111.49,57.8 87.16,16.44 Z M112.33,107.46 C115.13,105.83 118.9,108.89 117.74,111.95 C117.09,114.63 113.23,115.59 111.39,113.53 C109.57,111.85 110.09,108.51 112.33,107.46 Z M85.93,78.87 C83.51,77.25 83.59,72.87 86.98,72.61 C90.69,72.21 91.4,77.18 88.6,78.93 C88.57,82.9 88.48,86.86 88.69,90.82 C91.55,90.73 94.41,90.72 97.27,90.69 C97.63,92.02 97.89,93.39 98.47,94.65 C99.3,95.44 100.53,95.85 101.05,96.93 C103.62,102.13 105.69,107.57 108.36,112.71 C110.1,114.3 112.27,115.31 114.24,116.58 C119.57,113.78 124.69,110.56 130.1,107.91 C131.82,107.11 133.3,109.53 132.15,110.91 C127.32,113.91 122.21,116.43 117.32,119.33 C116.03,120.17 114.56,120.63 113.05,120.84 C110.38,124.65 108.34,128.9 105.45,132.54 C99.37,133.58 93.01,132.18 86.88,133.33 C83.56,133.84 79.5,133.53 77.31,130.65 C76.15,129.46 75.43,127.85 74.15,126.79 C70.87,126.59 67.59,126.77 64.31,126.78 C62.18,131.78 56.33,134.85 51.05,133.15 C47.75,132.32 45.41,129.65 43.86,126.75 C42.3,126.74 40.74,126.74 39.17,126.75 C39.23,122.52 38.94,118.28 39.27,114.06 C43.55,106.16 48.2,98.44 52.76,90.69 C63.82,90.8 74.88,90.68 85.94,90.76 C86.06,86.79 85.97,82.83 85.93,78.87 Z M42.61,111.61 C39.72,115.46 41.33,120.49 40.94,124.92 C41.54,124.94 42.73,124.97 43.33,124.99 C43.22,122.23 43.34,119.32 44.98,116.98 C48.03,111.93 55.4,110.45 60.2,113.84 C63.9,116.18 65.39,120.74 64.9,124.95 C67.89,124.94 70.88,124.94 73.87,124.98 C73.5,120.49 75.22,115.58 79.4,113.4 C83.9,110.72 89.79,112.11 93.27,115.84 C94.88,115.68 96.89,114.39 98.19,115.91 C99.35,118.28 100.08,120.84 101.07,123.28 C101.67,122.45 102.28,121.61 102.88,120.78 C100.72,111.35 98.19,102.02 96.04,92.6 C81.95,92.39 67.87,92.61 53.78,92.48 C49.97,98.81 46.39,105.27 42.61,111.61 Z M101.37,107.09 C102.54,110.77 102.81,114.78 104.59,118.25 C104.85,117.68 105.38,116.56 105.64,115.99 C104.15,113.05 102.85,110.03 101.37,107.09 Z M51.19,114.28 C47.53,115.46 44.91,119.2 45.08,123.06 C45.1,128.1 50,132.4 55.01,131.76 C60.16,131.4 64.22,125.98 62.99,120.93 C62.02,115.8 56.1,112.39 51.19,114.28 Z M76.05,120.09 C74,125.79 79.05,132.3 85.05,131.86 C90.85,131.87 95.09,125.79 93.67,120.28 C90.76,120.98 87.9,121.92 84.95,122.48 C83.03,122.51 82.05,119.74 83.73,118.69 C86.13,117.69 88.71,117.28 91.2,116.59 C86.99,111.38 77.7,113.72 76.05,120.09 Z M94.83,126.78 C94.63,127.22 94.23,128.11 94.02,128.56 C95.35,128.57 96.68,128.59 98,128.61 C97.91,128.13 97.73,127.16 97.64,126.67 C96.7,126.71 95.77,126.74 94.83,126.78 Z M92.15,71.19 C94.55,70.16 95.07,73.28 95.33,74.97 C95.44,77.21 94.97,81.32 91.75,80.27 C93.26,77.3 92.31,74.2 92.15,71.19 Z M96.29,69.48 C98.2,67.46 99.36,70.37 99.79,71.98 C100.75,75.52 100.57,79.92 97.95,82.72 C97.55,82.46 96.74,81.95 96.34,81.7 C98.15,77.75 98.01,73.44 96.29,69.48 Z M100.81,66.72 C103.34,66.09 103.87,68.66 104.5,70.45 C105.85,75.12 105.56,80.63 102.67,84.66 C100.19,85.42 101.07,82.12 101.77,80.88 C103.97,76.22 101.93,71.32 100.81,66.72 Z" id="Shape" sketch:type="MSShapeGroup"></path>
        </g>
    </g>
</svg>