<?xml version="1.0" encoding="UTF-8" standalone="no"?>
<svg width="600px" height="524px" viewBox="0 0 600 524" version="1.1" xmlns="http://www.w3.org/2000/svg" xmlns:xlink="http://www.w3.org/1999/xlink" xmlns:sketch="http://www.bohemiancoding.com/sketch/ns">
    <!-- Generator: Sketch 3.0 (7574) - http://www.bohemiancoding.com/sketch -->
    <title>ISO_7010_W024</title>
    <description>Created with Sketch.</description>
    <defs></defs>
    <g id="Page-1" stroke="none" stroke-width="1" fill="none" fill-rule="evenodd" sketch:type="MSPage">
        <g id="ISO_7010_W024_Original" sketch:type="MSLayerGroup" fill="#000000">
            <path d="M597.6,499.6 L313.8,8 C310.9,3 305.6,0 299.9,0 C294.2,0 288.9,3.1 286,8 L2.2,499.6 C-0.7,504.6 -0.7,510.7 2.2,515.6 C5.1,520.6 10.4,523.6 16.1,523.6 L583.7,523.6 C589.4,523.6 594.7,520.5 597.6,515.6 C600.5,510.6 600.5,504.5 597.6,499.6 Z M44,491.52526 L300.005,50.0363265 L556.005,491.52526 L44,491.52526 Z M447,350 L447,420 L417,420 C412.114,427.1636 409.1228,435.129 387,435 L262,435 C252,435 252,420 262,420 L322,420 L322,415 L242,415 C232,415 232,395 242,395 L322,395 L322,391.6753 L227,391.6753 C214.59,389.9953 217,372.8353 227,372.9953 L322,372.9953 L322,368.5778 L237,368.5778 C227,368.1578 227,349.9978 237,349.9978 L322,349.9978 L322,344.9978 L297,344.9978 C286.664,342.9622 280.012,334.8798 282,325.9978 L382,325.9978 C397.458,325.62368 411.078,332.6631 417,349.9978 L447,350 Z M153,440 L278,440 L278,455 L153,455 L153,440 Z M153,330 L278,330 L278,345 L153,345 L153,330 Z M208,245 L228,245 L228,295 L243,295 L218,325 L193,295 L208,295 L208,245 Z" id="Shape" sketch:type="MSShapeGroup"></path>
        </g>
    </g>
</svg>