<?xml version="1.0" encoding="UTF-8" standalone="no"?>
<svg width="600px" height="524px" viewBox="0 0 600 524" version="1.1" xmlns="http://www.w3.org/2000/svg" xmlns:xlink="http://www.w3.org/1999/xlink" xmlns:sketch="http://www.bohemiancoding.com/sketch/ns">
    <!-- Generator: Sketch 3.0 (7574) - http://www.bohemiancoding.com/sketch -->
    <title>ISO_7010_W025</title>
    <description>Created with Sketch.</description>
    <defs></defs>
    <g id="Page-1" stroke="none" stroke-width="1" fill="none" fill-rule="evenodd" sketch:type="MSPage">
        <g id="ISO_7010_W025_Original" sketch:type="MSLayerGroup" fill="#000000">
            <path d="M597.6,499.6 L313.8,8 C310.9,3 305.6,0 299.9,0 C294.2,0 288.9,3.1 286,8 L2.2,499.6 C-0.7,504.6 -0.7,510.7 2.2,515.6 C5.1,520.6 10.4,523.6 16.1,523.6 L583.7,523.6 C589.4,523.6 594.7,520.5 597.6,515.6 C600.5,510.6 600.5,504.5 597.6,499.6 Z M44,491.52526 L300.005,50.0363265 L556.005,491.52526 L44,491.52526 Z M329.333648,183.955722 L331.056961,185.457876 L332.72283,187.031835 L334.302533,188.68047 L335.824792,190.406655 L337.232164,192.207517 L338.553371,194.083055 L339.817133,196.030398 L340.966008,198.017952 L342.028718,200.080183 L342.947818,202.182624 L343.809474,204.35687 L344.556243,206.568455 L345.216846,208.82025 L345.73384,211.106511 L346.19339,213.470322 L346.480608,215.83126 L346.65294,218.269747 L346.710383,220.708234 L346.65294,223.143849 L346.480608,225.544998 L346.19339,227.943275 L345.73384,230.269747 L345.216846,232.593347 L344.556243,234.845142 L343.809474,237.056726 L342.947818,239.230972 L342.028718,241.330541 L340.966008,243.392772 L339.817133,245.383198 L338.553371,247.330541 L337.232164,249.168741 L335.824792,251.006941 L334.302533,252.733126 L332.72283,254.381762 L331.056961,255.955721 L329.333648,257.457875 L327.552892,258.88248 L325.657248,260.195069 L323.761604,261.432982 L321.722351,262.593346 L319.71182,263.644567 L317.557679,264.618238 L315.43226,265.482767 L313.220676,266.232408 L310.922926,266.870033 L308.653898,267.392772 L306.327426,267.806367 L303.914788,268.107946 L301.530872,268.294638 L299.032069,268.369315 L296.619432,268.294638 L294.206794,268.107946 L291.794157,267.806367 L289.467685,267.392772 L287.141213,266.870033 L284.900906,266.232408 L282.692194,265.482767 L280.555286,264.618238 L278.418379,263.644567 L276.356148,262.593346 L274.368594,261.432982 L272.455717,260.195069 L270.580179,258.88248 L268.779317,257.457875 L267.056005,255.955721 L265.367158,254.381762 L263.7932,252.733126 L262.293918,251.006941 L260.869313,249.168741 L259.556723,247.330541 L258.31881,245.383198 L257.155574,243.392772 L256.104353,241.330541 L255.16802,239.230972 L254.306364,237.056726 L253.556723,234.845142 L252.919097,232.593347 L252.356149,230.269747 L251.942554,227.943275 L251.643846,225.544998 L251.454282,223.143849 L251.379605,220.708234 L251.454282,218.269747 L251.643846,215.83126 L251.942554,213.470322 L252.356149,211.106511 L252.919097,208.82025 L253.556723,206.568455 L254.306364,204.35687 L255.16802,202.182624 L256.104353,200.080183 L257.155574,198.017952 L258.31881,196.030398 L259.556723,194.083055 L260.869313,192.207517 L262.293918,190.406655 L263.7932,188.68047 L265.367158,187.031835 L267.056005,185.457876 L268.779317,183.955722 L270.580179,182.531117 L272.455717,181.181189 L274.368594,179.943276 L276.356148,178.82025 L278.418379,177.76903 L280.555286,176.795358 L282.692194,175.93083 L284.900906,175.181189 L287.141213,174.543563 L289.467685,174.017953 L291.794157,173.60723 L294.206794,173.268312 L296.619432,173.118958 L299.032069,173.044281 L301.530872,173.118958 L303.914788,173.268312 L306.327426,173.60723 L308.653898,174.017953 L310.922926,174.543563 L313.220676,175.181189 L315.43226,175.93083 L317.557679,176.795358 L319.71182,177.76903 L321.722351,178.82025 L323.761604,179.943276 L325.657248,181.181189 L327.552892,182.531117 L329.333648,183.955722 Z M299.037814,254.174964 C317.536841,254.174964 332.533265,239.173396 332.533265,220.668024 C332.533265,202.162651 317.536841,187.161083 299.037814,187.161083 C280.538786,187.161083 265.542362,202.162651 265.542362,220.668024 C265.542362,239.173396 280.538786,254.174964 299.037814,254.174964 Z M300.84442,432.721634 C341.279911,432.721634 374.059354,399.93319 374.059354,359.486595 C374.059354,319.039999 341.279911,286.251555 300.84442,286.251555 C260.408928,286.251555 227.629486,319.039999 227.629486,359.486595 C227.629486,399.93319 260.408928,432.721634 300.84442,432.721634 Z M288.521962,233.607749 C282.709813,228.30597 280.031507,222.302179 280.758239,216.891238 C281.554776,210.960565 285.968783,204.880371 292.821629,199.8103 L290.442571,196.5947 C275.357211,207.755589 271.636264,222.157551 283.884247,234.329747 L274.878959,231.420358 L273.649241,235.226642 L291.603241,241.027142 L295.197533,242.18837 L294.137769,238.562865 L288.889669,220.608865 L285.050331,221.731135 L288.521962,233.607749 Z M290.2351,239.468477 C290.291413,239.506325 290.347908,239.54414 290.404587,239.581921 L290.298431,239.685135 L290.2351,239.468477 Z M275.57937,324.398634 C242.243907,357.098938 246.232556,384.485813 282.905481,410.761336 L279.410959,415.638664 C240.069711,387.451332 235.461965,356.130775 270.434764,321.067684 L245.335063,330.040537 L243.404937,324.359463 L280.670937,311.698463 L286.159073,309.833887 L284.512388,315.391288 L273.045388,354.091288 L267.292612,352.386712 L275.57937,324.398634 L275.57937,324.398634 Z M355.183337,292.972474 L358.342743,295.672331 L361.35854,298.544518 L364.230728,301.589037 L366.959306,304.748444 L369.544275,308.022737 L371.985634,311.411919 L374.225941,314.944709 L376.322638,318.592388 L378.247003,322.326232 L379.999038,326.146241 L381.550019,330.081138 L382.928669,334.159645 L384.106266,338.266873 L385.08281,342.460267 L385.829579,346.711104 L386.375294,351.048108 L386.719957,355.442555 L386.834844,359.894445 L386.719957,364.375058 L386.375294,368.769505 L385.829579,373.106508 L385.08281,377.386068 L384.106266,381.579462 L382.928669,385.657968 L381.550019,389.707753 L379.999038,393.671372 L378.247003,397.491381 L376.322638,401.225225 L374.225941,404.872903 L371.985634,408.405694 L369.544275,411.794875 L366.959306,415.097891 L364.230728,418.257297 L361.35854,421.244373 L358.342743,424.145282 L355.183337,426.87386 L351.880321,429.458829 L348.49114,431.871467 L344.987071,434.169217 L341.339393,436.20847 L337.605549,438.161558 L333.728095,439.88487 L329.793198,441.464573 L325.772136,442.814501 L321.664908,444.02082 L317.471514,444.968642 L313.191954,445.744133 L308.854951,446.31857 L304.431782,446.634511 L300.008613,446.749398 L295.556722,446.634511 L291.133553,446.31857 L286.825272,445.744133 L282.54284,444.968642 L278.343702,444.02082 L274.219241,442.814501 L270.206795,441.464573 L266.269025,439.88487 L262.405933,438.161558 L258.654856,436.20847 L255.018666,434.169217 L251.531831,431.871467 L248.119672,429.458829 L244.816656,426.87386 L241.668739,424.145282 L238.667302,421.244373 L235.780754,418.257297 L233.043559,415.097891 L230.455718,411.794875 L228.054569,408.405694 L225.768308,404.872903 L223.668739,401.225225 L221.755862,397.491381 L220.029677,393.671372 L218.455718,389.707753 L217.10579,385.657968 L215.905216,381.579462 L214.931544,377.386068 L214.181903,373.106508 L213.618954,368.769505 L213.280036,364.375058 L213.168021,359.894445 L213.280036,355.442555 L213.618954,351.048108 L214.181903,346.711104 L214.931544,342.460267 L215.905216,338.266873 L217.10579,334.159645 L218.455718,330.081138 L220.029677,326.146241 L221.755862,322.326232 L223.668739,318.592388 L225.768308,314.944709 L228.054569,311.411919 L230.455718,308.022737 L233.043559,304.748444 L235.780754,301.589037 L238.667302,298.544518 L241.668739,295.672331 L244.816656,292.972474 L248.119672,290.387506 L251.531831,287.946146 L255.018666,285.694351 L258.654856,283.594782 L262.405933,281.681905 L266.269025,279.918382 L270.206795,278.381761 L274.219241,276.994495 L278.343702,275.831259 L282.54284,274.857587 L286.825272,274.070608 L291.133553,273.544997 L295.556722,273.206079 L300.008613,273.094064 L304.431782,273.206079 L308.854951,273.544997 L313.191954,274.070608 L317.471514,274.857587 L321.664908,275.831259 L325.772136,276.994495 L329.793198,278.381761 L333.728095,279.918382 L337.605549,281.681905 L341.339393,283.594782 L344.987071,285.694351 L348.49114,287.946146 L351.880321,290.387506 L355.183337,292.972474 Z" id="Shape" sketch:type="MSShapeGroup"></path>
        </g>
    </g>
</svg>