<?xml version="1.0" encoding="UTF-8" standalone="no"?>
<svg width="174px" height="151px" viewBox="0 0 174 151" version="1.1" xmlns="http://www.w3.org/2000/svg" xmlns:xlink="http://www.w3.org/1999/xlink" xmlns:sketch="http://www.bohemiancoding.com/sketch/ns">
    <!-- Generator: Sketch 3.0 (7574) - http://www.bohemiancoding.com/sketch -->
    <title>ISO 7010 W300 Original</title>
    <description>Created with Sketch.</description>
    <defs></defs>
    <g id="Page-1" stroke="none" stroke-width="1" fill="none" fill-rule="evenodd" sketch:type="MSPage">
        <g id="ISO011207_200-(1)" sketch:type="MSLayerGroup">
            <path d="M84.34,1.34 C86.27,-0.09 89.38,0.13 90.89,2.08 C92.24,3.88 93.26,5.91 94.4,7.85 C120.64,53.14 146.97,98.39 173.19,143.7 C175.43,146.78 172.9,151.61 169.06,151.35 C114.71,151.45 60.36,151.39 6.01,151.38 C3,151.72 0.08,149.07 0.47,145.99 C1.09,143.41 2.76,141.27 4,138.97 C30.2,93.83 56.36,48.67 82.54,3.53 C83.01,2.69 83.61,1.96 84.34,1.34 Z M87.23,16.38 C111.39,57.86 135.39,99.43 159.5,140.93 C111.33,141.06 63.16,140.89 15,141.01 C39.01,99.43 63.13,57.91 87.23,16.38 Z" id="Shape" fill="#000000" sketch:type="MSShapeGroup"></path>
            <path d="M88.13,52.25 C90.52,52.27 92.92,52.3 95.31,52.35 C95.28,58.13 95.29,63.92 95.29,69.7 C96.92,69.72 98.55,69.75 100.18,69.77 C97.38,72.96 94.53,76.11 91.61,79.19 C88.81,76.03 85.96,72.9 83.15,69.74 C84.8,69.73 86.45,69.72 88.1,69.71 C88.13,63.89 88.09,58.07 88.13,52.25 L88.13,52.25 Z" id="Shape" fill="#221E1F" sketch:type="MSShapeGroup"></path>
            <path d="M71.03,65.86 C74.6,65.87 78.18,65.87 81.76,65.88 C81.62,75.22 82.01,84.58 81.61,93.91 C80.22,96.11 78.1,97.72 76.28,99.55 C74.58,97.86 72.89,96.16 71.16,94.51 C73.4,91.81 75.73,88.74 75.45,85.02 C75.63,81.41 72.97,78.79 71.21,75.97 C70.72,72.63 70.98,69.23 71.03,65.86 Z M72.58,67.52 C75.08,67.48 77.58,67.48 80.08,67.45 C80.16,75.31 80.15,83.18 80.14,91.04 C80.55,93.75 78.02,95.37 76.58,97.27 C75.56,96.38 74.56,95.47 73.56,94.57 C75.64,91.43 77.63,87.86 77.02,83.94 C76.87,80.51 74.39,77.94 72.83,75.07 C72.47,72.57 72.6,70.04 72.58,67.52 Z" id="Shape" fill="#221E1F" sketch:type="MSShapeGroup"></path>
            <path d="M91.29,94.58 C96.83,85.32 102.42,76.1 108,66.88 C111.43,72.71 114.74,78.6 118.22,84.4 C113.56,91.32 108.43,97.91 103.79,104.84 C99.7,113.59 98.27,123.44 94.01,132.11 C91.35,131.37 89,128.96 89.36,126.05 C89.85,121.03 91.21,116.15 91.71,111.13 C88.79,110.31 85.86,109.55 82.94,108.73 C80.94,109.55 78.95,110.38 76.95,111.2 C74.58,110.34 72.22,109.44 69.88,108.51 C66.68,109.1 64.49,111.47 61.95,113.24 C57.92,114.44 55.34,110.16 52.93,107.72 C56.79,105.86 61.79,105.91 64.3,101.94 C68.38,101.4 72.58,101.61 76.59,100.65 C78.91,98.87 80.82,96.63 82.9,94.59 C85.7,94.58 88.49,94.6 91.29,94.58 L91.29,94.58 Z" id="Shape" fill="#221E1F" sketch:type="MSShapeGroup"></path>
            <path d="M58.14,81.22 C62.79,82.47 67.11,84.71 71.24,87.16 C71.05,89.43 70.79,91.7 70.5,93.96 C67.08,91.53 63.74,88.97 60,87.05 C57.9,86.1 57.01,83.2 58.14,81.22 L58.14,81.22 Z" id="Shape" fill="#221E1F" sketch:type="MSShapeGroup"></path>
            <path d="M56.15,95.87 C59.43,94.58 62.74,93.38 66.06,92.2 C69.32,94.45 72.37,97.01 75.1,99.89 C72.67,100.1 70.23,100.29 67.8,100.49 C66.88,99.85 65.95,99.22 65.03,98.58 C64.42,98.81 63.19,99.26 62.58,99.49 C61.67,102.02 59.93,106.33 56.5,104.84 C56.12,101.86 56.2,98.86 56.15,95.87 L56.15,95.87 Z" id="Shape" fill="#221E1F" sketch:type="MSShapeGroup"></path>
            <path d="M64.54,112.68 L68.02,112.68 C70.79,115.43 73.56,118.18 76.3,120.96 C79.14,118.17 81.95,115.35 84.82,112.6 C85.64,112.63 87.29,112.7 88.11,112.73 C88.11,119.68 88.15,126.63 88.06,133.59 C80.22,133.56 72.37,133.6 64.53,133.55 C64.55,126.59 64.53,119.63 64.54,112.68 Z M66.4,113.66 C69.87,116.73 73.08,120.08 76.42,123.29 C79.58,119.94 82.83,116.67 86.31,113.65 C86.61,119.74 86.44,125.84 86.46,131.94 C79.71,131.92 72.97,131.93 66.23,131.93 C66.28,125.84 66.08,119.74 66.4,113.66 Z" id="Shape" fill="#221E1F" sketch:type="MSShapeGroup"></path>
        </g>
    </g>
</svg>