<?xml version="1.0" encoding="UTF-8" ?>
<!DOCTYPE svg PUBLIC "-//W3C//DTD SVG 1.1//EN" "http://www.w3.org/Graphics/SVG/1.1/DTD/svg11.dtd">
<svg width="200pt" height="200pt" viewBox="0 0 200 200" version="1.1" xmlns="http://www.w3.org/2000/svg">
<g id="#ffffffff">
<path fill="#ffffff" opacity="1.00" d=" M 0.00 0.00 L 200.00 0.00 L 200.00 13.23 C 197.14 13.19 194.20 12.69 191.39 13.35 C 193.56 14.72 197.28 13.63 200.00 13.68 L 200.00 186.27 C 197.28 186.38 193.56 185.30 191.39 186.65 C 194.20 187.31 197.14 186.80 200.00 186.74 L 200.00 200.00 L 0.00 200.00 L 0.00 187.02 C 3.45 186.90 6.90 186.82 10.33 186.39 C 6.89 186.03 3.40 186.07 0.00 186.75 L 0.00 14.00 C 3.44 13.83 6.89 13.77 10.33 13.54 C 6.91 12.97 3.39 12.98 0.00 13.74 L 0.00 0.00 M 13.35 0.70 C 13.08 3.88 13.11 7.08 13.41 10.26 C 13.98 7.11 14.08 3.83 13.35 0.70 M 97.35 25.32 C 96.60 25.95 95.98 26.71 95.51 27.58 C 69.45 72.52 43.40 117.47 17.34 162.41 C 16.10 164.59 14.68 166.68 13.71 169.00 C 12.47 172.30 15.63 175.85 19.03 175.38 C 73.01 175.42 127.00 175.38 180.98 175.40 C 183.40 175.65 186.09 174.44 186.79 171.96 C 187.69 169.45 185.88 167.23 184.76 165.16 C 158.06 119.23 131.44 73.27 104.77 27.33 C 103.56 24.56 99.80 23.50 97.35 25.32 M 13.54 199.30 C 13.87 196.10 13.90 192.87 13.63 189.67 C 12.97 192.83 12.91 196.13 13.54 199.30 Z" />
</g>
<g id="#f3c836ff">
<path fill="#f3c836" opacity="1.00" d=" M 13.35 0.70 C 14.08 3.83 13.98 7.11 13.41 10.26 C 13.11 7.08 13.08 3.88 13.35 0.70 Z" />
<path fill="#f3c836" opacity="1.00" d=" M 0.00 13.74 C 3.39 12.98 6.91 12.97 10.33 13.54 C 6.89 13.77 3.44 13.83 0.00 14.00 L 0.00 13.74 Z" />
<path fill="#f3c836" opacity="1.00" d=" M 191.39 13.35 C 194.20 12.69 197.14 13.19 200.00 13.23 L 200.00 13.68 C 197.28 13.63 193.56 14.72 191.39 13.35 Z" />
<path fill="#f3c836" opacity="1.00" d=" M 100.21 40.39 C 124.41 81.89 148.46 123.47 172.52 165.05 C 124.35 164.87 76.18 165.06 28.01 164.98 C 52.01 123.41 76.14 81.92 100.21 40.39 M 77.62 94.27 C 77.26 94.74 76.56 95.69 76.20 96.17 C 81.22 98.23 85.83 101.64 88.40 106.52 C 91.51 111.67 91.38 117.86 90.66 123.62 C 91.58 123.27 93.43 122.56 94.35 122.20 C 96.16 126.40 94.03 131.08 91.69 134.63 C 90.79 136.54 88.59 135.83 86.95 135.77 C 85.87 142.68 82.57 149.65 76.53 153.50 C 72.37 155.60 67.26 155.49 62.90 154.10 C 56.94 151.24 53.60 144.92 51.75 138.84 C 51.14 139.84 50.53 140.83 49.95 141.84 C 52.38 147.90 56.19 154.21 62.56 156.68 C 67.47 158.01 73.08 158.12 77.70 155.76 C 83.65 152.11 87.26 145.63 88.98 139.02 C 94.45 138.04 96.42 131.91 97.46 127.18 C 98.38 124.11 97.15 120.42 93.67 119.89 C 94.77 109.05 88.16 97.63 77.62 94.27 M 121.29 104.24 C 111.55 118.27 111.78 138.28 121.04 152.52 C 121.56 152.44 122.59 152.29 123.11 152.21 C 122.41 149.15 120.40 146.62 119.40 143.67 C 114.82 131.93 115.87 118.19 122.20 107.29 C 123.11 106.23 123.35 103.69 121.29 104.24 M 103.02 110.80 C 104.40 111.87 106.45 113.59 104.22 115.46 C 105.02 115.51 106.62 115.61 107.42 115.66 C 108.04 121.73 109.92 128.96 106.21 134.34 C 107.20 128.34 107.63 122.21 106.23 116.22 C 102.96 117.99 104.09 122.06 103.50 125.08 C 102.86 133.14 96.89 139.32 94.98 146.97 C 94.03 150.87 96.68 154.24 98.19 157.60 C 101.89 157.59 105.59 157.61 109.28 157.47 C 108.42 154.75 107.05 151.98 107.54 149.05 C 108.61 140.41 110.86 131.81 110.14 123.05 C 109.45 119.19 108.62 115.30 106.92 111.73 C 106.62 110.36 106.81 108.36 104.95 108.19 C 103.88 108.66 103.58 109.89 103.02 110.80 M 127.17 108.50 C 119.84 120.01 119.53 135.66 126.61 147.34 C 127.62 148.34 128.38 148.18 128.89 146.86 C 127.95 144.23 126.49 141.82 125.68 139.14 C 122.69 130.05 123.80 119.86 128.32 111.47 C 129.37 110.21 128.41 109.07 127.17 108.50 M 133.03 143.61 C 133.45 143.30 134.29 142.70 134.71 142.40 C 132.75 136.84 130.61 131.07 131.65 125.06 C 131.78 121.24 134.00 117.96 134.67 114.32 C 134.25 114.13 133.40 113.77 132.98 113.59 C 127.34 122.49 127.67 134.62 133.03 143.61 Z" />
<path fill="#f3c836" opacity="1.00" d=" M 0.00 186.75 C 3.40 186.07 6.89 186.03 10.33 186.39 C 6.90 186.82 3.45 186.90 0.00 187.02 L 0.00 186.75 Z" />
<path fill="#f3c836" opacity="1.00" d=" M 191.39 186.65 C 193.56 185.30 197.28 186.38 200.00 186.27 L 200.00 186.74 C 197.14 186.80 194.20 187.31 191.39 186.65 Z" />
<path fill="#f3c836" opacity="1.00" d=" M 13.54 199.30 C 12.91 196.13 12.97 192.83 13.63 189.67 C 13.90 192.87 13.87 196.10 13.54 199.30 Z" />
</g>
<g id="#000000ff">
<path fill="#000000" opacity="1.00" d=" M 97.35 25.32 C 99.80 23.50 103.56 24.56 104.77 27.33 C 131.44 73.27 158.06 119.23 184.76 165.16 C 185.88 167.23 187.69 169.45 186.79 171.96 C 186.09 174.44 183.40 175.65 180.98 175.40 C 127.00 175.38 73.01 175.42 19.03 175.38 C 15.63 175.85 12.47 172.30 13.71 169.00 C 14.68 166.68 16.10 164.59 17.34 162.41 C 43.40 117.47 69.45 72.52 95.51 27.58 C 95.98 26.71 96.60 25.95 97.35 25.32 M 100.21 40.39 C 76.14 81.92 52.01 123.41 28.01 164.98 C 76.18 165.06 124.35 164.87 172.52 165.05 C 148.46 123.47 124.41 81.89 100.21 40.39 Z" />
<path fill="#000000" opacity="1.00" d=" M 77.62 94.27 C 88.16 97.63 94.77 109.05 93.67 119.89 C 97.15 120.42 98.38 124.11 97.46 127.18 C 96.42 131.91 94.45 138.04 88.98 139.02 C 87.26 145.63 83.65 152.11 77.70 155.76 C 73.08 158.12 67.47 158.01 62.56 156.68 C 56.19 154.21 52.38 147.90 49.95 141.84 C 50.53 140.83 51.14 139.84 51.75 138.84 C 53.60 144.92 56.94 151.24 62.90 154.10 C 67.26 155.49 72.37 155.60 76.53 153.50 C 82.57 149.65 85.87 142.68 86.95 135.77 C 88.59 135.83 90.79 136.54 91.69 134.63 C 94.03 131.08 96.16 126.40 94.35 122.20 C 93.43 122.56 91.58 123.27 90.66 123.62 C 91.38 117.86 91.51 111.67 88.40 106.52 C 85.83 101.64 81.22 98.23 76.20 96.17 C 76.56 95.69 77.26 94.74 77.62 94.27 Z" />
<path fill="#000000" opacity="1.00" d=" M 121.29 104.24 C 123.35 103.69 123.11 106.23 122.20 107.29 C 115.87 118.19 114.82 131.93 119.40 143.67 C 120.40 146.62 122.41 149.15 123.11 152.21 C 122.59 152.29 121.56 152.44 121.04 152.52 C 111.78 138.28 111.55 118.27 121.29 104.24 Z" />
<path fill="#000000" opacity="1.00" d=" M 103.02 110.80 C 103.58 109.89 103.88 108.66 104.95 108.19 C 106.81 108.36 106.62 110.36 106.92 111.73 C 108.62 115.30 109.45 119.19 110.14 123.05 C 110.86 131.81 108.61 140.41 107.54 149.05 C 107.05 151.98 108.42 154.75 109.28 157.47 C 105.59 157.61 101.89 157.59 98.19 157.60 C 96.68 154.24 94.03 150.87 94.98 146.97 C 96.89 139.32 102.86 133.14 103.50 125.08 C 104.09 122.06 102.96 117.99 106.23 116.22 C 107.63 122.21 107.20 128.34 106.21 134.34 C 109.92 128.96 108.04 121.73 107.42 115.66 C 106.62 115.61 105.02 115.51 104.22 115.46 C 106.45 113.59 104.40 111.87 103.02 110.80 Z" />
<path fill="#000000" opacity="1.00" d=" M 127.17 108.50 C 128.41 109.07 129.37 110.21 128.32 111.47 C 123.80 119.86 122.69 130.05 125.68 139.14 C 126.49 141.82 127.95 144.23 128.89 146.86 C 128.38 148.18 127.62 148.34 126.61 147.34 C 119.53 135.66 119.84 120.01 127.17 108.50 Z" />
<path fill="#000000" opacity="1.00" d=" M 133.03 143.61 C 127.67 134.62 127.34 122.49 132.98 113.59 C 133.40 113.77 134.25 114.13 134.67 114.32 C 134.00 117.96 131.78 121.24 131.65 125.06 C 130.61 131.07 132.75 136.84 134.71 142.40 C 134.29 142.70 133.45 143.30 133.03 143.61 Z" />
</g>
</svg>
