<?xml version="1.0" encoding="UTF-8" standalone="no"?>
<svg width="174px" height="151px" viewBox="0 0 174 151" version="1.1" xmlns="http://www.w3.org/2000/svg" xmlns:xlink="http://www.w3.org/1999/xlink" xmlns:sketch="http://www.bohemiancoding.com/sketch/ns">
    <!-- Generator: Sketch 3.0 (7574) - http://www.bohemiancoding.com/sketch -->
    <title>ISO_7010_W038</title>
    <description>Created with Sketch.</description>
    <defs></defs>
    <g id="Page-1" stroke="none" stroke-width="1" fill="none" fill-rule="evenodd" sketch:type="MSPage">
        <g id="ISO_7010_W038_Original" sketch:type="MSLayerGroup" fill="#000000">
            <path d="M84.35,1.32 C86.8,-0.5 90.56,0.56 91.77,3.33 C118.44,49.27 145.06,95.23 171.76,141.16 C172.88,143.23 174.69,145.45 173.79,147.96 C173.09,150.44 170.4,151.65 167.98,151.4 C114,151.38 60.01,151.42 6.03,151.38 C2.63,151.85 -0.53,148.3 0.71,145 C1.68,142.68 3.1,140.59 4.34,138.41 C30.4,93.47 56.45,48.52 82.51,3.58 C82.98,2.71 83.6,1.95 84.35,1.32 L84.35,1.32 Z M87.21,16.39 C63.14,57.92 39.01,99.41 15.01,140.98 C63.18,141.06 111.35,140.87 159.52,141.05 C135.46,99.47 111.41,57.89 87.21,16.39 Z M120.03,119.61 C114.67,110.62 114.34,98.49 119.98,89.59 C120.4,89.77 121.25,90.13 121.67,90.32 C121,93.96 118.78,97.24 118.65,101.06 C117.61,107.07 119.75,112.84 121.71,118.4 C121.29,118.7 120.45,119.3 120.03,119.61 Z M114.17,84.5 C115.41,85.07 116.37,86.21 115.32,87.47 C110.8,95.86 109.69,106.05 112.68,115.14 C113.49,117.82 114.95,120.23 115.89,122.86 C115.38,124.18 114.62,124.34 113.61,123.34 C106.53,111.66 106.84,96.01 114.17,84.5 Z M90.02,86.8 C90.58,85.89 90.88,84.66 91.95,84.19 C93.81,84.36 93.62,86.36 93.92,87.73 C95.62,91.3 96.45,95.19 97.14,99.05 C97.86,107.81 95.61,116.41 94.54,125.05 C94.05,127.98 95.42,130.75 96.28,133.47 C92.59,133.61 88.89,133.59 85.19,133.6 C83.68,130.24 81.03,126.87 81.98,122.97 C83.89,115.32 89.86,109.14 90.5,101.08 C91.09,98.06 89.96,93.99 93.23,92.22 C94.63,98.21 94.2,104.34 93.21,110.34 C96.92,104.96 95.04,97.73 94.42,91.66 C93.62,91.61 92.02,91.51 91.22,91.46 C93.45,89.59 91.4,87.87 90.02,86.8 Z M108.29,80.24 C110.35,79.69 110.11,82.23 109.2,83.29 C102.87,94.19 101.82,107.93 106.4,119.67 C107.4,122.62 109.41,125.15 110.11,128.21 C109.59,128.29 108.56,128.44 108.04,128.52 C98.78,114.28 98.55,94.27 108.29,80.24 Z M64.62,70.27 C75.16,73.63 81.77,85.05 80.67,95.89 C84.15,96.42 85.38,100.11 84.46,103.18 C83.42,107.91 81.45,114.04 75.98,115.02 C74.26,121.63 70.65,128.11 64.7,131.76 C60.08,134.12 54.47,134.01 49.56,132.68 C43.19,130.21 39.38,123.9 36.95,117.84 C37.53,116.83 38.14,115.84 38.75,114.84 C40.6,120.92 43.94,127.24 49.9,130.1 C54.26,131.49 59.37,131.6 63.53,129.5 C69.57,125.65 72.87,118.68 73.95,111.77 C75.59,111.83 77.79,112.54 78.69,110.63 C81.03,107.08 83.16,102.4 81.35,98.2 C80.43,98.56 78.58,99.27 77.66,99.62 C78.38,93.86 78.51,87.67 75.4,82.52 C72.83,77.64 68.22,74.23 63.2,72.17 C63.56,71.69 64.26,70.74 64.62,70.27 Z" id="Shape" sketch:type="MSShapeGroup"></path>
        </g>
    </g>
</svg>