<?xml version="1.0" encoding="UTF-8" standalone="no"?>
<svg width="600px" height="524px" viewBox="0 0 600 524" version="1.1" xmlns="http://www.w3.org/2000/svg" xmlns:xlink="http://www.w3.org/1999/xlink" xmlns:sketch="http://www.bohemiancoding.com/sketch/ns">
    <!-- Generator: Sketch 3.0 (7574) - http://www.bohemiancoding.com/sketch -->
    <title>ISO_7010_W011</title>
    <description>Created with Sketch.</description>
    <defs></defs>
    <g id="Page-1" stroke="none" stroke-width="1" fill="none" fill-rule="evenodd" sketch:type="MSPage">
        <g id="ISO_7010_W011_Original" sketch:type="MSLayerGroup" fill="#000000">
            <path d="M597.6,499.6 L313.8,8 C310.9,3 305.6,0 299.9,0 C294.2,0 288.9,3.1 286,8 L2.2,499.6 C-0.7,504.6 -0.7,510.7 2.2,515.6 C5.1,520.6 10.4,523.6 16.1,523.6 L583.7,523.6 C589.4,523.6 594.7,520.5 597.6,515.6 C600.5,510.6 600.5,504.5 597.6,499.6 Z M44,491.52526 L300.005,50.0363265 L556.005,491.52526 L44,491.52526 Z M115,460 L115,440 L485,440 L485,460 L115,460 Z M179.89,433.9 C170.347,428.3417 174.5191,420.672 196.634,403.12 C208.529,393.6789 225.797,382.352 235.006,377.948 L251.75,369.9418 L227.486,369.9398 C205.696,369.9378 201.036,370.93357 181.789,379.705 C157.274,390.877 151.247,391.642 147.207,384.0932 C142.1875,374.7142 147.2288,369.6942 174.274,357.1422 L200.637,344.9062 L229.271,346.6582 C247.815,347.7929 258.532,347.39542 259.684,345.5302 C260.66293,343.9463 265.8098,332.4972 271.121,320.0872 L280.7785,297.5242 L265.5865,286.9872 C251.7795,277.4108 249.6185,274.4282 241.8805,254.2662 C231.5365,227.3142 231.7985,220.6362 243.198,220.6362 C250.8207,220.6362 251.9871,222.1416 259.942,242.2482 C267.9014,262.3652 269.7473,264.7462 286.632,276.6712 C303.969,288.9162 305.45,289.4222 320.12,288.1162 C345.907,285.821 349.463,283.3388 356.27,262.8862 C359.584,252.9277 364.0481,243.3252 366.1903,241.5472 C372.1086,236.6354 381.5163,240.84128 381.5163,248.3991 C381.5163,255.4494 368.7593,291.1781 364.3403,296.5041 C362.8298,298.3247 353.1643,301.9857 342.8623,304.6397 L324.1303,309.4651 L310.2653,341.7951 L296.4003,374.1251 L262.8233,390.8691 C244.3553,400.0784 220.5383,414.2061 209.8953,422.2641 C189.4763,437.7241 187.6613,438.4281 179.8893,433.9011 L179.89,433.9 Z M302.14,280.02 C298.2927,274.717 297.3324,267.175 300.6532,261.376 C303.0927,256.7956 307.0985,253.0492 311.8082,250.887 C317.8623,248.5441 325.3412,250.4779 329.2892,255.6944 C333.7413,260.6665 336.6867,267.6584 335.0531,274.3644 C333.585,280.022 328.2955,284.1097 322.6391,284.9924 C317.1936,286.2512 311.0581,286.7185 306.0351,283.8115 C304.4749,282.86003 303.1329,281.5535 302.1395,280.0197 L302.14,280.02 Z" id="Shape" sketch:type="MSShapeGroup"></path>
        </g>
    </g>
</svg>