<?xml version="1.0" encoding="UTF-8" ?>
<!DOCTYPE svg PUBLIC "-//W3C//DTD SVG 1.1//EN" "http://www.w3.org/Graphics/SVG/1.1/DTD/svg11.dtd">
<svg width="200pt" height="200pt" viewBox="0 0 200 200" version="1.1" xmlns="http://www.w3.org/2000/svg">
<g id="#ffffffff">
</g>
<g id="#f4c91bff">
<path fill="#f4c91b" opacity="1.00" d=" M 191.39 13.36 C 194.21 12.74 197.14 13.21 200.00 13.23 L 200.00 13.68 C 197.27 13.62 193.61 14.64 191.39 13.36 Z" />
<path fill="#f4c91b" opacity="1.00" d=" M 100.22 40.35 C 124.37 81.85 148.39 123.42 172.50 164.93 C 124.33 164.99 76.16 165.01 27.99 164.92 C 52.08 123.41 76.15 81.87 100.22 40.35 M 77.49 93.96 C 79.45 94.04 81.41 94.05 83.37 94.06 C 83.31 107.40 83.51 120.76 83.28 134.09 C 82.03 136.51 79.51 138.10 77.71 140.14 C 76.22 138.67 74.73 137.19 73.23 135.72 C 75.92 132.68 78.04 129.02 78.47 124.93 C 79.37 118.83 76.71 112.67 72.20 108.61 C 72.15 106.94 72.10 105.27 72.05 103.60 C 70.87 105.38 69.94 107.35 70.16 109.55 C 75.00 113.36 77.72 119.85 76.29 125.95 C 75.61 129.82 73.13 132.97 70.44 135.69 C 72.86 138.13 75.27 140.57 77.71 142.98 C 80.25 140.40 82.80 137.85 85.33 135.27 C 85.29 120.89 85.33 106.51 85.31 92.12 C 82.71 92.47 78.90 90.90 77.49 93.96 M 86.24 112.47 C 87.72 111.76 89.63 111.14 89.61 109.16 C 90.15 105.56 92.00 101.93 95.46 100.37 C 98.31 99.94 101.17 100.79 103.99 101.16 C 104.39 103.29 104.76 105.60 103.60 107.57 C 101.87 111.68 95.11 112.25 95.97 117.63 C 101.05 115.99 105.32 112.72 109.55 109.59 C 108.45 108.51 107.36 107.44 106.27 106.37 C 107.75 104.89 109.22 103.40 110.66 101.89 C 112.15 103.25 113.50 104.79 115.17 105.93 C 123.02 110.22 130.34 115.41 137.93 120.13 C 134.09 113.60 130.49 106.90 126.44 100.50 C 123.16 98.49 119.69 96.43 115.88 95.65 C 108.97 95.10 101.96 94.33 95.07 95.37 C 88.89 98.47 85.28 105.62 86.24 112.47 M 92.11 104.20 C 90.21 106.80 90.98 110.70 88.13 112.71 C 88.24 113.26 88.44 114.35 88.54 114.90 C 89.58 114.29 90.59 113.65 91.62 113.05 C 91.89 113.61 92.42 114.73 92.68 115.29 C 93.45 114.38 94.22 113.47 94.99 112.56 C 97.06 113.18 98.48 111.47 99.86 110.25 C 99.02 109.90 97.34 109.20 96.50 108.85 C 96.77 107.63 97.05 106.42 97.33 105.21 C 98.27 104.53 99.22 103.85 100.16 103.18 C 101.12 103.32 103.02 103.59 103.97 103.73 C 103.60 100.78 100.16 101.47 98.06 100.98 C 95.55 100.33 93.43 102.30 92.11 104.20 M 107.27 106.45 C 108.93 108.00 110.53 109.61 112.04 111.30 C 100.52 122.60 89.16 134.05 77.71 145.42 C 71.84 139.64 66.05 133.80 60.19 128.01 C 59.20 129.02 58.22 130.02 57.24 131.03 C 64.06 138.02 70.89 145.01 77.73 151.99 C 91.46 138.33 105.25 124.71 118.98 111.05 C 116.25 108.31 113.51 105.57 110.76 102.85 C 109.57 104.02 108.43 105.25 107.27 106.45 M 107.31 126.58 C 107.56 131.14 107.81 135.69 108.00 140.25 C 109.27 139.02 110.54 137.79 111.82 136.58 C 115.70 140.63 118.97 145.29 121.00 150.55 C 123.42 149.73 125.82 148.85 128.19 147.91 C 125.87 141.55 121.90 135.95 117.23 131.11 C 118.49 129.83 119.76 128.56 121.03 127.29 C 116.46 127.03 111.89 126.80 107.31 126.58 M 59.69 142.45 C 59.71 147.47 59.70 152.50 59.70 157.52 C 60.18 157.55 61.14 157.61 61.62 157.63 C 61.66 153.21 61.64 148.78 61.64 144.36 C 63.24 144.50 65.21 143.99 66.32 145.50 C 70.11 149.29 73.89 153.10 77.71 156.87 C 81.87 152.72 86.05 148.58 90.19 144.42 C 91.38 144.42 92.57 144.41 93.76 144.42 C 93.84 148.69 93.57 152.98 93.87 157.25 L 95.50 158.01 C 95.90 152.82 95.62 147.61 95.70 142.42 C 93.59 142.42 91.49 142.42 89.39 142.42 C 85.49 146.29 81.60 150.17 77.71 154.04 C 73.80 150.32 70.17 146.29 66.15 142.69 C 64.07 142.08 61.83 142.50 59.69 142.45 Z" />
<path fill="#f4c91b" opacity="1.00" d=" M 191.40 186.64 C 193.60 185.36 197.27 186.38 200.00 186.28 L 200.00 186.73 C 197.14 186.79 194.21 187.26 191.40 186.64 Z" />
<path fill="#f4c91b" opacity="1.00" d=" M 13.39 199.30 C 13.18 196.07 12.99 192.79 13.61 189.59 C 13.78 192.82 14.05 196.10 13.39 199.30 Z" />
</g>
<g id="#000000ff">
<path fill="#000000" opacity="1.00" d=" M 97.33 25.34 C 99.30 23.90 102.44 24.15 103.95 26.13 C 105.11 27.69 105.99 29.44 106.97 31.12 C 133.36 76.65 159.82 122.15 186.19 167.69 C 188.45 170.78 185.88 175.61 182.04 175.35 C 127.69 175.44 73.34 175.39 18.99 175.38 C 16.02 175.71 13.11 173.11 13.48 170.07 C 13.89 167.68 15.51 165.74 16.62 163.63 C 42.94 118.26 69.25 72.87 95.56 27.49 C 96.02 26.66 96.61 25.94 97.33 25.34 M 100.22 40.35 C 76.15 81.87 52.08 123.41 27.99 164.92 C 76.16 165.01 124.33 164.99 172.50 164.93 C 148.39 123.42 124.37 81.85 100.22 40.35 Z" />
<path fill="#000000" opacity="1.00" d=" M 77.49 93.96 C 78.90 90.90 82.71 92.47 85.31 92.12 C 85.33 106.51 85.29 120.89 85.33 135.27 C 82.80 137.85 80.25 140.40 77.71 142.98 C 75.27 140.57 72.86 138.13 70.44 135.69 C 73.13 132.97 75.61 129.82 76.29 125.95 C 77.72 119.85 75.00 113.36 70.16 109.55 C 69.94 107.35 70.87 105.38 72.05 103.60 C 72.10 105.27 72.15 106.94 72.20 108.61 C 76.71 112.67 79.37 118.83 78.47 124.93 C 78.04 129.02 75.92 132.68 73.23 135.72 C 74.73 137.19 76.22 138.67 77.71 140.14 C 79.51 138.10 82.03 136.51 83.28 134.09 C 83.51 120.76 83.31 107.40 83.37 94.06 C 81.41 94.05 79.45 94.04 77.49 93.96 Z" />
<path fill="#000000" opacity="1.00" d=" M 86.24 112.47 C 85.28 105.62 88.89 98.47 95.07 95.37 C 101.96 94.33 108.97 95.10 115.88 95.65 C 119.69 96.43 123.16 98.49 126.44 100.50 C 130.49 106.90 134.09 113.60 137.93 120.13 C 130.34 115.41 123.02 110.22 115.17 105.93 C 113.50 104.79 112.15 103.25 110.66 101.89 C 109.22 103.40 107.75 104.89 106.27 106.37 C 107.36 107.44 108.45 108.51 109.55 109.59 C 105.32 112.72 101.05 115.99 95.97 117.63 C 95.11 112.25 101.87 111.68 103.60 107.57 C 104.76 105.60 104.39 103.29 103.99 101.16 C 101.17 100.79 98.31 99.94 95.46 100.37 C 92.00 101.93 90.15 105.56 89.61 109.16 C 89.63 111.14 87.72 111.76 86.24 112.47 Z" />
<path fill="#000000" opacity="1.00" d=" M 92.11 104.20 C 93.43 102.30 95.55 100.33 98.06 100.98 C 100.16 101.47 103.60 100.78 103.97 103.73 C 103.02 103.59 101.12 103.32 100.16 103.18 C 99.22 103.85 98.27 104.53 97.33 105.21 C 97.05 106.42 96.77 107.63 96.50 108.85 C 97.34 109.20 99.02 109.90 99.86 110.25 C 98.48 111.47 97.06 113.18 94.99 112.56 C 94.22 113.47 93.45 114.38 92.68 115.29 C 92.42 114.73 91.89 113.61 91.62 113.05 C 90.59 113.65 89.58 114.29 88.54 114.90 C 88.44 114.35 88.24 113.26 88.13 112.71 C 90.98 110.70 90.21 106.80 92.11 104.20 Z" />
<path fill="#000000" opacity="1.00" d=" M 107.27 106.45 C 108.43 105.25 109.57 104.02 110.76 102.85 C 113.51 105.57 116.25 108.31 118.98 111.05 C 105.25 124.71 91.46 138.33 77.73 151.99 C 70.89 145.01 64.06 138.02 57.24 131.03 C 58.22 130.02 59.20 129.02 60.19 128.01 C 66.05 133.80 71.84 139.64 77.71 145.42 C 89.16 134.05 100.52 122.60 112.04 111.30 C 110.53 109.61 108.93 108.00 107.27 106.45 Z" />
<path fill="#000000" opacity="1.00" d=" M 107.31 126.58 C 111.89 126.80 116.46 127.03 121.03 127.29 C 119.76 128.56 118.49 129.83 117.23 131.11 C 121.90 135.95 125.87 141.55 128.19 147.91 C 125.82 148.85 123.42 149.73 121.00 150.55 C 118.97 145.29 115.70 140.63 111.82 136.58 C 110.54 137.79 109.27 139.02 108.00 140.25 C 107.81 135.69 107.56 131.14 107.31 126.58 Z" />
<path fill="#000000" opacity="1.00" d=" M 59.69 142.45 C 61.83 142.50 64.07 142.08 66.15 142.69 C 70.17 146.29 73.80 150.32 77.71 154.04 C 81.60 150.17 85.49 146.29 89.39 142.42 C 91.49 142.42 93.59 142.42 95.70 142.42 C 95.62 147.61 95.90 152.82 95.50 158.01 L 93.87 157.25 C 93.57 152.98 93.84 148.69 93.76 144.42 C 92.57 144.41 91.38 144.42 90.19 144.42 C 86.05 148.58 81.87 152.72 77.71 156.87 C 73.89 153.10 70.11 149.29 66.32 145.50 C 65.21 143.99 63.24 144.50 61.64 144.36 C 61.64 148.78 61.66 153.21 61.62 157.63 C 61.14 157.61 60.18 157.55 59.70 157.52 C 59.70 152.50 59.71 147.47 59.69 142.45 Z" />
</g>
</svg>
