<?xml version="1.0" encoding="UTF-8" standalone="no"?>
<svg width="600px" height="524px" viewBox="0 0 600 524" version="1.1" xmlns="http://www.w3.org/2000/svg" xmlns:xlink="http://www.w3.org/1999/xlink" xmlns:sketch="http://www.bohemiancoding.com/sketch/ns">
    <!-- Generator: Sketch 3.0 (7574) - http://www.bohemiancoding.com/sketch -->
    <title>ISO_7010_W015</title>
    <description>Created with Sketch.</description>
    <defs></defs>
    <g id="Page-1" stroke="none" stroke-width="1" fill="none" fill-rule="evenodd" sketch:type="MSPage">
        <g id="ISO_7010_W015_Original" sketch:type="MSLayerGroup" fill="#000000">
            <path d="M597.6,499.6 L313.8,8 C310.9,3 305.6,0 299.9,0 C294.2,0 288.9,3.1 286,8 L2.2,499.6 C-0.7,504.6 -0.7,510.7 2.2,515.6 C5.1,520.6 10.4,523.6 16.1,523.6 L583.7,523.6 C589.4,523.6 594.7,520.5 597.6,515.6 C600.5,510.6 600.5,504.5 597.6,499.6 Z M300,50.0363265 L556,491.52526 L44,491.52526 L300,50.0363265 Z M300.42187,118.40625 C295.00731,118.40625 290.64062,122.77294 290.64062,128.1875 C290.64062,131.48361 292.27136,134.37888 294.76562,136.15625 L294.76562,146.875 C290.88934,148.99808 288.26562,153.11241 288.26562,157.84375 C288.26562,162.57509 290.88934,166.68942 294.76562,168.8125 L294.76562,184.34375 C294.76562,188.64445 304.78971,199.63156 303.76562,204.34375 C300.76562,214.34375 290.75544,209.3346 288.29687,200.75 C287.77949,200.05709 287.1908,196.02487 286.76562,196.34375 C282.76562,199.34375 281.45133,209.28486 283.76562,215.34375 C284.42759,217.07678 286.76562,221.34375 289.76562,223.34375 C288.60983,229.69512 277.54221,244.0627 261.35937,273.15625 L235.29687,320 L188.76562,337.34375 L188.76562,391.34375 L210.76562,403.34375 L211.76562,406.34375 L216.76562,409.34375 L255.89062,397.03125 L295.76562,382.34375 L295.76562,322.34375 L302.76562,328.34375 L303.76562,226.34375 L358.76562,367.34375 L302.76562,328.34375 L302.76562,385.34375 C275.9322,393.68063 249.87626,404.03692 223.76562,414.34375 L228.76562,417.34375 L233.76562,416.34375 L278.76562,441.34375 L278.76562,445.34375 L283.76562,447.34375 L359.39062,421.4375 L359.76562,368.34375 L365.76562,371.34375 L365.20312,399.46875 L365.20312,425 L290,450 C289.64389,451.17523 292.80982,453.11569 295.76562,454.34375 C297.09571,454.89638 300.40528,453.61255 301.76562,454.34375 C307.08846,457.20487 313.96852,462.12346 314.76562,462.34375 C315.56272,462.5639 331.75457,457.34728 352.85937,449.75 L391.23437,435.9375 L391.20317,412.75 L391.17197,389.5625 L365.76562,371.34375 L330.39062,281.4375 C314.98401,242.33199 309.56559,230.52665 310.76562,225.34375 C311.13384,223.7534 317.60912,218.62167 318.76562,217.34375 C324.06286,206.48794 321.10811,198.02689 313.76562,192.34375 C312.0083,190.98357 305.56286,186.97982 305.76562,184.34375 L305.76562,169.3125 C310.18401,167.38475 313.26562,162.97237 313.26562,157.84375 C313.26562,152.71513 310.18401,148.30275 305.76562,146.375 L305.76562,136.40625 C308.45776,134.65863 310.23437,131.63623 310.23437,128.1875 C310.23437,122.77294 305.83643,118.40625 300.42187,118.40625 Z M294.76562,226.34375 C295.39451,226.34375 296.12279,249.55981 295.64062,275.0625 L295.76562,322.34375 L272.82812,306.84375 L258.07812,312.4375 L243.32812,318.03125 L251.70312,303.0625 C256.30959,294.83183 267.55314,274.74683 276.70312,258.40625 C285.85311,242.06567 294.13669,226.34375 294.76562,226.34375 Z" id="sign_border" sketch:type="MSShapeGroup"></path>
        </g>
    </g>
</svg>