<?xml version="1.0" encoding="UTF-8" standalone="no"?>
<svg width="600px" height="524px" viewBox="0 0 600 524" version="1.1" xmlns="http://www.w3.org/2000/svg" xmlns:xlink="http://www.w3.org/1999/xlink" xmlns:sketch="http://www.bohemiancoding.com/sketch/ns">
    <!-- Generator: Sketch 3.0 (7574) - http://www.bohemiancoding.com/sketch -->
    <title>ISO_7010_W017</title>
    <description>Created with Sketch.</description>
    <defs></defs>
    <g id="Page-1" stroke="none" stroke-width="1" fill="none" fill-rule="evenodd" sketch:type="MSPage">
        <g id="ISO_7010_W017_Original" sketch:type="MSLayerGroup" fill="#000000">
            <path d="M597.6,499.6 L313.8,8 C310.9,3 305.6,0 299.9,0 C294.2,0 288.9,3.1 286,8 L2.2,499.6 C-0.7,504.6 -0.7,510.7 2.2,515.6 C5.1,520.6 10.4,523.6 16.1,523.6 L583.7,523.6 C589.4,523.6 594.7,520.5 597.6,515.6 C600.5,510.6 600.5,504.5 597.6,499.6 Z M44,491.52526 L300.005,50.0363265 L556.005,491.52526 L44,491.52526 Z M175,437 L175,462 L425,462 L425,437 L175,437 Z M266.035875,362.19798 C264.95512,354.487919 262.567167,346.963986 258.892917,338.924544 C256.191737,333.014224 253.69669,328.452371 247.984493,318.576105 C247.821992,318.295146 247.821992,318.295146 247.659716,318.014554 C237.136834,299.818494 233.281362,291.291809 231.855508,280.367157 C230.018839,266.294909 234.210072,251.793307 246.500074,234.663586 L233.499926,225.336414 C218.949047,245.617328 213.599945,264.125141 215.990069,282.437868 C216.995399,290.140538 219.327343,297.659951 222.954251,305.681147 C225.637436,311.615225 228.232736,316.381984 233.809042,326.024475 C233.971739,326.305795 233.971739,326.305795 234.134243,326.586759 C244.825793,345.072219 248.652554,353.445365 250.190787,364.419059 C252.178755,378.601148 248.169461,393.192434 236.124251,410.415008 L249.235749,419.584992 C263.502139,399.186513 268.613291,380.585166 266.035875,362.19798 Z M388.591698,362.19902 C387.583122,354.475506 385.28103,346.930366 381.710949,338.862032 C379.085302,332.928106 376.653114,328.346394 371.079427,318.424009 C370.918892,318.138224 370.918892,318.138224 370.758582,317.852816 C360.490004,299.570152 356.740407,291.001244 355.414095,280.027155 C353.70421,265.879322 357.973923,251.322859 370.279693,234.174117 L357.280307,224.845883 C342.741212,245.106879 337.313616,263.610846 339.529685,281.94692 C340.462268,289.663246 342.707932,297.20415 346.230462,305.254143 C348.837907,311.212904 351.370047,316.005445 356.808349,325.688056 C356.969081,325.974217 356.969081,325.974217 357.129622,326.260012 C367.565893,344.838864 371.287074,353.248683 372.726397,364.270791 C374.588214,378.528292 370.502381,393.17396 358.444251,410.415008 L371.555749,419.584992 C385.807693,399.207169 390.995902,380.610035 388.591698,362.19902 Z M327.15449,361.822306 C326.078348,354.139276 323.694648,346.649115 320.025263,338.653126 C317.328423,332.776417 314.837173,328.24342 309.134979,318.434276 C308.97385,318.157098 308.97385,318.157098 308.812945,317.880283 C298.314778,299.818744 294.472614,291.356755 293.056442,280.496943 C291.231357,266.501403 295.427091,252.036068 307.719074,234.903586 L294.718926,225.576414 C280.168797,245.856283 274.812009,264.324503 277.190775,282.565902 C278.191749,290.241804 280.519787,297.727699 284.142344,305.706024 C286.821308,311.606181 289.411351,316.340217 294.979922,325.920649 C295.141245,326.198183 295.141245,326.198183 295.302376,326.475364 C305.966657,344.82049 309.781178,353.132746 311.309169,364.041719 C313.284755,378.146259 309.270772,392.700559 297.224251,409.925008 L310.335749,419.094992 C324.600749,398.698501 329.719818,380.137267 327.15449,361.822306 Z" id="Shape" sketch:type="MSShapeGroup"></path>
        </g>
    </g>
</svg>