<?xml version="1.0" encoding="UTF-8" ?>
<!DOCTYPE svg PUBLIC "-//W3C//DTD SVG 1.1//EN" "http://www.w3.org/Graphics/SVG/1.1/DTD/svg11.dtd">
<svg width="200pt" height="200pt" viewBox="0 0 200 200" version="1.1" xmlns="http://www.w3.org/2000/svg">
<g id="#ffffffff">
</g>
<g id="#f4c91bff">
<path fill="#f4c91b" opacity="1.00" d=" M 91.45 55.49 C 94.47 50.49 97.12 45.27 100.39 40.42 C 124.30 82.00 148.48 123.42 172.49 164.93 C 124.33 165.03 76.17 164.92 28.00 164.98 C 49.09 128.45 70.31 91.99 91.45 55.49 M 122.43 116.08 C 118.88 117.07 118.32 121.07 116.85 123.90 C 115.17 127.26 114.06 130.91 112.07 134.12 C 112.50 132.68 113.06 131.30 113.62 129.92 C 108.57 126.93 104.45 133.95 99.44 131.28 C 95.43 129.52 90.84 128.23 86.62 130.15 C 87.26 131.90 87.92 133.64 88.60 135.37 C 94.01 133.69 98.57 138.62 103.96 137.62 C 106.66 137.07 109.08 135.63 111.50 134.38 C 111.01 136.87 113.16 139.58 115.71 137.92 C 116.26 140.13 118.65 141.24 120.42 139.47 C 120.46 140.72 121.19 141.70 122.01 142.61 C 123.03 142.06 124.15 141.32 125.38 141.61 C 122.71 144.88 120.25 149.48 121.75 153.81 C 126.80 152.20 127.35 146.37 129.49 142.26 C 131.89 142.47 134.47 142.79 136.70 141.61 C 138.47 140.56 139.72 138.84 141.42 137.70 C 143.35 136.73 145.61 137.15 147.68 136.99 C 146.60 135.09 145.56 133.17 144.55 131.24 C 140.16 130.76 136.44 133.34 133.26 136.02 C 133.79 133.50 132.65 129.50 129.39 131.55 C 128.60 129.46 126.66 128.54 124.62 129.59 C 124.46 127.30 122.14 126.64 120.26 127.52 C 121.48 124.73 123.43 122.10 123.80 119.04 C 123.52 118.09 124.04 115.87 122.43 116.08 M 65.20 122.76 C 62.99 127.69 67.07 132.04 67.97 136.76 C 63.23 137.53 59.57 133.92 55.17 132.99 C 53.90 135.00 52.67 137.04 51.48 139.11 C 57.79 139.97 63.49 145.85 70.12 142.74 C 71.00 143.84 71.47 145.84 73.12 145.92 C 74.59 146.44 75.18 144.63 76.01 143.85 C 77.81 144.69 79.67 144.13 80.36 142.22 C 82.37 142.97 84.45 142.33 84.91 140.07 C 86.54 143.91 87.09 148.89 91.44 150.72 C 91.83 148.90 92.92 147.00 91.93 145.18 C 89.70 139.66 87.81 133.98 85.40 128.53 C 84.19 126.22 81.25 127.67 80.80 129.73 C 79.14 128.61 76.55 129.26 76.60 131.57 C 74.71 130.37 72.59 131.04 71.64 133.03 C 70.26 129.22 69.62 124.23 65.20 122.76 Z" />
</g>
<g id="#000000ff">
<path fill="#000000" opacity="1.00" d=" M 97.31 25.35 C 99.72 23.52 103.50 24.51 104.74 27.26 C 131.27 73.00 157.79 118.74 184.35 164.47 C 185.55 166.78 187.75 169.17 186.79 171.97 C 186.08 174.43 183.41 175.65 181.00 175.40 C 126.99 175.38 72.99 175.42 18.98 175.38 C 16.37 175.63 13.68 173.70 13.50 171.00 C 13.23 168.68 14.89 166.81 15.89 164.88 C 41.81 120.23 67.69 75.55 93.59 30.88 C 94.76 29.01 95.60 26.82 97.31 25.35 M 91.45 55.49 C 70.31 91.99 49.09 128.45 28.00 164.98 C 76.17 164.92 124.33 165.03 172.49 164.93 C 148.48 123.42 124.30 82.00 100.39 40.42 C 97.12 45.27 94.47 50.49 91.45 55.49 Z" />
<path fill="#000000" opacity="1.00" d=" M 122.43 116.08 C 124.04 115.87 123.52 118.09 123.80 119.04 C 123.43 122.10 121.48 124.73 120.26 127.52 C 122.14 126.64 124.46 127.30 124.62 129.59 C 126.66 128.54 128.60 129.46 129.39 131.55 C 132.65 129.50 133.79 133.50 133.26 136.02 C 136.44 133.34 140.16 130.76 144.55 131.24 C 145.56 133.17 146.60 135.09 147.68 136.99 C 145.61 137.15 143.35 136.73 141.42 137.70 C 139.72 138.84 138.47 140.56 136.70 141.61 C 134.47 142.79 131.89 142.47 129.49 142.26 C 127.35 146.37 126.80 152.20 121.75 153.81 C 120.25 149.48 122.71 144.88 125.38 141.61 C 124.15 141.32 123.03 142.06 122.01 142.61 C 121.19 141.70 120.46 140.72 120.42 139.47 C 118.65 141.24 116.26 140.13 115.71 137.92 C 113.16 139.58 111.01 136.87 111.50 134.38 C 109.08 135.63 106.66 137.07 103.96 137.62 C 98.57 138.62 94.01 133.69 88.60 135.37 C 87.92 133.64 87.26 131.90 86.62 130.15 C 90.84 128.23 95.43 129.52 99.44 131.28 C 104.45 133.95 108.57 126.93 113.62 129.92 C 113.06 131.30 112.50 132.68 112.07 134.12 C 114.06 130.91 115.17 127.26 116.85 123.90 C 118.32 121.07 118.88 117.07 122.43 116.08 Z" />
<path fill="#000000" opacity="1.00" d=" M 65.20 122.76 C 69.62 124.23 70.26 129.22 71.64 133.03 C 72.59 131.04 74.71 130.37 76.60 131.57 C 76.55 129.26 79.14 128.61 80.80 129.73 C 81.25 127.67 84.19 126.22 85.40 128.53 C 87.81 133.98 89.70 139.66 91.93 145.18 C 92.92 147.00 91.83 148.90 91.44 150.72 C 87.09 148.89 86.54 143.91 84.91 140.07 C 84.45 142.33 82.37 142.97 80.36 142.22 C 79.67 144.13 77.81 144.69 76.01 143.85 C 75.18 144.63 74.59 146.44 73.12 145.92 C 71.47 145.84 71.00 143.84 70.12 142.74 C 63.49 145.85 57.79 139.97 51.48 139.11 C 52.67 137.04 53.90 135.00 55.17 132.99 C 59.57 133.92 63.23 137.53 67.97 136.76 C 67.07 132.04 62.99 127.69 65.20 122.76 Z" />
</g>
</svg>
