<?xml version="1.0" encoding="UTF-8" standalone="no"?>
<svg width="600px" height="524px" viewBox="0 0 600 524" version="1.1" xmlns="http://www.w3.org/2000/svg" xmlns:xlink="http://www.w3.org/1999/xlink" xmlns:sketch="http://www.bohemiancoding.com/sketch/ns">
    <!-- Generator: Sketch 3.0 (7574) - http://www.bohemiancoding.com/sketch -->
    <title>ISO_7010_W007</title>
    <description>Created with Sketch.</description>
    <defs></defs>
    <g id="Page-1" stroke="none" stroke-width="1" fill="none" fill-rule="evenodd" sketch:type="MSPage">
        <g id="ISO_7010_W007_Original" sketch:type="MSLayerGroup" fill="#000000">
            <path d="M597.6,499.6 L313.8,8 C310.9,3 305.6,0 299.9,0 C294.2,0 288.9,3.1 286,8 L2.2,499.6 C-0.7,504.6 -0.7,510.7 2.2,515.6 C5.1,520.6 10.4,523.6 16.1,523.6 L583.7,523.6 C589.4,523.6 594.7,520.5 597.6,515.6 C600.5,510.6 600.5,504.5 597.6,499.6 Z M44,491.52526 L300.005,50.0363265 L556.005,491.52526 L44,491.52526 Z M239.96624,461.24 C239.48052,460.45593 239.21878,453.2459 239.38457,445.218 L239.68603,430.621 L300.69003,430.13919 L361.69403,429.65739 L361.16418,445.67939 L360.63433,461.70139 L300.74133,462.18329 C267.80033,462.44834 240.45133,462.02368 239.96533,461.23961 L239.96624,461.24 Z M209.57624,437.69 C205.23304,432.1815 204.78034,428.0212 208.06884,423.837 C210.45614,420.7994 229.28884,405.131 236.51284,400.173 C238.80204,398.6017 243.82544,394.408 247.67584,390.8538 L254.67664,384.3916 L255.03131,360.8866 C255.4244,334.8356 255.64381,334.9566 245.14431,355.4319 C243.14731,359.3262 239.23451,364.9785 236.44911,367.9929 L231.38481,373.4729 L204.37881,372.2855 C159.31681,370.3043 155.78681,369.4434 153.47481,359.8705 C152.54293,356.0122 153.34446,353.8755 157.14671,350.0822 L162.01071,345.2296 L191.68271,346.4348 L221.35471,347.64 L234.18271,326.491 C241.23811,314.859 248.24771,303.852 249.75971,302.03 C252.27991,298.9939 273.33371,289.171 291.04971,282.767 C295.04961,281.3209 302.34771,278.3283 307.26671,276.1166 L316.21161,272.0954 L309.09931,267.7779 C305.18751,265.4033 300.75001,262.8874 299.23811,262.1871 C297.72621,261.48684 294.26541,259.3775 291.54731,257.4997 C286.03371,253.6906 289.18711,252.787 257.54231,267.2438 C243.97631,273.4413 238.68431,273.7855 234.13231,268.7666 C229.84951,264.0453 232.14021,256.2646 238.78811,252.9526 C249.53211,247.5994 271.48011,237.8926 279.29311,235.0376 C288.95701,231.5068 288.92021,231.493 321.92811,250.9846 L338.20311,260.5952 L347.12571,282.4382 C355.51331,302.9712 358.05371,314.9052 354.50361,317.0942 C352.15651,318.5414 335.89061,347.0232 335.89061,349.6862 C335.89061,350.9687 342.08981,358.5978 349.66661,366.6402 C357.24341,374.6822 363.91061,383.0362 364.48261,385.2052 C365.93651,390.7166 362.33611,396.5342 356.57951,397.9762 C352.19831,399.0732 349.75741,397.14667 331.83951,378.4492 C320.90551,367.0402 311.51551,355.9372 310.97151,353.7762 C310.02013,349.9945 314.02111,341.3702 324.32351,324.9942 L328.66721,318.09 L323.57411,319.309 C320.77291,319.97942 316.00711,321.8141 312.98311,323.3861 C309.95941,324.9581 301.30011,328.7506 293.74111,331.8138 L279.99711,337.3834 L279.54894,351.0954 C279.30246,358.637 278.61005,372.3774 278.01024,381.6294 L276.91974,398.4504 L262.14974,409.9674 C254.02634,416.3016 246.05974,422.7634 244.44674,424.3274 C242.83344,425.8911 237.80254,429.9986 233.26674,433.4552 C228.73114,436.9118 224.74534,440.3631 224.40934,441.1247 C222.90074,444.5446 213.21134,442.3024 209.57634,437.6923 L209.57624,437.69 Z M359.94624,292.33 C347.67424,285.9408 347.20824,266.866 358.08874,258.866 C366.72784,251.2989 380.44174,254.4692 386.70374,263.4447 C392.59014,270.6392 391.85444,281.4977 385.60154,288.2167 C379.47874,295.6275 368.03754,298.0601 359.94554,292.3307 L359.94624,292.33 Z" id="Shape" sketch:type="MSShapeGroup"></path>
        </g>
    </g>
</svg>