<?xml version="1.0" encoding="UTF-8" standalone="no"?>
<svg width="174px" height="151px" viewBox="0 0 174 151" version="1.1" xmlns="http://www.w3.org/2000/svg" xmlns:xlink="http://www.w3.org/1999/xlink" xmlns:sketch="http://www.bohemiancoding.com/sketch/ns">
    <!-- Generator: Sketch 3.0 (7574) - http://www.bohemiancoding.com/sketch -->
    <title>ISO_7010_W035</title>
    <description>Created with Sketch.</description>
    <defs></defs>
    <g id="Page-1" stroke="none" stroke-width="1" fill="none" fill-rule="evenodd" sketch:type="MSPage">
        <g id="ISO_7010_W035_Original" sketch:type="MSLayerGroup" fill="#000000">
            <path d="M84.37,1.31 C86.3,-0.07 89.36,0.14 90.87,2.05 C92.22,3.84 93.22,5.85 94.36,7.78 C120.62,53.09 146.95,98.37 173.19,143.7 C175.46,146.79 172.86,151.65 169,151.35 C114.68,151.45 60.35,151.39 6.03,151.38 C3.02,151.73 0.09,149.1 0.47,146.02 C1.06,143.42 2.77,141.28 4.01,138.97 C30.19,93.84 56.34,48.7 82.52,3.57 C83,2.7 83.62,1.95 84.37,1.31 L84.37,1.31 Z M82.89,23.81 C60.27,62.86 37.63,101.89 14.99,140.93 C63.16,141.04 111.33,141.01 159.5,140.94 C135.45,99.57 111.57,58.1 87.44,16.79 C85.45,18.79 84.33,21.43 82.89,23.81 Z M97.82,88.53 C100.52,85.99 103.32,83.48 105.14,80.19 C106.36,81.36 107.57,82.55 108.76,83.76 C105.45,85.71 102.73,88.43 99.97,91.07 C99.25,90.23 98.53,89.38 97.82,88.53 Z M104.76,78.85 C106.21,79.15 107.65,79.46 109.1,79.77 C109.44,81.14 109.77,82.5 110.11,83.87 C108.4,82.12 106.62,80.45 104.76,78.85 Z M89.24,71.22 C90.91,70.71 92.69,69.88 94.44,70.59 C95.57,72.84 95.95,75.37 96.54,77.8 C90.6,79.74 84.73,81.88 78.82,83.87 C77.44,84.45 75.96,84.33 74.52,84.13 C73.86,81.71 73.17,79.3 72.51,76.88 C78.09,75.01 83.68,73.15 89.24,71.22 Z M66.31,67.05 C66.65,67.06 67.33,67.09 67.67,67.1 C67.59,72.4 67.7,77.69 67.65,82.98 C67.76,84.25 67.28,85.42 66.64,86.48 C66,80.02 66.48,73.52 66.31,67.05 Z M99.51,55.43 C99.9,55.07 100.67,54.37 101.05,54.01 C101.42,62.22 101.4,70.47 101.06,78.68 C98.67,77.67 99.45,74.99 99.3,72.97 C99.49,67.12 99.04,61.25 99.51,55.43 Z M88.24,53.02 C89.86,55.76 89.12,59.02 89.29,62.03 C89.16,64.6 89.76,67.43 88.24,69.71 C87.76,64.17 87.78,58.57 88.24,53.02 Z M77.14,48.08 C77.58,48.08 78.47,48.09 78.92,48.09 C78.88,56.18 79.09,64.29 78.85,72.38 C78.43,72.38 77.61,72.39 77.2,72.39 C76.94,64.29 77.12,56.18 77.14,48.08 Z M92.38,89.38 C92.64,89.64 92.64,89.64 92.38,89.38 Z M92.2,85.24 C93.11,85.48 94.02,85.73 94.93,85.97 C95.39,86.69 96.31,88.11 96.77,88.82 C96.02,88.62 94.52,88.22 93.77,88.01 C94.77,89.49 94.65,90.67 93.38,91.55 C92.21,90.87 91.2,89.94 90.36,88.88 C90.58,87.5 91.55,86.42 92.2,85.24 Z M62.66,88.57 C65.8,87.71 69.05,87.6 72.28,87.83 C72.04,90.24 72.63,93.11 71.11,95.18 C68.82,96.25 65.7,97.3 63.59,95.3 C61.18,93.8 62.52,90.82 62.66,88.57 Z M78.4,103.44 C82.7,101.57 88.02,105.3 87.53,110.02 C87.47,115.12 80.86,118.13 76.92,114.96 C72.76,112.19 73.65,105.08 78.4,103.44 Z M95.71,98.01 C95.45,94.72 100.36,93.14 101.86,96.17 C104.58,100.86 107.01,105.74 109.5,110.57 C110.51,112.13 110.17,114.49 108.34,115.25 C103.19,117.74 97.79,119.66 92.54,121.93 C93.68,125.82 94.86,129.7 95.98,133.59 C90.71,133.57 85.43,133.57 80.16,133.58 C79.53,131.57 78.91,129.56 78.27,127.55 C76.86,129.52 75.52,131.53 74.17,133.54 C71.52,133.57 68.87,133.58 66.22,133.59 C68.79,129.7 71.19,125.7 73.82,121.86 C75.36,119.38 78.6,119.28 81.09,118.35 C88.33,116.57 95.21,113.69 102.05,110.77 C100.02,106.47 97.31,102.49 95.71,98.01 Z" id="Shape" sketch:type="MSShapeGroup"></path>
        </g>
    </g>
</svg>