<?xml version="1.0" encoding="UTF-8" ?>
<!DOCTYPE svg PUBLIC "-//W3C//DTD SVG 1.1//EN" "http://www.w3.org/Graphics/SVG/1.1/DTD/svg11.dtd">
<svg width="200pt" height="200pt" viewBox="0 0 200 200" version="1.1" xmlns="http://www.w3.org/2000/svg">
<g id="#ffffffff">
</g>
<g id="#f4c91bff">
<path fill="#f4c91b" opacity="1.00" d=" M 95.89 47.81 C 97.33 45.43 98.45 42.79 100.44 40.79 C 124.57 82.10 148.45 123.57 172.50 164.94 C 124.33 165.01 76.16 165.04 27.99 164.93 C 50.63 125.89 73.27 86.86 95.89 47.81 M 90.14 72.08 C 90.12 80.18 89.94 88.29 90.20 96.39 C 90.61 96.39 91.43 96.38 91.85 96.38 C 92.09 88.29 91.88 80.18 91.92 72.09 C 91.47 72.09 90.58 72.08 90.14 72.08 M 101.24 77.02 C 100.78 82.57 100.76 88.17 101.24 93.71 C 102.76 91.43 102.16 88.60 102.29 86.03 C 102.12 83.02 102.86 79.76 101.24 77.02 M 112.51 79.43 C 112.04 85.25 112.49 91.12 112.30 96.97 C 112.45 98.99 111.67 101.67 114.06 102.68 C 114.40 94.47 114.42 86.22 114.05 78.01 C 113.67 78.37 112.90 79.07 112.51 79.43 M 79.31 91.05 C 79.48 97.52 79.00 104.02 79.64 110.48 C 80.28 109.42 80.76 108.25 80.65 106.98 C 80.70 101.69 80.59 96.40 80.67 91.10 C 80.33 91.09 79.65 91.06 79.31 91.05 M 102.24 95.22 C 96.68 97.15 91.09 99.01 85.51 100.88 C 86.17 103.30 86.86 105.71 87.52 108.13 C 88.96 108.33 90.44 108.45 91.82 107.87 C 97.73 105.88 103.60 103.74 109.54 101.80 C 108.95 99.37 108.57 96.84 107.44 94.59 C 105.69 93.88 103.91 94.71 102.24 95.22 M 117.76 102.85 C 119.62 104.45 121.40 106.12 123.11 107.87 C 122.77 106.50 122.44 105.14 122.10 103.77 C 120.65 103.46 119.21 103.15 117.76 102.85 M 110.82 112.53 C 111.53 113.38 112.25 114.23 112.97 115.07 C 115.73 112.43 118.45 109.71 121.76 107.76 C 120.57 106.55 119.36 105.36 118.14 104.19 C 116.32 107.48 113.52 109.99 110.82 112.53 M 105.20 109.24 C 104.55 110.42 103.58 111.50 103.36 112.88 C 104.20 113.94 105.21 114.87 106.38 115.55 C 107.65 114.67 107.77 113.49 106.77 112.01 C 107.52 112.22 109.02 112.62 109.77 112.82 C 109.31 112.11 108.39 110.69 107.93 109.97 C 107.02 109.73 106.11 109.48 105.20 109.24 M 75.66 112.57 C 75.52 114.82 74.18 117.80 76.59 119.30 C 78.70 121.30 81.82 120.25 84.11 119.18 C 85.63 117.11 85.04 114.24 85.28 111.83 C 82.05 111.60 78.80 111.71 75.66 112.57 M 108.21 113.21 C 108.78 113.81 108.78 113.81 108.21 113.21 M 108.71 122.01 C 110.31 126.49 113.02 130.47 115.05 134.77 C 108.21 137.69 101.33 140.57 94.09 142.35 C 91.60 143.28 88.36 143.38 86.82 145.86 C 84.19 149.70 81.79 153.70 79.22 157.59 C 81.87 157.58 84.52 157.57 87.17 157.54 C 88.52 155.53 89.86 153.52 91.27 151.55 C 91.91 153.56 92.53 155.57 93.16 157.58 C 98.43 157.57 103.71 157.57 108.98 157.59 C 107.86 153.70 106.68 149.82 105.54 145.93 C 110.79 143.66 116.19 141.74 121.34 139.25 C 123.17 138.49 123.51 136.13 122.50 134.57 C 120.01 129.74 117.58 124.86 114.86 120.17 C 113.36 117.14 108.45 118.72 108.71 122.01 M 91.40 127.44 C 86.65 129.08 85.76 136.19 89.92 138.96 C 93.86 142.13 100.47 139.12 100.53 134.02 C 101.02 129.30 95.70 125.57 91.40 127.44 Z" />
<path fill="#f4c91b" opacity="1.00" d=" M 105.38 113.38 C 105.64 113.64 105.64 113.64 105.38 113.38 Z" />
<path fill="#f4c91b" opacity="1.00" d=" M 191.40 186.64 C 193.58 185.34 197.28 186.39 200.00 186.28 L 200.00 186.73 C 197.14 186.78 194.21 187.27 191.40 186.64 Z" />
<path fill="#f4c91b" opacity="1.00" d=" M 13.55 199.36 C 13.08 196.14 13.08 192.85 13.57 189.63 C 13.83 192.87 13.83 196.12 13.55 199.36 Z" />
</g>
<g id="#000000ff">
<path fill="#000000" opacity="1.00" d=" M 97.37 25.31 C 99.30 23.93 102.36 24.14 103.87 26.05 C 105.22 27.84 106.22 29.85 107.36 31.78 C 133.62 77.09 159.95 122.37 186.19 167.70 C 188.46 170.79 185.86 175.65 182.00 175.35 C 127.68 175.45 73.35 175.39 19.03 175.38 C 16.02 175.73 13.09 173.10 13.47 170.02 C 14.06 167.42 15.77 165.28 17.01 162.97 C 43.19 117.84 69.34 72.70 95.52 27.57 C 96.00 26.70 96.62 25.95 97.37 25.31 M 95.89 47.81 C 73.27 86.86 50.63 125.89 27.99 164.93 C 76.16 165.04 124.33 165.01 172.50 164.94 C 148.45 123.57 124.57 82.10 100.44 40.79 C 98.45 42.79 97.33 45.43 95.89 47.81 Z" />
<path fill="#000000" opacity="1.00" d=" M 90.14 72.08 C 90.58 72.08 91.47 72.09 91.92 72.09 C 91.88 80.18 92.09 88.29 91.85 96.38 C 91.43 96.38 90.61 96.39 90.20 96.39 C 89.94 88.29 90.12 80.18 90.14 72.08 Z" />
<path fill="#000000" opacity="1.00" d=" M 101.24 77.02 C 102.86 79.76 102.12 83.02 102.29 86.03 C 102.16 88.60 102.76 91.43 101.24 93.71 C 100.76 88.17 100.78 82.57 101.24 77.02 Z" />
<path fill="#000000" opacity="1.00" d=" M 112.51 79.43 C 112.90 79.07 113.67 78.37 114.05 78.01 C 114.42 86.22 114.40 94.47 114.06 102.68 C 111.67 101.67 112.45 98.99 112.30 96.97 C 112.49 91.12 112.04 85.25 112.51 79.43 Z" />
<path fill="#000000" opacity="1.00" d=" M 79.31 91.05 C 79.65 91.06 80.33 91.09 80.67 91.10 C 80.59 96.40 80.70 101.69 80.65 106.98 C 80.76 108.25 80.28 109.42 79.64 110.48 C 79.00 104.02 79.48 97.52 79.31 91.05 Z" />
<path fill="#000000" opacity="1.00" d=" M 102.24 95.22 C 103.91 94.71 105.69 93.88 107.44 94.59 C 108.57 96.84 108.95 99.37 109.54 101.80 C 103.60 103.74 97.73 105.88 91.82 107.87 C 90.44 108.45 88.96 108.33 87.52 108.13 C 86.86 105.71 86.17 103.30 85.51 100.88 C 91.09 99.01 96.68 97.15 102.24 95.22 Z" />
<path fill="#000000" opacity="1.00" d=" M 117.76 102.85 C 119.21 103.15 120.65 103.46 122.10 103.77 C 122.44 105.14 122.77 106.50 123.11 107.87 C 121.40 106.12 119.62 104.45 117.76 102.85 Z" />
<path fill="#000000" opacity="1.00" d=" M 110.82 112.53 C 113.52 109.99 116.32 107.48 118.14 104.19 C 119.36 105.36 120.57 106.55 121.76 107.76 C 118.45 109.71 115.73 112.43 112.97 115.07 C 112.25 114.23 111.53 113.38 110.82 112.53 Z" />
<path fill="#000000" opacity="1.00" d=" M 105.20 109.24 C 106.11 109.48 107.02 109.73 107.93 109.97 C 108.39 110.69 109.31 112.11 109.77 112.82 C 109.02 112.62 107.52 112.22 106.77 112.01 C 107.77 113.49 107.65 114.67 106.38 115.55 C 105.21 114.87 104.20 113.94 103.36 112.88 C 103.58 111.50 104.55 110.42 105.20 109.24 M 105.38 113.38 C 105.64 113.64 105.64 113.64 105.38 113.38 Z" />
<path fill="#000000" opacity="1.00" d=" M 75.66 112.57 C 78.80 111.71 82.05 111.60 85.28 111.83 C 85.04 114.24 85.63 117.11 84.11 119.18 C 81.82 120.25 78.70 121.30 76.59 119.30 C 74.18 117.80 75.52 114.82 75.66 112.57 Z" />
<path fill="#000000" opacity="1.00" d=" M 108.21 113.21 C 108.78 113.81 108.78 113.81 108.21 113.21 Z" />
<path fill="#000000" opacity="1.00" d=" M 108.71 122.01 C 108.45 118.72 113.36 117.14 114.86 120.17 C 117.58 124.86 120.01 129.74 122.50 134.57 C 123.51 136.13 123.17 138.49 121.34 139.25 C 116.19 141.74 110.79 143.66 105.54 145.93 C 106.68 149.82 107.86 153.70 108.98 157.59 C 103.71 157.57 98.43 157.57 93.16 157.58 C 92.53 155.57 91.91 153.56 91.27 151.55 C 89.86 153.52 88.52 155.53 87.17 157.54 C 84.52 157.57 81.87 157.58 79.22 157.59 C 81.79 153.70 84.19 149.70 86.82 145.86 C 88.36 143.38 91.60 143.28 94.09 142.35 C 101.33 140.57 108.21 137.69 115.05 134.77 C 113.02 130.47 110.31 126.49 108.71 122.01 Z" />
<path fill="#000000" opacity="1.00" d=" M 91.40 127.44 C 95.70 125.57 101.02 129.30 100.53 134.02 C 100.47 139.12 93.86 142.13 89.92 138.96 C 85.76 136.19 86.65 129.08 91.40 127.44 Z" />
</g>
</svg>
