<?xml version="1.0" encoding="UTF-8" standalone="no"?>
<svg width="600px" height="524px" viewBox="0 0 600 524" version="1.1" xmlns="http://www.w3.org/2000/svg" xmlns:xlink="http://www.w3.org/1999/xlink" xmlns:sketch="http://www.bohemiancoding.com/sketch/ns">
    <!-- Generator: Sketch 3.0 (7574) - http://www.bohemiancoding.com/sketch -->
    <title>ISO_7010_W010</title>
    <description>Created with Sketch.</description>
    <defs></defs>
    <g id="Page-1" stroke="none" stroke-width="1" fill="none" fill-rule="evenodd" sketch:type="MSPage">
        <g id="ISO_7010_W010_Original" sketch:type="MSLayerGroup" fill="#000000">
            <path d="M597.6,499.6 L313.8,8 C310.9,3 305.6,0 299.9,0 C294.2,0 288.9,3.1 286,8 L2.2,499.6 C-0.7,504.6 -0.7,510.7 2.2,515.6 C5.1,520.6 10.4,523.6 16.1,523.6 L583.7,523.6 C589.4,523.6 594.7,520.5 597.6,515.6 C600.5,510.6 600.5,504.5 597.6,499.6 Z M44,491.52526 L300.005,50.0363265 L556.005,491.52526 L44,491.52526 Z M290.17,225 L290.17,264.562 L269.014,243.437 L254.858,257.562 L290.17,292.874 L290.17,320.374 C287.6859,321.34145 285.3634,322.6357 283.295,324.249 L258.483,309.905 L245.545,261.686 L226.233,266.8735 L233.9518,295.7485 L199.7018,275.9675 L189.7018,293.3115 L223.9518,313.0925 L195.1078,320.8113 L200.264,340.1233 L248.452,327.2173 L273.14,341.4673 C272.92033,342.8607 272.79625,344.2934 272.79625,345.7485 C272.79625,347.0421 272.90315,348.3154 273.0775,349.561 L248.4525,363.749 L200.2645,350.843 L195.1083,370.155 L223.9523,377.905 L189.7023,397.686 L199.7023,414.998 L233.9523,395.217 L226.2335,424.092 L245.5455,429.3108 L258.4835,381.0608 L282.9215,366.9358 C285.0861,368.6869 287.5338,370.096 290.1715,371.1233 L290.1715,397.1233 L254.8595,432.4353 L269.0155,446.5603 L290.1715,425.4353 L290.1715,464.9973 L310.1715,464.9973 L310.1715,425.4353 L331.2965,446.5603 L345.4525,432.4353 L310.1715,397.1543 L310.1715,371.0293 C312.6994,370.0157 315.0529,368.6499 317.1403,366.9668 L341.5153,381.0608 L354.4533,429.3108 L373.7653,424.092 L366.0465,395.217 L400.2965,414.998 L410.2965,397.686 L376.0465,377.905 L404.8905,370.155 L399.7343,350.843 L351.5463,363.749 L327.0153,349.593 C327.19247,348.3377 327.29655,347.0534 327.29655,345.7492 C327.29655,344.2835 327.17561,342.8397 326.9528,341.4367 L351.5468,327.2177 L399.7348,340.1237 L404.891,320.8117 L376.047,313.0929 L410.297,293.3119 L400.297,275.9679 L366.047,295.7489 L373.7658,266.8739 L354.4538,261.6864 L341.5158,309.9054 L316.7348,324.2174 C314.7502,322.6774 312.5396,321.4166 310.1723,320.4674 L310.1723,292.8424 L345.4533,257.5614 L331.2973,243.4364 L310.1723,264.5614 L310.1723,224.9994 L290.1723,224.9994 L290.17,225 Z" id="Shape" sketch:type="MSShapeGroup"></path>
        </g>
    </g>
</svg>