<?xml version="1.0" encoding="UTF-8" standalone="no"?>
<svg width="174px" height="151px" viewBox="0 0 174 151" version="1.1" xmlns="http://www.w3.org/2000/svg" xmlns:xlink="http://www.w3.org/1999/xlink" xmlns:sketch="http://www.bohemiancoding.com/sketch/ns">
    <!-- Generator: Sketch 3.0 (7574) - http://www.bohemiancoding.com/sketch -->
    <title>ISO_7010_W032</title>
    <description>Created with Sketch.</description>
    <defs></defs>
    <g id="Page-1" stroke="none" stroke-width="1" fill="none" fill-rule="evenodd" sketch:type="MSPage">
        <g id="ISO_7010_W031_Original" sketch:type="MSLayerGroup" fill="#000000">
            <path d="M84.37,1.32 C86.31,-0.07 89.37,0.15 90.89,2.06 C92.38,4.05 93.46,6.31 94.73,8.44 C120.41,52.66 146.04,96.92 171.75,141.14 C172.88,143.22 174.73,145.5 173.77,148.02 C173.05,150.45 170.42,151.63 168.03,151.4 C114.04,151.38 60.05,151.42 6.07,151.38 C3.05,151.75 0.04,149.09 0.49,145.98 C0.95,143.63 2.51,141.71 3.62,139.63 C29.18,95.58 54.72,51.51 80.26,7.44 C81.57,5.37 82.48,2.94 84.37,1.32 L84.37,1.32 Z M87.23,16.35 C63.16,57.93 38.96,99.43 14.99,141.06 C63.17,140.89 111.35,140.93 159.53,141.06 C135.48,99.46 111.37,57.9 87.23,16.35 Z M64.73,122.67 C66.35,120.67 69.17,121.64 71.38,121.49 C71.28,125.42 71.53,129.35 71.26,133.28 L69.58,133.92 C69.42,130.4 69.43,126.88 69.58,123.37 C68.43,123.47 67.02,123.04 66.15,124.03 C62.81,127.11 59.72,130.46 56.43,133.59 C53.26,130.41 50.1,127.21 46.85,124.11 C45.98,123.16 44.59,123.42 43.46,123.2 C43.45,126.65 43.45,130.1 43.45,133.55 L41.58,133.6 C41.56,129.55 41.56,125.51 41.57,121.46 L46.94,121.46 C50.16,124.62 53.28,127.88 56.59,130.95 C59.23,128.11 61.99,125.4 64.73,122.67 Z M105.16,102.21 C108.5,102.1 103.82,105.26 105.16,102.21 Z M85.45,103.12 C86.66,101.99 87.87,100.85 89.07,99.7 C92.59,102.46 94.31,106.69 96.77,110.2 C97.53,109.93 99.04,109.38 99.8,109.1 C98.73,111.9 97.76,114.73 96.82,117.57 C94.04,116.37 91.27,115.14 88.69,113.57 C89.46,113.25 91,112.63 91.77,112.31 C90.16,108.93 88.09,105.79 85.45,103.12 Z M106.04,99.12 C109.38,99.08 104.66,102.16 106.04,99.12 Z M106.59,98.07 C109.76,91.43 120.13,90.66 123.85,97.16 C129.41,106.95 134.65,116.93 140.15,126.76 C141.4,128.84 142.09,131.17 142.61,133.52 C135.52,133.65 128.43,133.52 121.34,133.6 C118.42,128.42 115.63,123.17 112.74,117.98 C110.72,122.63 112.08,130.6 106,132.19 C96.7,132.49 87.36,132.23 78.05,132.21 C74.6,132.25 72.04,128.31 73.28,125.14 C74.03,122.76 76.54,121.32 78.97,121.53 C86.22,121.53 93.47,121.57 100.72,121.57 C101.84,117.14 102.89,112.69 103.95,108.25 C105.77,108.2 107.59,108.22 109.41,108.31 C107.62,106.04 107.91,103.18 110.48,101.67 C110.1,101.25 109.36,100.4 108.99,99.98 C109.27,98.82 110.15,97.42 109.03,96.38 C108.42,96.8 107.2,97.65 106.59,98.07 Z M100.33,90.94 C103.28,89.42 100.48,94.28 100.33,90.94 Z M94.53,87.36 C95.48,86.4 96.52,85.55 97.58,84.71 C98.06,85.28 99.02,86.42 99.5,86.99 C99.01,87.32 98.03,87.98 97.54,88.31 C98.13,89.18 98.72,90.06 99.3,90.95 C98.74,90.49 97.63,89.58 97.07,89.13 C83.55,102.62 70,116.07 56.43,129.5 C52.1,125.01 47.72,120.57 43.36,116.1 C43.84,115.62 44.79,114.65 45.27,114.17 C48.73,117.51 52.05,121.02 55.53,124.34 C56.55,125.86 57.67,123.96 58.49,123.33 C70.45,111.29 82.56,99.39 94.53,87.36 Z M66.25,87.52 C69.09,86.49 71.93,85.47 74.78,84.48 C74.47,85.3 73.85,86.94 73.54,87.77 C77.51,89.51 81.15,91.93 84.26,94.97 C83.13,96.25 81.99,97.52 80.82,98.77 C78.13,96.15 74.99,94.09 71.64,92.43 C71.31,93.15 70.66,94.59 70.33,95.31 C68.57,92.94 67.53,90.15 66.25,87.52 Z M94.02,84.29 C97.37,84.33 92.58,87.28 94.02,84.29 Z M56.31,84.07 C57.26,81.5 60.19,82.45 62.27,82.12 C62.42,94.06 62.3,106 62.33,117.94 C60.38,119.82 58.47,121.75 56.66,123.77 C54.61,121.99 52.68,120.08 50.82,118.1 C52.69,116.04 54.67,113.86 55.17,111.03 C56.36,106.48 54.18,101.78 50.72,98.85 C50.38,96.01 50.79,93.2 52.55,90.89 C52.59,93.22 52.59,95.56 52.63,97.89 C58.46,103.02 58.88,112.47 53.57,118.14 C54.51,119.11 55.44,120.08 56.38,121.06 C57.74,119.76 59.09,118.45 60.41,117.12 C60.37,106.14 60.41,95.16 60.39,84.18 C59.37,84.15 57.33,84.1 56.31,84.07 Z M99.03,72.01 C104.96,68.59 113.36,72.38 114.7,79.1 C116.2,84.81 112.25,90.77 106.65,92.19 C106.46,90.75 105.68,89.79 104.29,89.3 C103.97,87.76 103.85,86.16 103.14,84.73 C102.22,85.16 101.29,85.59 100.37,86.02 C100.16,84.67 99.96,83.33 99.76,81.98 C99.11,82.16 97.79,82.52 97.14,82.7 C96.96,82.04 96.61,80.71 96.43,80.05 C95.21,81 94.03,81.99 92.91,83.06 C93.21,78.72 94.83,74.02 99.03,72.01 Z" id="Shape" sketch:type="MSShapeGroup"></path>
        </g>
    </g>
</svg>