<?xml version="1.0" encoding="UTF-8" standalone="no"?>
<svg width="626px" height="570px" viewBox="0 0 626 570" version="1.1" xmlns="http://www.w3.org/2000/svg" xmlns:xlink="http://www.w3.org/1999/xlink" xmlns:sketch="http://www.bohemiancoding.com/sketch/ns">
    <!-- Generator: Sketch 3.0 (7574) - http://www.bohemiancoding.com/sketch -->
    <title>ISO_7010_W013</title>
    <description>Created with Sketch.</description>
    <defs></defs>
    <g id="Page-1" stroke="none" stroke-width="1" fill="none" fill-rule="evenodd" sketch:type="MSPage">
        <g id="ISO_7010_W013_Original" sketch:type="MSLayerGroup" transform="translate(1.000000, 1.000000)" stroke="#000000" fill="#000000">
            <path d="M316.77551,45.06045 C311.1417,34.19526 293.03305,35.80492 288.40528,45.06045 L1.081341,543.4508 C-3.613495,550.49306 2.758068,568.40049 12.952568,567.59566 L591.42339,567.79687 C601.14841,569.07119 609.86739,553.8465 604.90428,545.66408 L316.77551,45.06045 Z M302.46302,93.40477 L49.67547,532.40867 L554.90742,531.49361 L302.46302,93.40477 Z M351.08339,505.8021 C351.08339,505.56095 359.77037,493.97345 370.3878,480.0521 C393.79134,449.36586 407.97882,430.66153 426.37484,406.24055 C434.03954,396.06555 440.64931,387.37326 441.06321,386.92436 C441.47712,386.47546 443.01726,388.15836 444.48575,390.66415 L447.15573,395.22013 L437.36939,407.98034 C431.98691,414.99846 424.88313,424.34055 421.58322,428.74055 C418.28331,433.14055 415.33853,436.96555 415.03925,437.24055 C414.73997,437.51555 409.79836,444.04055 404.05791,451.74055 C398.31745,459.44055 393.36734,465.96555 393.05766,466.24055 C392.5191,466.7188 373.54387,491.55654 366.12861,501.48947 C362.6175,506.19271 362.52807,506.2384 356.83339,506.23947 C353.67089,506.24006 351.08339,506.04325 351.08339,505.8021 L351.08339,505.8021 Z M325.2502,492.49055 C324.75324,491.52805 324.02383,488.9561 323.62928,486.77511 C322.59303,481.04685 320.94003,478.33158 313.65892,470.39748 C304.97365,460.93331 302.30739,456.69469 301.12827,450.47719 C300.42832,446.7864 297.46414,440.79707 290.99414,430.00055 C285.96449,421.60755 281.32696,414.1816 280.68853,413.49844 C280.0501,412.81528 276.78576,411.96974 273.43444,411.61945 C268.46362,411.0999 265.79765,411.46122 258.96227,413.58089 C242.79874,418.59325 237.63325,419.63688 229.08339,419.61757 C216.40006,419.58897 211.33981,418.59012 210.4356,415.93683 C210.02395,414.72887 209.79525,413.34619 209.92738,412.8642 C210.05951,412.38221 209.24867,411.34419 208.12551,410.5575 C205.91285,409.00769 205.50574,406.18843 207.07198,403.26187 C208.18949,401.17379 213.74792,398.94263 222.58339,397.03559 C228.53596,395.75079 228.4488,395.7366 211.55558,395.24055 L194.52777,394.74055 L189.51675,391.52181 C186.76069,389.75151 183.49724,386.93901 182.26463,385.27181 C181.03201,383.60462 179.39869,382.24055 178.63501,382.24055 C177.00974,382.24055 173.62772,376.95989 172.68118,372.94429 C172.15402,370.70785 172.5811,369.58899 174.81441,367.35568 C177.21104,364.95906 178.91205,364.39593 186.81726,363.38213 C192.57379,362.64389 200.25698,360.67195 207.30557,358.12369 C225.8407,351.42272 229.4499,350.29091 232.36551,350.26514 C233.89567,350.25164 236.65967,349.60878 238.50772,348.83661 C241.22823,347.69991 242.26572,346.36916 243.9583,341.84535 C245.10806,338.77232 246.25646,333.47353 246.51028,330.07027 C246.84733,325.55118 247.45091,323.5937 248.74849,322.81153 C250.75338,321.603 260.81645,317.75722 275.51659,312.58164 C296.40946,305.22573 302.4045,300.35858 307.50351,286.61263 C309.10958,282.28299 310.73843,278.29055 311.12319,277.74055 C311.50794,277.19055 312.39229,274.94055 313.08839,272.74055 C316.02224,263.46832 320.75465,257.51181 323.22492,259.98208 C323.73467,260.49183 324.28883,266.05258 324.45639,272.33932 C324.90292,289.09219 327.24339,291.80603 334.63044,284.13637 C336.80456,281.87908 343.37365,276.47672 349.22841,272.13114 C355.08317,267.78556 360.13155,263.55744 360.44702,262.73532 C361.24017,260.66842 364.75548,260.85411 365.27874,262.99055 C365.89447,265.50458 364.47241,285.7171 362.69318,299.74055 C361.8558,306.34055 361.15104,314.09149 361.12703,316.96487 C361.08653,321.81035 361.3074,322.30503 364.17256,323.78666 C367.09311,325.29694 375.00654,332.91158 392.08339,350.64368 C400.17511,359.04588 413.6895,371.36111 416.61431,372.99791 C418.34527,373.96661 418.34063,374.11063 416.50144,376.50045 C415.44651,377.87122 409.85848,385.23601 404.08359,392.86665 C398.30871,400.4973 393.33567,406.96555 393.0324,407.24055 C392.72914,407.51555 387.77914,414.04055 382.0324,421.74055 C376.28567,429.44055 371.33567,435.96555 371.0324,436.24055 C370.72914,436.51555 365.77905,443.04055 360.0322,450.74055 C354.28535,458.44055 349.13339,465.2434 348.58339,465.85799 C348.03339,466.47258 343.08339,473.07391 337.58339,480.52761 C332.08339,487.98132 327.26172,494.11597 326.86857,494.16018 C326.47542,494.20438 325.74716,493.45305 325.2502,492.49055 L325.2502,492.49055 Z M266.73763,351.74055 C268.71214,350.91555 272.33518,350.24055 274.78885,350.24055 C277.89253,350.24055 279.13516,349.86018 278.87246,348.99055 C278.22947,346.86199 267.98125,342.24055 263.90408,342.24055 C259.73207,342.24055 259.33104,343.2288 260.70839,350.11555 C261.42269,353.68707 261.82162,353.79459 266.73763,351.74055 Z M352.36752,488.53929 C349.43457,487.9716 345.08339,482.69794 345.08339,479.71088 C345.08339,476.06174 346.9646,472.74194 350.07289,470.90582 C353.52169,468.86857 355.36669,468.81857 358.93836,470.66555 C366.01302,474.324 365.38745,485.5445 357.96455,488.13213 C356.21577,488.74176 354.73959,489.17927 354.68417,489.10437 C354.62877,489.02947 353.58625,488.77518 352.36752,488.53929 L352.36752,488.53929 Z M381.08339,448.53111 C374.2366,446.01359 373.34169,436.96106 379.45043,432.01279 C385.16077,427.38723 394.08339,432.3031 394.08339,440.07473 C394.08339,446.49608 387.39005,450.85003 381.08339,448.53111 Z M412.36752,409.4653 C409.18283,408.95522 405.08339,403.66416 405.08339,400.06382 C405.08339,396.30573 410.74985,390.24055 414.26088,390.24055 C419.25018,390.24055 424.01535,395.11866 424.02935,400.24055 C424.04585,406.26937 418.71942,410.48267 412.36752,409.4653 L412.36752,409.4653 Z M619.32173,-0.44653 C620.27782,-0.69682 622.07782,-0.7059 623.32173,-0.46673 C624.56564,-0.22754 623.78339,-0.02275 621.58339,-0.01165 C619.38339,-0.00055 618.36564,-0.19626 619.32173,-0.44655 L619.32173,-0.44653 Z" id="path4316" sketch:type="MSShapeGroup"></path>
        </g>
    </g>
</svg>