<?xml version="1.0" encoding="UTF-8" standalone="no"?>
<svg width="600px" height="524px" viewBox="0 0 600 524" version="1.1" xmlns="http://www.w3.org/2000/svg" xmlns:xlink="http://www.w3.org/1999/xlink" xmlns:sketch="http://www.bohemiancoding.com/sketch/ns">
    <!-- Generator: Sketch 3.0 (7574) - http://www.bohemiancoding.com/sketch -->
    <title>ISO_7010_W008</title>
    <description>Created with Sketch.</description>
    <defs></defs>
    <g id="Page-1" stroke="none" stroke-width="1" fill="none" fill-rule="evenodd" sketch:type="MSPage">
        <g id="ISO_7010_W008_Original" sketch:type="MSLayerGroup" fill="#000000">
            <path d="M597.6,499.6 L313.8,8 C310.9,3 305.6,0 299.9,0 C294.2,0 288.9,3.1 286,8 L2.2,499.6 C-0.7,504.6 -0.7,510.7 2.2,515.6 C5.1,520.6 10.4,523.6 16.1,523.6 L583.7,523.6 C589.4,523.6 594.7,520.5 597.6,515.6 C600.5,510.6 600.5,504.5 597.6,499.6 Z M44,491.52526 L300.005,50.0363265 L556.005,491.52526 L44,491.52526 Z M208.444,463.24 L193.454,463.3172 L193.454,435.0922 L193.454,406.8672 L143.291,406.69672 L142.86159,392.98072 L208.09559,392.23714 L208.444,463.24 Z M234.574,452.2 C229.3796,449.4673 226.3947,445.1815 226.3947,440.456 C226.3947,437.8147 234.5296,426.949 249.0837,410.151 C270.6537,385.255 272.5617,383.559 287.7797,375.756 L303.7867,367.5485 L288.4257,365.3631 C257.2857,360.933 251.9317,360.577 247.8237,362.6635 C244.0836,364.5629 222.7377,373.3565 202.1947,381.4595 C191.9927,385.4841 185.4387,383.9326 182.1467,376.7134 C179.2474,370.355 183.2565,363.2044 191.621,359.8154 C195.1441,358.3878 203.792,354.5035 210.838,351.1835 C217.8842,347.8635 229.611,342.8603 236.897,340.0655 L250.144,334.9836 L272.836,338.0074 C308.775,342.7965 304.167,345.2018 317.446,314.7254 C323.7372,300.2874 328.885,287.5984 328.885,286.5294 C328.885,285.46 327.4437,284.1231 325.6822,283.5585 C323.9206,282.99386 320.3009,280.6753 317.6383,278.4061 C314.9757,276.1369 306.5023,269.9302 298.8083,264.6131 C291.1146,259.2963 284.1093,253.1241 283.2423,250.8971 C282.37439,248.6701 277.4645,238.0101 272.3313,227.2091 C267.1983,216.4081 262.9985,205.9741 262.9985,204.0221 C262.9985,198.4698 268.2341,194.4598 274.6665,195.0852 C280.035,195.60712 281.0696,197.0436 291.5695,218.5542 L302.7535,241.4672 L317.1915,251.3023 C325.1324,256.7116 333.2765,262.5793 335.2895,264.3413 C337.3027,266.1037 343.8913,269.6113 349.9305,272.1361 C355.9701,274.6608 365.8535,278.8058 371.8925,281.3471 C381.4355,285.3626 398.2325,297.1431 407.7375,306.4871 C409.3867,308.1084 413.2503,310.919 416.3234,312.7329 C423.451,316.9401 424.873,320.2227 432.4124,349.8739 C438.955,375.6059 438.8432,379.0979 431.3485,383.1059 C428.6876,384.5289 426.4209,384.3471 422.6719,382.40983 C418.0812,380.03763 417.0175,377.42913 411.5209,355.06383 C405.7056,331.39983 405.1575,330.13683 398.7349,325.58883 C395.0443,322.97563 387.9239,317.58633 382.9119,313.61283 C377.9001,309.63913 373.2231,306.98133 372.5179,307.70663 C371.81319,308.43195 365.3178,322.60463 358.0839,339.20063 C350.8498,355.79663 343.7189,370.75463 342.2369,372.44063 C340.7549,374.12633 327.4669,381.91053 312.7079,389.73863 C286.2319,403.78263 285.6609,404.21663 269.8929,422.33563 C261.1035,432.43563 252.6119,442.55563 251.0229,444.82463 C246.6681,451.04153 238.9499,454.50163 234.5729,452.19893 L234.574,452.2 Z M358.724,271.18 C344.464,262.4202 348.337,236.479 365.58,233.987 C380.544,230.5199 396.304,247.921 388.642,262.191 C383.6797,273.328 369.002,275.897 358.724,271.1806 L358.724,271.18 Z" id="Shape" sketch:type="MSShapeGroup"></path>
        </g>
    </g>
</svg>