<?xml version="1.0" encoding="UTF-8" standalone="no"?>
<svg width="174px" height="151px" viewBox="0 0 174 151" version="1.1" xmlns="http://www.w3.org/2000/svg" xmlns:xlink="http://www.w3.org/1999/xlink" xmlns:sketch="http://www.bohemiancoding.com/sketch/ns">
    <!-- Generator: Sketch 3.0 (7574) - http://www.bohemiancoding.com/sketch -->
    <title>ISO_7010_W036</title>
    <description>Created with Sketch.</description>
    <defs></defs>
    <g id="Page-1" stroke="none" stroke-width="1" fill="none" fill-rule="evenodd" sketch:type="MSPage">
        <g id="ISO_7010_W036_Original" sketch:type="MSLayerGroup" fill="#000000">
            <path d="M84.41,1.29 C86.37,-0.09 89.47,0.16 90.94,2.14 C92.27,3.93 93.28,5.94 94.41,7.86 C120.66,53.17 147,98.44 173.22,143.76 C175.44,146.86 172.83,151.64 169,151.35 C114.65,151.44 60.3,151.39 5.95,151.38 C1.77,151.94 -1.16,146.75 1.44,143.44 C27.79,97.9 54.23,52.4 80.59,6.86 C81.78,4.96 82.65,2.74 84.41,1.29 L84.41,1.29 Z M87.23,16.34 C63.16,57.91 38.99,99.43 14.98,141.04 C63.15,140.8 111.33,141.06 159.5,140.94 C135.4,99.41 111.35,57.85 87.23,16.34 L87.23,16.34 Z M92.84,124.54 C92.83,127.74 96.22,126.71 98.28,126.78 C96.53,125.9 94.7,125.17 92.84,124.54 L92.84,124.54 Z M87.38,125.14 C84.52,126.44 88.57,128.52 89.79,126.73 C90.87,125.28 88.4,124.31 87.38,125.14 L87.38,125.14 Z M96.86,119.61 C101.46,121.11 106.1,122.48 110.74,123.84 C106.45,123.66 102.18,123.23 97.91,122.86 C99.55,124.26 101.2,125.67 102.88,127.04 C106.02,125.85 109.3,127.05 112.52,126.54 C114.55,126.16 116.56,126.76 118.53,127.23 C118.9,126.12 119.27,125.02 119.64,123.91 C116.76,124.56 111.86,126.15 110.64,122.25 C114.1,123.05 117.6,122.53 121.07,122.08 C120.87,121.61 120.48,120.66 120.28,120.18 C115.86,120.7 111.43,120.09 107.01,120.63 C105.41,120.61 104.08,119.51 102.71,118.85 C109.09,118.21 115.57,118.33 121.96,118.6 C122.14,117.9 122.52,116.49 122.71,115.78 C119.42,115.86 116.11,116.58 112.86,115.75 C110.91,116.17 108.92,116.37 106.95,115.96 C103.14,115.09 99.83,117.64 96.86,119.61 L96.86,119.61 Z M69.4,73.47 C66.92,72.92 67.45,68.75 70.02,68.89 C74.04,68.7 78.09,68.63 82.11,68.94 C86.13,70.33 89.94,72.35 93.64,74.42 C96.7,77.79 97.63,82.82 101.55,85.46 C106.93,89.35 112.06,93.59 116.9,98.15 C118.12,99.01 118.18,101.08 116.86,101.9 C115.04,103.54 113.2,101.2 111.79,100.16 C106.62,95.32 100.96,91.06 95.28,86.84 C91.33,89.14 87.36,91.4 83.4,93.7 C87.4,101.54 90.7,109.69 93.5,118.03 C96.28,118.66 98.79,117.45 101.08,115.99 C98.22,115.04 94.86,117.58 92.64,114.8 C94.42,114.47 96.18,114.02 97.99,113.91 C106.51,114.59 115.1,113.69 123.59,114.28 C123.69,113.74 123.9,112.65 124,112.11 C120.71,112.21 117.4,112.82 114.13,112.08 C111.76,112.73 109.34,112.56 106.96,112.06 C104.6,112.68 102.17,112.62 99.8,112.05 C96.83,112.86 92.79,113.17 91.18,109.9 C97.68,111.22 104.34,109.58 110.85,110.66 C113.2,109.91 115.63,110.09 117.99,110.67 C120.29,109.98 122.69,110.06 125.01,110.61 C125.19,110.02 125.54,108.85 125.71,108.27 C121.9,109.59 117.95,108.31 114.04,108.82 C106.7,108.85 99.31,108.41 92,109.09 C91.52,108.67 90.57,107.82 90.09,107.4 C98.71,106.32 107.43,107.18 116.09,106.92 C119.63,106.67 123.28,107.57 126.74,106.45 C115.53,105.72 104.25,106.38 93.02,106.1 C91.39,106.23 89.93,105.61 89,104.26 C101.78,103.86 114.57,104.18 127.36,104.09 C127.73,103.33 128.11,102.57 128.49,101.82 C131.09,112.69 134.55,123.35 136.84,134.29 C135.69,133.59 134.91,132.52 134.7,131.17 C132.65,123.66 130.78,116.11 128.63,108.62 C125.4,116.98 122.2,125.34 118.95,133.69 C89.96,133.57 60.97,133.9 31.99,133.53 C33.73,130.92 37.13,130.71 39.93,131.02 C45.6,131.6 51.34,130.5 56.97,131.38 C62.59,130.47 68.35,131.62 74.03,131 C75.68,130.77 77.32,131.16 78.95,131.38 C84.21,130.5 89.59,131.53 94.91,131.09 C96.93,130.76 98.95,131.04 100.95,131.37 C105.86,130.63 110.89,131.26 115.86,131.26 C116.5,130.88 117.77,130.1 118.41,129.72 C116.77,129.06 115.11,127.97 113.26,128.43 C109.89,128.98 106.49,128.24 103.1,128.71 C99.45,128.12 95.77,129.23 92.16,128.29 C92.07,128.7 91.88,129.53 91.79,129.95 C91.52,129.66 90.99,129.08 90.72,128.79 C72.07,128.26 53.36,128.88 34.72,128.44 C37.53,126.06 41.36,126.09 44.74,126.91 C47.11,126.19 49.57,126.34 51.96,126.91 C54.35,126.24 56.82,126.33 59.23,126.89 C60.73,126.65 62.25,126.29 63.78,126.52 C67.16,127.04 70.57,125.97 73.91,126.9 C76.27,126.23 78.71,126.32 81.08,126.93 C82.13,126.04 83.19,125.14 84.24,124.24 C80.84,124.23 77.44,124.25 74.05,124.13 C77.61,122.59 81.26,121.3 84.9,119.96 C82.64,118.51 80.53,116.72 77.95,115.86 C72.64,115.93 67.26,116.48 61.98,115.75 C55.36,116.63 48.63,115.5 41.96,116.25 C43.19,114.74 45.04,113.73 47.01,113.87 C53.02,114.42 59.07,113.95 65.11,114.14 C71.47,113.97 77.86,114.47 84.2,113.84 C84.77,114.25 85.89,115.09 86.46,115.51 C85.51,115.41 83.63,115.23 82.68,115.14 C85.87,115.21 86.78,118.17 87.68,120.67 C87.87,120.52 88.24,120.24 88.43,120.09 C85.16,110.68 81.15,101.59 76.77,92.65 C74.12,95.67 71.88,99.09 68.83,101.72 C66.96,102.26 65.3,100.92 63.68,100.23 C60.05,98.19 56.1,96.72 52.66,94.36 C50.79,92.69 52.61,89.29 55.01,89.79 C59.19,91.33 62.99,93.74 67.02,95.64 C69.96,92.4 72.42,88.71 75.66,85.76 C80.1,82.81 84.89,80.44 89.45,77.69 C86.66,76.37 83.99,74.75 81.04,73.81 C77.18,73.31 73.26,74 69.4,73.47 Z M43.65,122.55 C52.04,122.42 60.45,122.73 68.82,122.43 C70.43,122.64 71.99,123.06 73.57,123.45 C72.38,125.71 69.82,124.29 67.88,124.42 C61.62,124.76 55.37,124.29 49.11,124.58 C45.21,124.08 41.22,125.38 37.46,123.79 C39.1,122.01 41.55,122.84 43.65,122.55 Z M40.7,118.85 C46.08,118.2 51.56,118.17 56.94,118.72 C62.93,117.86 69.04,118.96 75.08,118.25 C76.87,118.07 79.01,118.72 79.29,120.77 C73.23,119.78 67.07,120.8 60.95,120.35 C54,120.67 47.03,119.96 40.1,120.72 C40.25,120.25 40.55,119.32 40.7,118.85 Z M44,112.7 C45.99,109.56 49.79,109.82 52.9,110.66 C56.25,109.65 59.69,110.85 63.09,110.29 C70.25,110.66 77.42,109.87 84.56,110.76 C83.69,113.86 80.15,112.23 78,112.04 C75.64,112.7 73.21,112.61 70.84,112.08 C65.99,112.6 61.04,112.55 56.18,112.07 C53.82,112.74 51.41,112.57 49.04,112.05 C47.37,112.32 45.69,112.54 44,112.7 Z M46.59,107.43 C58.34,106.31 70.2,107.15 81.99,106.94 L83.48,108.19 C77.06,109.49 70.48,108.37 63.98,108.82 C60.08,108.56 56.18,108.95 52.28,108.69 C50.32,108.62 47.34,110.18 46.59,107.43 Z M49.26,104.09 C59.79,104.2 70.34,103.83 80.86,104.25 C81.22,104.75 81.94,105.74 82.3,106.23 C70.91,105.84 59.49,106.55 48.11,105.87 C48.4,105.42 48.97,104.53 49.26,104.09 Z M100.25,72.29 C103.37,70.96 107.19,73.65 106.8,77.06 C106.69,80.54 102.24,82.77 99.41,80.71 C96.18,78.85 96.73,73.47 100.25,72.29 Z" id="Shape" sketch:type="MSShapeGroup"></path>
        </g>
    </g>
</svg>