<?xml version="1.0" encoding="UTF-8" ?>
<!DOCTYPE svg PUBLIC "-//W3C//DTD SVG 1.1//EN" "http://www.w3.org/Graphics/SVG/1.1/DTD/svg11.dtd">
<svg width="200pt" height="200pt" viewBox="0 0 200 200" version="1.1" xmlns="http://www.w3.org/2000/svg">
<g id="#ffffffff">
<path fill="#ffffff" opacity="1.00" d=" M 0.00 0.00 L 200.00 0.00 L 200.00 13.23 C 197.14 13.21 194.21 12.74 191.39 13.36 C 193.60 14.66 197.27 13.60 200.00 13.68 L 200.00 186.25 C 196.69 185.99 193.35 185.92 190.05 186.33 C 193.36 186.57 196.68 186.53 200.00 186.68 L 200.00 200.00 L 0.00 200.00 L 0.00 0.00 M 13.45 10.54 C 13.86 7.24 13.87 3.90 13.57 0.58 C 13.09 3.88 13.12 7.23 13.45 10.54 M 97.41 25.29 C 95.65 26.74 94.78 28.96 93.59 30.86 C 67.23 76.40 40.79 121.90 14.44 167.44 C 11.84 170.75 14.77 175.94 18.95 175.38 C 73.30 175.39 127.65 175.44 182.00 175.35 C 185.83 175.64 188.44 170.86 186.22 167.76 C 160.00 122.44 133.66 77.17 107.41 31.86 C 106.28 29.94 105.27 27.93 103.94 26.14 C 102.47 24.16 99.37 23.91 97.41 25.29 M 13.43 199.42 C 13.88 196.12 13.87 192.77 13.53 189.46 C 13.11 192.76 13.11 196.11 13.43 199.42 Z" />
</g>
<g id="#f4c91bff">
<path fill="#f4c91b" opacity="1.00" d=" M 13.45 10.54 C 13.12 7.23 13.09 3.88 13.57 0.58 C 13.87 3.90 13.86 7.24 13.45 10.54 Z" />
<path fill="#f4c91b" opacity="1.00" d=" M 191.39 13.36 C 194.21 12.74 197.14 13.21 200.00 13.23 L 200.00 13.68 C 197.27 13.60 193.60 14.66 191.39 13.36 Z" />
<path fill="#f4c91b" opacity="1.00" d=" M 100.23 40.34 C 124.35 81.85 148.40 123.41 172.50 164.94 C 124.33 165.06 76.15 164.80 27.98 165.04 C 51.99 123.43 76.16 81.91 100.23 40.34 M 82.40 97.47 C 86.26 98.00 90.18 97.31 94.04 97.81 C 96.99 98.75 99.66 100.37 102.45 101.69 C 97.89 104.44 93.10 106.81 88.66 109.76 C 85.42 112.71 82.96 116.40 80.02 119.64 C 75.99 117.74 72.19 115.33 68.01 113.79 C 65.61 113.29 63.79 116.69 65.66 118.36 C 69.10 120.72 73.05 122.19 76.68 124.23 C 78.30 124.92 79.96 126.26 81.83 125.72 C 84.88 123.09 87.12 119.67 89.77 116.65 C 94.15 125.59 98.16 134.68 101.43 144.09 C 101.24 144.24 100.87 144.52 100.68 144.67 C 99.78 142.17 98.87 139.21 95.68 139.14 C 96.63 139.23 98.51 139.41 99.46 139.51 C 98.89 139.09 97.77 138.25 97.20 137.84 C 90.86 138.47 84.47 137.97 78.11 138.14 C 72.07 137.95 66.02 138.42 60.01 137.87 C 58.04 137.73 56.19 138.74 54.96 140.25 C 61.63 139.50 68.36 140.63 74.98 139.75 C 80.26 140.48 85.64 139.93 90.95 139.86 C 93.53 140.72 95.64 142.51 97.90 143.96 C 94.26 145.30 90.61 146.59 87.05 148.13 C 90.44 148.25 93.84 148.23 97.24 148.24 C 96.19 149.14 95.13 150.04 94.08 150.93 C 91.71 150.32 89.27 150.23 86.91 150.90 C 83.57 149.97 80.16 151.04 76.78 150.52 C 75.25 150.29 73.73 150.65 72.23 150.89 C 69.82 150.33 67.35 150.24 64.96 150.91 C 62.57 150.34 60.11 150.19 57.74 150.91 C 54.36 150.09 50.53 150.06 47.72 152.44 C 66.36 152.88 85.07 152.26 103.72 152.79 C 103.99 153.08 104.52 153.66 104.79 153.95 C 104.88 153.53 105.07 152.70 105.16 152.29 C 108.77 153.23 112.45 152.12 116.10 152.71 C 119.49 152.24 122.89 152.98 126.26 152.43 C 128.11 151.97 129.77 153.06 131.41 153.72 C 130.77 154.10 129.50 154.88 128.86 155.26 C 123.89 155.26 118.86 154.63 113.95 155.37 C 111.95 155.04 109.93 154.76 107.91 155.09 C 102.59 155.53 97.21 154.50 91.95 155.38 C 90.32 155.16 88.68 154.77 87.03 155.00 C 81.35 155.62 75.59 154.47 69.97 155.38 C 64.34 154.50 58.60 155.60 52.93 155.02 C 50.13 154.71 46.73 154.92 44.99 157.53 C 73.97 157.90 102.96 157.57 131.95 157.69 C 135.20 149.34 138.40 140.98 141.63 132.62 C 143.78 140.11 145.65 147.66 147.70 155.17 C 147.91 156.52 148.69 157.59 149.84 158.29 C 147.55 147.35 144.09 136.69 141.49 125.82 C 141.11 126.57 140.73 127.33 140.36 128.09 C 127.57 128.18 114.78 127.86 102.00 128.26 C 102.93 129.61 104.39 130.23 106.02 130.10 C 117.25 130.38 128.53 129.72 139.74 130.45 C 136.28 131.57 132.63 130.67 129.09 130.92 C 120.43 131.18 111.71 130.32 103.09 131.40 C 103.57 131.82 104.52 132.67 105.00 133.09 C 112.31 132.41 119.70 132.85 127.04 132.82 C 130.95 132.31 134.90 133.59 138.71 132.27 C 138.54 132.85 138.19 134.02 138.01 134.61 C 135.69 134.06 133.29 133.98 130.99 134.67 C 128.63 134.09 126.20 133.91 123.85 134.66 C 117.34 133.58 110.68 135.22 104.18 133.90 C 105.79 137.17 109.83 136.86 112.80 136.05 C 115.17 136.62 117.60 136.68 119.96 136.06 C 122.34 136.56 124.76 136.73 127.13 136.08 C 130.40 136.82 133.71 136.21 137.00 136.11 C 136.90 136.65 136.69 137.74 136.59 138.28 C 128.10 137.69 119.51 138.59 110.99 137.91 C 109.18 138.02 107.42 138.47 105.64 138.80 C 107.86 141.58 111.22 139.04 114.08 139.99 C 111.79 141.45 109.28 142.66 106.50 142.03 C 103.70 133.69 100.40 125.54 96.40 117.70 C 100.36 115.40 104.33 113.14 108.28 110.84 C 113.96 115.06 119.62 119.32 124.79 124.16 C 126.20 125.20 128.04 127.54 129.86 125.90 C 131.18 125.08 131.12 123.01 129.90 122.15 C 125.06 117.59 119.93 113.35 114.55 109.46 C 110.63 106.82 109.70 101.79 106.64 98.42 C 102.94 96.35 99.13 94.33 95.11 92.94 C 91.09 92.63 87.04 92.70 83.02 92.89 C 80.45 92.75 79.92 96.92 82.40 97.47 M 113.25 96.29 C 109.73 97.47 109.18 102.85 112.41 104.71 C 115.24 106.77 119.69 104.54 119.80 101.06 C 120.19 97.65 116.37 94.96 113.25 96.29 M 62.26 128.09 C 61.97 128.53 61.40 129.42 61.11 129.87 C 72.49 130.55 83.91 129.84 95.30 130.23 C 94.94 129.74 94.22 128.75 93.86 128.25 C 83.34 127.83 72.79 128.20 62.26 128.09 M 59.59 131.43 C 60.34 134.18 63.32 132.62 65.28 132.69 C 69.18 132.95 73.08 132.56 76.98 132.82 C 83.48 132.37 90.06 133.49 96.48 132.19 L 94.99 130.94 C 83.20 131.15 71.34 130.31 59.59 131.43 M 57.00 136.70 C 58.69 136.54 60.37 136.32 62.04 136.05 C 64.41 136.57 66.82 136.74 69.18 136.07 C 74.04 136.55 78.99 136.60 83.84 136.08 C 86.21 136.61 88.64 136.70 91.00 136.04 C 93.15 136.23 96.69 137.86 97.56 134.76 C 90.42 133.87 83.25 134.66 76.09 134.29 C 72.69 134.85 69.25 133.65 65.90 134.66 C 62.79 133.82 58.99 133.56 57.00 136.70 M 53.70 142.85 C 53.55 143.32 53.25 144.25 53.10 144.72 C 60.03 143.96 67.00 144.67 73.95 144.35 C 80.07 144.80 86.23 143.78 92.29 144.77 C 92.01 142.72 89.87 142.07 88.08 142.25 C 82.04 142.96 75.93 141.86 69.94 142.72 C 64.56 142.17 59.08 142.20 53.70 142.85 M 56.65 146.55 C 54.55 146.84 52.10 146.01 50.46 147.79 C 54.22 149.38 58.21 148.08 62.11 148.58 C 68.37 148.29 74.62 148.76 80.88 148.42 C 82.82 148.29 85.38 149.71 86.57 147.45 C 84.99 147.06 83.43 146.64 81.82 146.43 C 73.45 146.73 65.04 146.42 56.65 146.55 Z" />
<path fill="#f4c91b" opacity="1.00" d=" M 109.86 143.61 C 112.83 141.64 116.14 139.09 119.95 139.96 C 121.92 140.37 123.91 140.17 125.86 139.75 C 129.11 140.58 132.42 139.86 135.71 139.78 C 135.52 140.49 135.14 141.90 134.96 142.60 C 128.57 142.33 122.09 142.21 115.71 142.85 C 117.08 143.51 118.41 144.61 120.01 144.63 C 124.43 144.09 128.86 144.70 133.28 144.18 C 133.48 144.66 133.87 145.61 134.07 146.08 C 130.60 146.53 127.10 147.05 123.64 146.25 C 124.86 150.15 129.76 148.56 132.64 147.91 C 132.27 149.02 131.90 150.12 131.53 151.23 C 129.56 150.76 127.55 150.16 125.52 150.54 C 122.30 151.05 119.02 149.85 115.88 151.04 C 114.20 149.67 112.55 148.26 110.91 146.86 C 115.18 147.23 119.45 147.66 123.74 147.84 C 119.10 146.48 114.46 145.11 109.86 143.61 Z" />
<path fill="#f4c91b" opacity="1.00" d=" M 100.38 149.14 C 101.40 148.31 103.87 149.28 102.79 150.73 C 101.57 152.52 97.52 150.44 100.38 149.14 Z" />
<path fill="#f4c91b" opacity="1.00" d=" M 105.84 148.54 C 107.70 149.17 109.53 149.90 111.28 150.78 C 109.22 150.71 105.83 151.74 105.84 148.54 Z" />
<path fill="#f4c91b" opacity="1.00" d=" M 190.05 186.33 C 193.35 185.92 196.69 185.99 200.00 186.25 L 200.00 186.68 C 196.68 186.53 193.36 186.57 190.05 186.33 Z" />
<path fill="#f4c91b" opacity="1.00" d=" M 13.43 199.42 C 13.11 196.11 13.11 192.76 13.53 189.46 C 13.87 192.77 13.88 196.12 13.43 199.42 Z" />
</g>
<g id="#000000ff">
<path fill="#000000" opacity="1.00" d=" M 97.41 25.29 C 99.37 23.91 102.47 24.16 103.94 26.14 C 105.27 27.93 106.28 29.94 107.41 31.86 C 133.66 77.17 160.00 122.44 186.22 167.76 C 188.44 170.86 185.83 175.64 182.00 175.35 C 127.65 175.44 73.30 175.39 18.95 175.38 C 14.77 175.94 11.84 170.75 14.44 167.44 C 40.79 121.90 67.23 76.40 93.59 30.86 C 94.78 28.96 95.65 26.74 97.41 25.29 M 100.23 40.34 C 76.16 81.91 51.99 123.43 27.98 165.04 C 76.15 164.80 124.33 165.06 172.50 164.94 C 148.40 123.41 124.35 81.85 100.23 40.34 Z" />
<path fill="#000000" opacity="1.00" d=" M 82.40 97.47 C 79.92 96.92 80.45 92.75 83.02 92.89 C 87.04 92.70 91.09 92.63 95.11 92.94 C 99.13 94.33 102.94 96.35 106.64 98.42 C 109.70 101.79 110.63 106.82 114.55 109.46 C 119.93 113.35 125.06 117.59 129.90 122.15 C 131.12 123.01 131.18 125.08 129.86 125.90 C 128.04 127.54 126.20 125.20 124.79 124.16 C 119.62 119.32 113.96 115.06 108.28 110.84 C 104.33 113.14 100.36 115.40 96.40 117.70 C 100.40 125.54 103.70 133.69 106.50 142.03 C 109.28 142.66 111.79 141.45 114.08 139.99 C 111.22 139.04 107.86 141.58 105.64 138.80 C 107.42 138.47 109.18 138.02 110.99 137.91 C 119.51 138.59 128.10 137.69 136.59 138.28 C 136.69 137.74 136.90 136.65 137.00 136.11 C 133.71 136.21 130.40 136.82 127.13 136.08 C 124.76 136.73 122.34 136.56 119.96 136.06 C 117.60 136.68 115.17 136.62 112.80 136.05 C 109.83 136.86 105.79 137.17 104.18 133.90 C 110.68 135.22 117.34 133.58 123.85 134.66 C 126.20 133.91 128.63 134.09 130.99 134.67 C 133.29 133.98 135.69 134.06 138.01 134.61 C 138.19 134.02 138.54 132.85 138.71 132.27 C 134.90 133.59 130.95 132.31 127.04 132.82 C 119.70 132.85 112.31 132.41 105.00 133.09 C 104.52 132.67 103.57 131.82 103.09 131.40 C 111.71 130.32 120.43 131.18 129.09 130.92 C 132.63 130.67 136.28 131.57 139.74 130.45 C 128.53 129.72 117.25 130.38 106.02 130.10 C 104.39 130.23 102.93 129.61 102.00 128.26 C 114.78 127.86 127.57 128.18 140.36 128.09 C 140.73 127.33 141.11 126.57 141.49 125.82 C 144.09 136.69 147.55 147.35 149.84 158.29 C 148.69 157.59 147.91 156.52 147.70 155.17 C 145.65 147.66 143.78 140.11 141.63 132.62 C 138.40 140.98 135.20 149.34 131.95 157.69 C 102.96 157.57 73.97 157.90 44.99 157.53 C 46.73 154.92 50.13 154.71 52.93 155.02 C 58.60 155.60 64.34 154.50 69.97 155.38 C 75.59 154.47 81.35 155.62 87.03 155.00 C 88.68 154.77 90.32 155.16 91.95 155.38 C 97.21 154.50 102.59 155.53 107.91 155.09 C 109.93 154.76 111.95 155.04 113.95 155.37 C 118.86 154.63 123.89 155.26 128.86 155.26 C 129.50 154.88 130.77 154.10 131.41 153.72 C 129.77 153.06 128.11 151.97 126.26 152.43 C 122.89 152.98 119.49 152.24 116.10 152.71 C 112.45 152.12 108.77 153.23 105.16 152.29 C 105.07 152.70 104.88 153.53 104.79 153.95 C 104.52 153.66 103.99 153.08 103.72 152.79 C 85.07 152.26 66.36 152.88 47.72 152.44 C 50.53 150.06 54.36 150.09 57.74 150.91 C 60.11 150.19 62.57 150.34 64.96 150.91 C 67.35 150.24 69.82 150.33 72.23 150.89 C 73.73 150.65 75.25 150.29 76.78 150.52 C 80.16 151.04 83.57 149.97 86.91 150.90 C 89.27 150.23 91.71 150.32 94.08 150.93 C 95.13 150.04 96.19 149.14 97.24 148.24 C 93.84 148.23 90.44 148.25 87.05 148.13 C 90.61 146.59 94.26 145.30 97.90 143.96 C 95.64 142.51 93.53 140.72 90.95 139.86 C 85.64 139.93 80.26 140.48 74.98 139.75 C 68.36 140.63 61.63 139.50 54.96 140.25 C 56.19 138.74 58.04 137.73 60.01 137.87 C 66.02 138.42 72.07 137.95 78.11 138.14 C 84.47 137.97 90.86 138.47 97.20 137.84 C 97.77 138.25 98.89 139.09 99.46 139.51 C 98.51 139.41 96.63 139.23 95.68 139.14 C 98.87 139.21 99.78 142.17 100.68 144.67 C 100.87 144.52 101.24 144.24 101.43 144.09 C 98.16 134.68 94.15 125.59 89.77 116.65 C 87.12 119.67 84.88 123.09 81.83 125.72 C 79.96 126.26 78.30 124.92 76.68 124.23 C 73.05 122.19 69.10 120.72 65.66 118.36 C 63.79 116.69 65.61 113.29 68.01 113.79 C 72.19 115.33 75.99 117.74 80.02 119.64 C 82.96 116.40 85.42 112.71 88.66 109.76 C 93.10 106.81 97.89 104.44 102.45 101.69 C 99.66 100.37 96.99 98.75 94.04 97.81 C 90.18 97.31 86.26 98.00 82.40 97.47 M 109.86 143.61 C 114.46 145.11 119.10 146.48 123.74 147.84 C 119.45 147.66 115.18 147.23 110.91 146.86 C 112.55 148.26 114.20 149.67 115.88 151.04 C 119.02 149.85 122.30 151.05 125.52 150.54 C 127.55 150.16 129.56 150.76 131.53 151.23 C 131.90 150.12 132.27 149.02 132.64 147.91 C 129.76 148.56 124.86 150.15 123.64 146.25 C 127.10 147.05 130.60 146.53 134.07 146.08 C 133.87 145.61 133.48 144.66 133.28 144.18 C 128.86 144.70 124.43 144.09 120.01 144.63 C 118.41 144.61 117.08 143.51 115.71 142.85 C 122.09 142.21 128.57 142.33 134.96 142.60 C 135.14 141.90 135.52 140.49 135.71 139.78 C 132.42 139.86 129.11 140.58 125.86 139.75 C 123.91 140.17 121.92 140.37 119.95 139.96 C 116.14 139.09 112.83 141.64 109.86 143.61 M 100.38 149.14 C 97.52 150.44 101.57 152.52 102.79 150.73 C 103.87 149.28 101.40 148.31 100.38 149.14 M 105.84 148.54 C 105.83 151.74 109.22 150.71 111.28 150.78 C 109.53 149.90 107.70 149.17 105.84 148.54 Z" />
<path fill="#000000" opacity="1.00" d=" M 113.25 96.29 C 116.37 94.96 120.19 97.65 119.80 101.06 C 119.69 104.54 115.24 106.77 112.41 104.71 C 109.18 102.85 109.73 97.47 113.25 96.29 Z" />
<path fill="#000000" opacity="1.00" d=" M 62.26 128.09 C 72.79 128.20 83.34 127.83 93.86 128.25 C 94.22 128.75 94.94 129.74 95.30 130.23 C 83.91 129.84 72.49 130.55 61.11 129.87 C 61.40 129.42 61.97 128.53 62.26 128.09 Z" />
<path fill="#000000" opacity="1.00" d=" M 59.59 131.43 C 71.34 130.31 83.20 131.15 94.99 130.94 L 96.48 132.19 C 90.06 133.49 83.48 132.37 76.98 132.82 C 73.08 132.56 69.18 132.95 65.28 132.69 C 63.32 132.62 60.34 134.18 59.59 131.43 Z" />
<path fill="#000000" opacity="1.00" d=" M 57.00 136.70 C 58.99 133.56 62.79 133.82 65.90 134.66 C 69.25 133.65 72.69 134.85 76.09 134.29 C 83.25 134.66 90.42 133.87 97.56 134.76 C 96.69 137.86 93.15 136.23 91.00 136.04 C 88.64 136.70 86.21 136.61 83.84 136.08 C 78.99 136.60 74.04 136.55 69.18 136.07 C 66.82 136.74 64.41 136.57 62.04 136.05 C 60.37 136.32 58.69 136.54 57.00 136.70 Z" />
<path fill="#000000" opacity="1.00" d=" M 53.70 142.85 C 59.08 142.20 64.56 142.17 69.94 142.72 C 75.93 141.86 82.04 142.96 88.08 142.25 C 89.87 142.07 92.01 142.72 92.29 144.77 C 86.23 143.78 80.07 144.80 73.95 144.35 C 67.00 144.67 60.03 143.96 53.10 144.72 C 53.25 144.25 53.55 143.32 53.70 142.85 Z" />
<path fill="#000000" opacity="1.00" d=" M 56.65 146.55 C 65.04 146.42 73.45 146.73 81.82 146.43 C 83.43 146.64 84.99 147.06 86.57 147.45 C 85.38 149.71 82.82 148.29 80.88 148.42 C 74.62 148.76 68.37 148.29 62.11 148.58 C 58.21 148.08 54.22 149.38 50.46 147.79 C 52.10 146.01 54.55 146.84 56.65 146.55 Z" />
</g>
</svg>
