<?xml version="1.0" encoding="UTF-8" standalone="no"?>
<svg width="609px" height="532px" viewBox="0 0 609 532" version="1.1" xmlns="http://www.w3.org/2000/svg" xmlns:xlink="http://www.w3.org/1999/xlink" xmlns:sketch="http://www.bohemiancoding.com/sketch/ns">
    <!-- Generator: Sketch 3.0 (7574) - http://www.bohemiancoding.com/sketch -->
    <title>ISO_7010_W020</title>
    <description>Created with Sketch.</description>
    <defs></defs>
    <g id="Page-1" stroke="none" stroke-width="1" fill="none" fill-rule="evenodd" sketch:type="MSPage">
        <g id="ISO_7010_W020_Original" sketch:type="MSLayerGroup" transform="translate(1.000000, 1.000000)" stroke="#000000" fill="#000000">
            <path d="M16.28545,530.3949 L587.81323,530.3949 C599.50304,530.74212 611.54009,519.97823 605.17434,505.3949 L318.36878,9.56157 C310.72989,-3.74862 295.45211,-1.4338 287.11878,10.25601 L2.74378,503.65879 C-4.54789,515.69583 0.66045,528.42731 16.28545,530.3949 L16.28545,530.3949 Z M303.091,56.43657 L49.27156,494.28379 L555.52156,494.28379 L303.091,56.43657 Z M318.403002,359.535932 C318.403002,375.451522 305.500862,388.353662 289.585272,388.353662 C273.669672,388.353662 260.767542,375.451522 260.767542,359.535932 C260.767542,343.620332 273.669672,330.718192 289.585272,330.718192 C305.500862,330.718192 318.403002,343.620333 318.403002,359.535932 Z M277.04934,213.03379 L277.04934,230.04768 L248.57711,259.56157 L303.091,255.04768 L305.17434,291.15879 L327.39656,255.74212 L349.27156,276.57546 L348.57711,249.49212 L362.81323,240.11712 L356.216,233.5199 L371.14656,233.86712 L379.82711,240.81157 L362.466,255.3949 L361.77156,306.43657 L330.52156,276.22824 L295.10489,330.3949 L290.93823,270.67268 L203.091,281.78379 L277.04934,213.03379 Z M373.57711,229.70046 L286.07711,229.70046 L285.03545,208.5199 L246.14656,208.17268 L257.60489,186.99212 L348.92434,186.99212 L373.57711,229.70046 Z M187.11878,467.54768 L229.47989,467.8949 L264.20211,432.47824 L268.02156,467.8949 L333.99378,467.20046 L329.82711,422.40879 L404.13267,405.3949 C411.19286,402.73286 414.08637,396.25138 411.77156,388.03379 L387.11878,321.71435 C378.32248,302.96435 354.24841,315.81157 358.64656,329.00601 L378.43823,381.43657 L324.61878,393.24212 L265.24378,399.83935 C257.6049,400.41805 252.74378,402.03842 247.53545,408.86712 L187.11878,467.54768 Z" id="path4328" sketch:type="MSShapeGroup"></path>
        </g>
    </g>
</svg>