<?xml version="1.0" encoding="UTF-8" standalone="no"?>
<svg width="600px" height="524px" viewBox="0 0 600 524" version="1.1" xmlns="http://www.w3.org/2000/svg" xmlns:xlink="http://www.w3.org/1999/xlink" xmlns:sketch="http://www.bohemiancoding.com/sketch/ns">
    <!-- Generator: Sketch 3.0 (7574) - http://www.bohemiancoding.com/sketch -->
    <title>ISO_7010_W019@2x</title>
    <description>Created with Sketch.</description>
    <defs></defs>
    <g id="Page-1" stroke="none" stroke-width="1" fill="none" fill-rule="evenodd" sketch:type="MSPage">
        <g id="ISO_7010_W019_Original" sketch:type="MSLayerGroup" fill="#000000">
            <path d="M597.6,499.6 L313.8,8 C310.9,3 305.6,0 299.9,0 C294.2,0 288.9,3.1 286,8 L2.2,499.6 C-0.7,504.6 -0.7,510.7 2.2,515.6 C5.1,520.6 10.4,523.6 16.1,523.6 L583.7,523.6 C589.4,523.6 594.7,520.5 597.6,515.6 C600.5,510.6 600.5,504.5 597.6,499.6 Z M44,491.52526 L300,50.0363265 L556,491.52526 L44,491.52526 Z M169.65079,393.77526 L169.65079,387.37864 L153.63137,387.37864 L137.61195,387.37864 L137.61195,380.09709 L137.61195,372.81554 L153.4288,372.81554 L169.24564,372.81554 L170.17637,366.79096 L171.1071,360.76637 L180.58218,370.57975 L190.05726,380.3931 L179.85402,390.28247 L169.65079,400.17184 L169.65079,393.77526 Z M417.9427,389.61443 L408.46762,379.80108 L418.67086,369.91171 L428.87409,360.02234 L428.87409,366.41893 L428.87409,372.81554 L446.34982,372.81554 L463.82555,372.81554 L463.82555,380.09709 L463.82555,387.37864 L446.55239,387.37864 L429.27924,387.37864 L428.74053,400.48601 L417.9427,389.61443 Z M426.55741,308.81777 L430.5291,317.1164 L406.26641,317.1164 L405.73731,442.06301 L504.82441,442.06301 L505,450 L355,450 L353.29868,308.81777 L426.55741,308.81777 Z M376.77247,316.66446 L362.51529,316.66446 L362.51529,325.28322 L399.49735,360 L399.49735,337.19848 L376.77247,316.66446 Z M362.08142,349.98491 L362.08142,372.8228 C362.08142,372.8228 399.32803,409.92052 399.59258,408.59777 L399.59258,385.7599 L362.08142,349.98491 Z M362.34597,396.01436 L362.34597,414.84762 L387.29844,442.06301 L396.41798,442.06301 L399.32803,433.11209 L362.34597,396.01436 Z M171.74127,308.81777 L167.76958,317.1164 L192.03227,317.1164 L192.56137,442.06301 L93.47427,442.06301 L93.29868,450 L243.29868,450 L245,308.81777 L171.74127,308.81777 Z M221.52621,316.66446 L235.78339,316.66446 L235.78339,325.28322 L198.80133,360 L198.80133,337.19848 L221.52621,316.66446 Z M236.21726,349.98491 L236.21726,372.8228 C236.21726,372.8228 198.97065,409.92052 198.7061,408.59777 L198.7061,385.7599 L236.21726,349.98491 Z M235.95271,396.01436 L235.95271,414.84762 L211.00024,442.06301 L201.8807,442.06301 L198.97065,433.11209 L235.95271,396.01436 Z M317.5,219.5 C317.5,229.164983 309.664983,237 300,237 C290.335017,237 282.5,229.164983 282.5,219.5 C282.5,209.835017 290.335017,202 300,202 C309.664983,202 317.5,209.835017 317.5,219.5 L317.5,219.5 Z M257.5,265 C259.44735,252.14691 268.68209,244.35349 282.5,243 L322.5,243 C332.74656,245.31966 342.45346,250.2946 342.5,265 L342.5,345 C342.5,352 325.5,353 325.68942,345 L325.82869,272.08914 L322.5,272.22841 L322.5,442 C322.5,450 302.5,450 302.5,441.992 L302.5,338.37083 C301.64201,336.353 300.52432,335.76409 299.46379,338.18978 L298.90669,441.992 C298.5,450 279.5,450 279.5,442 L279.12953,271.79666 L275.82869,271.65738 L275.68942,345 C275.5,352 257.5,353 257.5,345 L257.5,265 Z" id="sign_border" sketch:type="MSShapeGroup"></path>
        </g>
    </g>
</svg>