<?xml version="1.0" encoding="UTF-8" standalone="no"?>
<svg width="600px" height="524px" viewBox="0 0 600 524" version="1.1" xmlns="http://www.w3.org/2000/svg" xmlns:xlink="http://www.w3.org/1999/xlink" xmlns:sketch="http://www.bohemiancoding.com/sketch/ns">
    <!-- Generator: Sketch 3.0 (7574) - http://www.bohemiancoding.com/sketch -->
    <title>ISO_7010_W029</title>
    <description>Created with Sketch.</description>
    <defs></defs>
    <g id="Page-1" stroke="none" stroke-width="1" fill="none" fill-rule="evenodd" sketch:type="MSPage">
        <g id="ISO_7010_W029_Original" sketch:type="MSLayerGroup" fill="#000000">
            <path d="M160.449493,290.700407 L44,491.52526 L556,491.52526 L375.206721,179.735291 C374.568779,181.607916 373.139935,183.015165 370.7685,183.91797 L370.7685,183.91797 C368.6365,183.91797 315.1925,266.64509 314.5432,270.95028 C314.3451,272.2652 314.0204,274.59838 313.8221,276.13512 L313.4615,278.9292 L309.1346,277.26881 L304.8077,275.60841 L304.8077,269.28242 L304.8077,262.95643 L301.2019,259.07033 L297.5961,255.18424 L303.0151,257.10291 L308.4341,259.02158 L306.7336,250.51875 L305.033,242.01592 L308.5261,240.37079 L312.0192,238.72566 L308.4134,237.04297 L304.8077,235.36027 L304.8077,229.83143 L304.8077,224.30258 L307.4519,224.30258 C308.9062,224.30258 310.6399,225.92518 311.3046,227.90835 L312.5131,231.51412 L316.192,198.34104 C318.2153,180.09585 321.5914,151.55784 323.6943,134.92324 L327.5178,104.67851 L321.2192,94.53863 L314.9207,84.39874 L313.1218,101.70643 C312.1324,111.22566 309.0853,144.97566 306.3504,176.70643 L301.3779,234.39874 L298.9611,240.16797 L296.5443,245.9372 L295.8348,153.62951 C295.484628,108.080021 295.199656,68.1322448 295.153571,58.3943139 L285.017467,75.8746952 L289.0876,136.23922 C291.602,173.52942 293.247,207.62519 292.743,212.00762 L291.8269,219.97566 L280.8129,166.61028 C274.935115,138.131048 268.970901,111.620775 267.289442,106.447848 L265.743206,109.114433 L266.0691,111.80259 C266.9347,118.94201 269.4228,134.51893 271.5984,146.41797 C273.7739,158.31701 278.3355,183.3482 281.7353,202.04285 L287.9167,236.03312 L286.4938,239.54285 L285.0708,243.05258 L284.8432,238.106 L284.6153,233.15941 L278.7416,230.0159 L272.8679,226.87238 L277.3372,237.56885 C279.7953,243.4519 281.4649,248.59009 281.0474,248.98704 C280.63,249.384 269.2548,230.37907 255.7692,206.75387 C245.743482,189.18998 236.534877,173.991098 231.980736,167.340047 L229.06274,172.372323 C231.611414,177.893038 236.584367,186.337857 244.3135,198.46316 C264.8948,230.75075 266.7475,233.71419 275.3443,248.09868 L281.9386,259.13257 L280.3658,261.67733 L278.7931,264.22208 L283.3305,268.75943 L287.8678,273.29679 L286.0779,276.19295 L284.2879,279.08912 L275.7978,274.69869 L267.3077,270.30827 L267.3077,273.26696 L267.3077,276.22566 L264.1144,276.22566 L260.9212,276.22566 L262.5829,271.89523 L264.2447,267.56481 L246.7343,258.72559 L229.2239,249.88637 L230.933,248.17719 L232.6422,246.46802 L229.4294,242.59684 L226.2166,238.72566 L221.5218,238.82787 L216.8269,238.93009 L224.0384,243.05258 C237.3381,250.65538 226.9504,247.47634 209.1773,238.50453 L194.895905,231.29529 L173.597131,268.026435 L177.0919,268.75837 C181.4942,269.68039 198.5861,272.28453 215.0739,274.54534 L245.0518,278.65592 L246.8047,281.25697 C247.7688,282.68754 251.1538,285.06141 254.3269,286.53221 L260.0961,289.20642 L207.7268,289.99159 L160.449493,290.700407 L160.449493,290.700407 Z M597.6,499.6 L313.8,8 C310.9,3 305.6,0 299.9,0 C294.2,0 288.9,3.1 286,8 L2.2,499.6 C-0.7,504.6 -0.7,510.7 2.2,515.6 C5.1,520.6 10.4,523.6 16.1,523.6 L583.7,523.6 C589.4,523.6 594.7,520.5 597.6,515.6 C600.5,510.6 600.5,504.5 597.6,499.6 Z M373.8699,448.03006 L373.8699,459.673737 L468.8699,459.673737 L468.8699,448.03006 L373.8699,448.03006 Z M417.5136,335.15916 C412.622,336.61343 414.97967,364.23409 412.61647,360.80708 C412.21986,359.0884 406.66601,351.6838 403.09646,352.34482 C403.09646,352.34482 408.12485,360.66948 400.58912,382.61562 C400.58912,382.61562 397.54906,373.90189 393.05407,373.10866 C393.05407,373.10866 392.12017,394.12129 390.53369,399.40951 C390.53369,399.40951 389.8818,398.2175 385.51903,395.30899 C383.71196,404.90108 380.62062,447.94526 412.87764,441.85131 C407.45722,439.47159 397.6833,430.61207 396.09683,415.27621 C396.09683,415.27621 398.73487,416.46795 399.79253,417.26118 C400.12698,417.51203 402.57261,404.30314 403.76246,402.45227 C403.76246,402.45227 406.27719,422.15549 413.1519,425.59282 C413.1519,425.59282 409.1759,410.77638 412.87764,402.84403 C412.87764,402.84403 416.71081,413.69461 419.35493,414.88444 C419.35493,414.88444 426.89454,403.51288 424.38264,387.25157 C424.38264,387.25157 435.61595,400.60273 430.06332,413.03006 C429.84094,413.52774 436.41013,407.07785 437.46778,402.58285 C437.46778,402.58285 440.37806,406.82017 438.39498,417 C438.29394,417.51906 441.57007,415.66784 442.49549,414.6102 C442.49549,414.6102 442.88955,431.80514 422.39767,440.66294 C429.02003,446.29194 464.18247,441.05525 458.10102,406.81397 C456.59484,410.57942 453.8699,413.03006 453.8699,413.03006 C453.07666,405.62654 462.98361,390.28611 451.34951,377.06555 C451.34951,377.06555 448.83867,385.66497 446.98779,386.19379 C446.98779,386.19379 442.09779,356.57595 434.03325,356.57595 C434.03325,356.57595 434.16695,366.22832 432.84488,367.15375 C432.84488,367.15375 426.36223,347.32842 422.52827,346.40298 C420.47795,344.79201 417.5136,335.15916 417.5136,335.15916 Z M421.07871,363.45805 C420.94651,368.21745 421.60564,368.87309 419.09374,372.44265 C418.86539,370.41966 418.81933,363.39057 421.07871,363.45805 Z M106.8412,414.36694 L192.1225,361.39476 C239.0272,332.26006 280,306.36839 283.173,303.85767 L288.9423,299.29277 L284.9759,300.01883 L281.0096,300.74489 L279.6875,297.13912 L278.3654,293.53335 L283.0591,293.53335 L287.7529,293.53335 L287.2846,289.92758 C287.027,287.94441 286.9702,284.6226 287.1583,282.54579 L287.5,278.76979 L290.1138,280.38521 L292.7276,282.00063 L291.3058,288.48816 L289.8841,294.97566 L293.0139,290.64873 L296.1436,286.32181 L294.4778,278.39194 L292.812,270.46207 L297.3675,272.21017 L301.923,273.95829 L301.923,277.88605 L301.923,281.81382 L305.9582,280.26539 L309.9933,278.71696 L311.8649,281.74528 L313.7366,284.77361 L329.7039,275.76221 L340.21133,269.83218 C350,267.55115 349.00311,267.77342 355.234,269.68574 L364.7969,272.62067 L378.0795,263.98044 L391.3621,255.34021 C398.2692,255.35201 403.2692,265.35196 400,270.50975 L385.7491,279.2784 L371.4982,288.04704 L370.6049,297.28058 C370.15374,304.70252 370,305 365.27567,309.39744 L343.75,323.38929 C329.4711,332.67062 276.25,366.07995 225.4807,397.63225 L133.173,455 C108.2692,470.35196 88.2692,425.35196 106.8412,414.36694 Z M241.6635,301.12724 L238.3898,297.18267 L256.0138,293.71537 C265.707,291.80835 274.286,290.89635 275.0784,291.68869 C276.764,293.37429 253.4187,305.07181 248.3691,305.07181 C246.4815,305.07181 243.464,303.29676 241.6635,301.12724 Z M262.3339,286.81597 L263.4588,283.43719 L268.2679,282.50454 L273.0769,281.57186 L273.0769,284.33154 L273.0769,287.09125 L267.1429,288.643 L261.209,290.19478 L262.3339,286.81597 Z M250,270.45643 L250,267.57181 L254.3269,267.57181 L258.6538,267.57181 L258.6538,270.45643 L258.6538,273.34104 L254.3269,273.34104 L250,273.34104 L250,270.45643 Z M322.1154,267.92502 L322.1154,261.80258 L326.4423,261.80258 L330.7692,261.80258 L330.7692,264.33399 C330.7692,265.72627 328.8221,268.48136 326.4423,270.45643 L322.1154,274.04745 L322.1154,267.92502 Z M191.1436,261.3213 C190.5017,259.2062 189.2921,255.3302 188.4556,252.70796 L186.9347,247.94027 L190.8575,242.61181 L194.7802,237.28335 L196.5342,241.80255 C197.4989,244.28811 198.5652,249.98769 198.9037,254.46828 L199.5192,262.61481 L195.9149,263.89088 L192.3107,265.16695 L191.1436,261.3213 Z M221.7307,261.2257 C217.8996,257.39457 217.0419,250.21211 220.4327,250.3559 C224.3427,250.52171 232.6923,258.04308 232.6923,261.39947 L232.6923,264.68724 L228.9423,264.68724 C226.8798,264.68724 223.6346,263.12954 221.7307,261.2257 Z M281.7307,263.6863 C281.7307,263.13579 284.3269,259.69198 287.5,256.03339 L293.2692,249.38141 L293.2692,253.57278 C293.2692,258.09257 287.7922,264.68724 284.0384,264.68724 C282.7692,264.68724 281.7307,264.23681 281.7307,263.6863 Z M188.4847,278.38035 L171.6809,275.5063 L168.4366,278.75061 L165.1923,281.99493 L185.2404,281.62467 L205.2884,281.25441 L188.4847,278.38035 Z M276.8967,263.5262 L278.4492,259.48054 L247.638,223.17303 L216.8269,186.86552 L215.8755,189.68814 L214.9242,192.51077 L239.5223,222.63983 L264.1204,252.76889 L260.6659,254.188 L257.2115,255.60712 L264.423,261.52534 C273.0139,268.57553 274.8463,268.86946 276.8967,263.5262 Z M316.1566,250.26416 C317.2718,249.47089 326.8179,228.15945 337.3702,202.9054 L356.5561,156.98895 L350.343,145.93425 C346.9258,139.85417 343.3601,134.87955 342.4192,134.87955 C341.4783,134.87955 336.0463,153.70166 330.3482,176.70647 L319.9881,218.53339 L322.549,218.53339 L325.1099,218.53339 L323.2666,226.46608 L321.4234,234.39878 L317.6816,237.42653 L313.9398,240.45428 L312.3705,251.84961 L310.8012,263.24493 L312.465,257.4757 C313.3802,254.30262 315.0414,251.05743 316.1566,250.26416 L316.1566,250.26416 Z M246.9327,241.05073 L237.0666,232.81414 L235.9084,236.2888 L234.7502,239.76345 L242.9283,246.28444 L251.1064,252.80544 L253.9526,251.04638 L256.7989,249.28732 L246.9327,241.05073 Z M225.8799,231.51416 L224.2195,227.18724 L227.2865,227.18724 L230.3535,227.18724 L218.1931,217.02752 L206.0327,206.86781 L201.9326,210.27065 L197.8324,213.6735 L200.1181,215.9534 C203.4309,219.25783 225.2941,235.66604 226.5105,235.76083 C227.0769,235.80493 226.7931,233.89397 225.8799,231.51416 L225.8799,231.51416 Z M261.8904,172.27136 L247.4847,130.55263 L247.3202,136.32186 C247.0663,145.23 258.093,189.21354 265.2324,207.77035 L271.6346,224.41115 L273.9653,219.20062 L276.2961,213.9901 L261.8904,172.27136 Z M262.3688,135.6007 C261.4385,129.65118 259.6553,122.18724 258.4061,119.01417 L256.1349,113.24493 L255.9681,119.01417 C255.7848,125.35512 261.1396,146.41801 262.935,146.41801 C263.5539,146.41801 263.2992,141.55022 262.3688,135.6007 Z M277.5349,98.69074 L275.5287,85.31234 L274.0864,86.75464 C273.2931,87.54791 273.5469,94.21723 274.6503,101.57535 L276.6565,114.95375 L278.0988,113.51145 C278.8921,112.71818 278.6384,106.04886 277.5349,98.69074 Z" id="sign_border" sketch:type="MSShapeGroup"></path>
        </g>
    </g>
</svg>