<?xml version="1.0" encoding="UTF-8" standalone="no"?>
<svg width="600px" height="524px" viewBox="0 0 600 524" version="1.1" xmlns="http://www.w3.org/2000/svg" xmlns:xlink="http://www.w3.org/1999/xlink" xmlns:sketch="http://www.bohemiancoding.com/sketch/ns">
    <!-- Generator: Sketch 3.0 (7574) - http://www.bohemiancoding.com/sketch -->
    <title>ISO_7010_W027</title>
    <description>Created with Sketch.</description>
    <defs></defs>
    <g id="Page-1" stroke="none" stroke-width="1" fill="none" fill-rule="evenodd" sketch:type="MSPage">
        <g id="ISO_7010_W027_Original" sketch:type="MSLayerGroup" fill="#000000">
            <path d="M597.6,499.6 L313.8,8 C310.9,3 305.6,0 299.9,0 C294.2,0 288.9,3.1 286,8 L2.2,499.6 C-0.7,504.6 -0.7,510.7 2.2,515.6 C5.1,520.6 10.4,523.6 16.1,523.6 L583.7,523.6 C589.4,523.6 594.7,520.5 597.6,515.6 C600.5,510.6 600.5,504.5 597.6,499.6 Z M556.005,491.52526 L44,491.52526 L300.005,50.0363265 L556.005,491.52526 Z M300.196988,223.918997 L287.064476,305.373143 L232.138005,243.814228 L265.100611,319.424932 L185.616342,297.329742 L254.266813,343.129642 L175.43917,367.523547 L257.943917,368.935344 L204.823429,432.036542 L274.983615,388.666682 L264.412467,470.482235 L299.969008,396.020889 L335.328035,470.580991 L324.986129,388.73287 L395.014989,432.332811 L342.090964,369.034101 L424.563142,367.852175 L345.833204,343.261808 L414.582433,297.659421 L335.031975,319.524529 L368.224663,244.012582 L313.133248,305.407603 L300.20035,223.944002 L300.196988,223.918997 Z M333.286661,350.0112 C333.286661,368.257447 318.494598,383.049511 300.24835,383.049511 C282.002102,383.049511 267.210039,368.257447 267.210039,350.0112 C267.210039,331.764952 282.002102,316.972889 300.24835,316.972889 C318.494598,316.972889 333.286661,331.764952 333.286661,350.0112 Z M300.722289,310.298361 C323.068572,310.298361 341.202996,328.432785 341.202996,350.779068 C341.202996,373.125351 323.068572,391.292344 300.722289,391.292344 C278.376005,391.292333 260.241581,373.125351 260.241581,350.779068 C260.241581,328.432785 278.376005,310.298361 300.722289,310.298361 L300.722289,310.298361 Z" id="Shape" sketch:type="MSShapeGroup"></path>
        </g>
    </g>
</svg>