<?xml version="1.0" encoding="UTF-8" standalone="no"?>
<svg width="600px" height="524px" viewBox="0 0 600 524" version="1.1" xmlns="http://www.w3.org/2000/svg" xmlns:xlink="http://www.w3.org/1999/xlink" xmlns:sketch="http://www.bohemiancoding.com/sketch/ns">
    <!-- Generator: Sketch 3.0 (7574) - http://www.bohemiancoding.com/sketch -->
    <title>ISO_7010_W005</title>
    <description>Created with Sketch.</description>
    <defs></defs>
    <g id="Page-1" stroke="none" stroke-width="1" fill="none" fill-rule="evenodd" sketch:type="MSPage">
        <g id="ISO_7010_W005_Original" sketch:type="MSLayerGroup" fill="#000000">
            <path d="M597.6,499.6 L313.8,8 C310.9,3 305.6,0 299.9,0 C294.2,0 288.9,3.1 286,8 L2.2,499.6 C-0.7,504.6 -0.7,510.7 2.2,515.6 C5.1,520.6 10.4,523.6 16.1,523.6 L583.7,523.6 C589.4,523.6 594.7,520.5 597.6,515.6 C600.5,510.6 600.5,504.5 597.6,499.6 Z M556.005,491.52526 L44,491.52526 L300.005,50.0363265 L556.005,491.52526 Z M287.71936,360.25 L260.56436,471.38 L338.97736,471.57083 L311.98036,360.63083 L287.71936,360.25 Z M299.82936,312.36 C295.16986,312.36 290.96886,314.2834 287.96036,317.386 C287.90036,317.4477 287.83772,317.505 287.77871,317.56763 C287.53359,317.82841 287.28005,318.07862 287.05206,318.35484 C287.00596,318.41084 286.97646,318.47986 286.93096,318.53649 C286.60517,318.94186 286.30974,319.37281 286.02264,319.80819 C285.76442,320.19977 285.52088,320.60546 285.29598,321.01929 C285.27428,321.05929 285.25688,321.10009 285.23558,321.14041 C284.7542,322.04349 284.33352,322.99361 284.02448,323.98651 C283.8633,324.50452 283.71087,325.02251 283.60058,325.56091 C283.59558,325.58031 283.60558,325.60271 283.60058,325.62131 C283.49628,326.14087 283.41283,326.65981 283.35838,327.19571 C283.35738,327.21541 283.35938,327.23651 283.35838,327.25611 C283.30568,327.79286 283.29798,328.34061 283.29798,328.89111 C283.29798,329.45042 283.30398,329.98111 283.35838,330.52611 C283.35938,330.54581 283.35738,330.56681 283.35838,330.58651 C283.41238,331.11114 283.49853,331.65211 283.60058,332.16091 C283.71281,332.71957 283.8574,333.25911 284.02448,333.79591 C284.33351,334.78881 284.75419,335.73891 285.23558,336.64201 C285.25648,336.68131 285.27488,336.72401 285.29598,336.76311 C285.52303,337.18229 285.76144,337.57783 286.02264,337.97421 C286.30974,338.40957 286.60517,338.8405 286.93096,339.24581 C287.25446,339.6483 287.60133,340.02599 287.96036,340.39631 C290.96856,343.49891 295.16956,345.42231 299.82936,345.42231 C304.48886,345.42231 308.68986,343.49891 311.69836,340.39631 C311.75806,340.33471 311.82114,340.27717 311.88001,340.21466 C312.12619,339.95272 312.37776,339.705 312.60666,339.42745 C312.65266,339.37155 312.68236,339.30201 312.72776,339.2458 C313.05354,338.84047 313.34898,338.40951 313.63607,337.9742 C313.89728,337.57784 314.1357,337.18231 314.36274,336.7631 C314.38424,336.724 314.40214,336.6812 314.42314,336.64186 C314.90452,335.73878 315.32519,334.78876 315.63424,333.79576 C315.64024,333.77636 315.62824,333.75376 315.63424,333.73536 C315.78361,333.24518 315.95431,332.72986 316.05813,332.22146 C316.06313,332.20186 316.05313,332.18026 316.05813,332.16106 C316.16033,331.65226 316.24626,331.11126 316.30033,330.58666 C316.30133,330.56696 316.29933,330.54596 316.30033,330.52626 C316.35443,329.98133 316.36073,329.45056 316.36073,328.89126 C316.36073,328.31168 316.35973,327.75986 316.30033,327.19576 C316.24583,326.6599 316.16257,326.14086 316.05813,325.62136 C316.05313,325.60196 316.06313,325.57956 316.05813,325.56096 C315.95172,325.04184 315.78796,324.54736 315.63424,324.04706 C315.62824,324.02766 315.64024,324.00506 315.63424,323.98666 C315.3252,322.99375 314.90453,322.04366 314.42314,321.14056 C314.40164,321.10016 314.38414,321.05956 314.36274,321.01946 C314.13784,320.60563 313.89429,320.19997 313.63607,319.80836 C313.34898,319.37302 313.05354,318.94208 312.72776,318.53676 C312.68226,318.48016 312.65276,318.41118 312.60666,318.35529 C312.32401,318.01285 312.00718,317.70493 311.69835,317.38641 C308.69015,314.28381 304.48915,312.36041 299.82935,312.36041 L299.82936,312.36 Z M217.40064,246.32 L231.88164,260.801 C214.47764,278.255 203.70864,302.329 203.70864,328.903 C203.70864,355.477 214.47864,379.551 231.88164,397.005 L217.40064,411.486 C196.29564,390.331 183.25164,361.129 183.25164,328.903 C183.25164,296.677 196.29664,267.476 217.40064,246.32 L217.40064,246.32 Z M238.58064,270.78 L250.84564,283.045 C239.32064,294.623 233.92164,311.166 233.92164,328.776 C233.92164,346.386 240.65584,362.929 252.18064,374.507 L238.96164,387.917 C223.90664,372.81 215.18364,350.814 215.18364,327.822 C215.18364,304.83 223.52464,285.888 238.57964,270.781 L238.58064,270.78 Z M260.25064,291.56 L274.68964,305.569 C270.10914,311.4349 265.36364,319.984 265.36364,328.873 C265.36364,337.7632 269.15394,347.545 273.73554,353.401 L260.63154,367.139 C252.70564,357.035 245.91354,344.048 245.91354,328.682 C245.91354,313.316 252.32384,301.665 260.24954,291.56 L260.25064,291.56 Z M382.59936,246.32 L368.11836,260.801 C385.52236,278.255 396.29136,302.329 396.29136,328.903 C396.29136,355.477 385.52136,379.551 368.11836,397.005 L382.59936,411.486 C403.70436,390.331 416.74836,361.129 416.74836,328.903 C416.74836,296.677 403.70336,267.476 382.59936,246.32 L382.59936,246.32 Z M361.41936,270.78 L349.15436,283.045 C360.67936,294.623 366.07836,311.166 366.07836,328.776 C366.07836,346.386 359.34416,362.929 347.81936,374.507 L361.03836,387.917 C376.09336,372.81 384.81636,350.814 384.81636,327.822 C384.81636,304.83 376.47536,285.888 361.42036,270.781 L361.41936,270.78 Z M339.74936,291.56 L325.31036,305.569 C329.89086,311.4349 334.63636,319.984 334.63636,328.873 C334.63636,337.7632 330.84606,347.545 326.26446,353.401 L339.36846,367.139 C347.29436,357.035 354.08646,344.048 354.08646,328.682 C354.08646,313.316 347.67616,301.665 339.75046,291.56 L339.74936,291.56 Z" id="Shape" sketch:type="MSShapeGroup"></path>
        </g>
    </g>
</svg>